<svg xmlns="http://www.w3.org/2000/svg" width="1255.81" height="1001.633"><g data-name="Grupo 203" opacity=".2"><path fill="#4b6cbf" d="M1110.712 949.608s25.95-30.492 23.119-62.341l21.007 2.914s4.056 32.843-32.066 59.427Z" data-name="Caminho 116"/></g><g data-name="Grupo 8079"><g data-name="Grupo 7914"><path fill="#4520a0" d="M1255.785 858.097q-.121-67.72-.571-135.438l-.974-135.433q-.561-67.715-1.265-135.43-1.464-135.428-3.327-270.851l-1.829-135.423a15.717 15.717 0 0 0-.49-4.427 12.819 12.819 0 0 0-1.977-4.1 12.917 12.917 0 0 0-4.88-4.06 12.222 12.222 0 0 0-10.6-6.058H28.299a12.086 12.086 0 0 0-12.2 11.974v943.426a11.871 11.871 0 0 0 4.49 9.282 11.771 11.771 0 0 0 .411 1.155 13.012 13.012 0 0 0 6.066 6.554 12.667 12.667 0 0 0 4.376 1.34c1.57.168 2.966.095 4.408.116l17.235.037 34.471.074 68.941.124 137.883.237 137.883.036 275.765-.062 275.766.461 137.884-.148 68.943-.165 34.473-.127 17.241-.116 4.312-.046c1.438-.017 2.852-.019 4.4-.082l1.135-.039c.648-.217.151.426 1.739-.5a3.757 3.757 0 0 0 .447-1.464c.055-.374.1-.738.135-1.1.147-1.44.226-2.854.3-4.273.517-11.318.6-22.6.738-33.891l.192-33.865q.137-33.858.052-67.718Zm-2.264 101.57c-.148 11.276-.252 22.573-.78 33.805-.078 1.4-.16 2.8-.3 4.17-.035.341-.077.677-.125 1a1.517 1.517 0 0 1-.036.232c-.189.033-.4.075-.418.018l-1.02.023c-1.326.046-2.785.054-4.219.066l-4.3.04-17.231.094-34.468.084-68.94.055H983.799l-275.765.361-137.883-.113-137.883-.275-137.882-.178H156.503l-68.941-.007-34.471.007H35.856c-1.429-.014-2.914.048-4.2-.094a10.943 10.943 0 0 1-3.808-1.155 11.41 11.41 0 0 1-4.843-4.742 12.3 12.3 0 0 0 5.272 1.2c127.521.131 1214.005 1.207 1219.953-.013 5.906-1.212-4.749-845.313-6.166-955.545a11.73 11.73 0 0 0-.4-2.833 10.73 10.73 0 0 1 2.132 2.217 10.947 10.947 0 0 1 1.681 3.507 13.781 13.781 0 0 1 .414 3.96l1.525 135.425 2.752 270.852 2.616 270.852q.547 67.713.858 135.427.126 33.857.095 67.712-.038 16.921-.216 33.848Z" data-name="Caminho 5497"/></g><g data-name="Grupo 7917"><g data-name="Grupo 7915"><path fill="#3ece90" d="M2.788 25.07v947.269a12.13 12.13 0 0 0 12.223 12.025c128.032.131 1218.872 1.213 1224.843-.013 5.93-1.216-4.768-848.755-6.19-959.437a12.134 12.134 0 0 0-12.24-11.868H15.03A12.134 12.134 0 0 0 2.788 25.07Z" data-name="Caminho 5498"/></g><g data-name="Grupo 7916"><path fill="#070633" d="M2.734 25.14c-.1 186.866 1.59 373.733 2.248 560.6l.328 70.075c.073 23.358.175 46.717.156 70.075s-.082 46.717-.234 70.075-.448 46.717-.7 70.075l-.379 35.037-.264 35.038-.1 35.037v1.1l.049.992a10.754 10.754 0 0 0 2.1 5.449 11.072 11.072 0 0 0 6.4 4.178 15.512 15.512 0 0 0 3.961.31l4.226-.013 8.451-.024c45.072-.131 90.144-.742 135.217-1.442s90.144-1.253 135.216-1.3q67.608-.106 135.215.543l135.215 1.365 67.607.44q33.8.139 67.608.085c45.072-.072 90.143-.636 135.215-1.192s90.143-.982 135.215-.956q33.8-.008 67.607.309l67.607.711q33.8.38 67.6.437h33.8l16.891-.054 4.218-.03 2.109-.014 1.973-.033 1.88-.024c.837-.419-2.667 2.451-1.214 1.141.046-.249.094-.564.131-.9.154-1.334.248-2.785.329-4.215.553-11.555.654-23.264.806-34.92q.191-17.5.2-35.019.054-35.026-.155-70.061-.187-35.032-.544-70.066l-1.026-70.064q-1.174-70.064-1.381-140.136l-.285-70.073-.166-35.037-.268-35.035c-.25-23.357-.432-46.714-1.011-70.066-.546-23.354-1.311-46.7-1.751-70.057-.248-11.677-.4-23.355-.508-35.033l-.354-35.034-.492-70.072-.349-70.075-.233-35.036-.031-4.38-.015-2.19c0-.374 0-.743-.027-.977a5.612 5.612 0 0 0-.069-.808 8.866 8.866 0 0 0-3.082-5.6 9.662 9.662 0 0 0-6.072-2.31l-8.413-.062c-45.072-.218-90.144-.666-135.215-.61-90.144-.056-180.288 2.27-270.432 1.994q-67.608-.082-135.216-.94c-45.072-.5-90.144-1.108-135.215-1.381-22.536-.135-45.072-.29-67.608-.189l-67.608.462q-33.8.226-67.608.037l-67.608-.388-135.216-1.2-67.608-.417-33.8-.106-8.451-.013-4.226-.007a30.5 30.5 0 0 0-4.214.139 12.111 12.111 0 0 0-7.355 3.919 11.972 11.972 0 0 0-3.075 7.936Zm0 0a11.989 11.989 0 0 1 3.057-7.95 12.153 12.153 0 0 1 7.367-3.953 30.508 30.508 0 0 1 4.221-.153l4.226-.007 8.451-.013 33.8-.106 67.608-.417 135.216-1.2 67.608-.389q33.8-.2 67.608.038l67.608.462c22.536.1 45.072-.055 67.608-.189 45.071-.273 90.143-.879 135.215-1.381q67.608-.793 135.216-.94c90.144-.277 180.288 2.05 270.432 1.994 45.071.055 90.143-.393 135.215-.61l8.489-.045a15.081 15.081 0 0 1 9.53 3.507 14.765 14.765 0 0 1 5.178 9.218 11.237 11.237 0 0 1 .137 1.367c.038.494.042.856.048 1.211l.04 2.189.083 4.379.653 35.032 1.38 70.064q.676 35.032 1.182 70.067l.465 35.035c.158 11.678.277 23.357.3 35.037.09 23.359-.154 46.722-.189 70.083-.067 23.361.252 46.718.49 70.075l.456 35.035.538 35.034 1.057 70.07c.648 46.713 1.058 93.431.951 140.153l-.117 70.083.075 70.083-.075 70.088-.206 35.055c-.136 11.7-.214 23.355-.76 35.132-.081 1.484-.161 2.95-.333 4.516-.043.394-.1.8-.184 1.269 1.345-.64-2.361 3.215-2.4 2.532l-2.344.1-1.174.04-1.078.018-2.116.027-4.233.054-16.912.152-33.808.213q-33.807.249-67.61.655l-67.609.815q-16.9.171-33.8.261l-33.8.1c-45.073.043-90.145-.393-135.217-.959s-90.144-1.165-135.216-1.277q-33.8-.077-67.608.021l-67.608.367-135.229 1.189q-67.609.545-135.216.338c-45.072-.117-90.144-.75-135.215-1.528s-90.143-1.478-135.215-1.7l-8.451-.042-4.225-.021a18.057 18.057 0 0 1-4.437-.387 13.2 13.2 0 0 1-9.682-9.24 13.6 13.6 0 0 1-.437-2.352l-.061-1.194v-1.1l-.1-35.037-.264-35.038-.379-35.037c-.252-23.358-.544-46.717-.7-70.075S.007 749.241 0 725.883s.083-46.717.156-70.075l.328-70.075c.66-186.86 2.354-373.727 2.25-560.593Z" data-name="Caminho 5499"/></g></g><g data-name="Grupo 7920"><g data-name="Grupo 7918"><path fill="#fff" d="M1214.241 907.747v57.781l-1142.9-4.633" data-name="Caminho 5500"/></g><g data-name="Grupo 7919"><path fill="#171556" d="M1214.335 907.747a42.3 42.3 0 0 1 2.507 7.223c.311 1.2.543 2.407.819 3.612l.591 3.611c.163 1.2.258 2.408.391 3.612a22.209 22.209 0 0 1 .151 3.611 39.067 39.067 0 0 1-1.182 7.223 27.647 27.647 0 0 0-.663 7.223 41.67 41.67 0 0 0 1.035 7.223 35.176 35.176 0 0 1 .824 7.223 15.454 15.454 0 0 1-.483 3.611c-.281 1.2-.706 2.407-1 3.612l-.756 3.105-2.249-.05c-11.905-.263-23.811-.419-35.717-.589q-17.858-.2-35.719-.22l-35.718-.1h-35.719l-142.878.473q-71.44.377-142.876-.018c-47.625-.2-95.247-1.043-142.87-1.72q-71.435-1.189-142.872-1.2l-35.719.048-35.72.17-71.439.311q-71.439.174-142.873-.844c-47.623-.751-95.244-1.849-142.861-4 47.632-1.766 95.26-2.477 142.887-2.842q71.442-.49 142.875.314l71.435.889 35.718.46 35.718.337q71.436.513 142.877-.039c47.627-.292 95.253-.752 142.878-.563s95.25.5 142.873 1.141l142.87 1.631 35.718.291 35.718.189q17.86.111 35.719.07c11.906-.073 23.813-.132 35.72-.3l-3 3.055c-.293-1.2-.717-2.407-1-3.612a15.44 15.44 0 0 1-.482-3.611 35.226 35.226 0 0 1 .824-7.223 41.622 41.622 0 0 0 1.035-7.223 27.626 27.626 0 0 0-.662-7.223 39.006 39.006 0 0 1-1.182-7.223 22.019 22.019 0 0 1 .152-3.611c.132-1.2.227-2.408.391-3.612l.591-3.611c.275-1.2.506-2.408.818-3.612a42.235 42.235 0 0 1 2.505-7.222Z" data-name="Caminho 5501"/></g></g><g data-name="Grupo 7921"><path fill="#fff" d="m1202.763 903.933.924 53.148-1132.345 3.815" data-name="Caminho 5502"/><path fill="#171556" d="m71.349 962.723-.012-3.656 1130.568-3.809-.893-51.294 3.579-.064.957 55-1.816.006Z" data-name="Caminho 5503"/></g><g data-name="Grupo 7924"><g data-name="Grupo 7922"><path fill="#fff" d="M1113.044 955.724 27.417 960.895V36.634h1185.316l9.037 883.954Z" data-name="Caminho 5504"/></g><g data-name="Grupo 7923"><path fill="#171556" d="m1115.016 955.9-1.913.1c-22.467 1.136-45.013 1.8-67.577 2.354-11.287.245-22.571.507-33.875.641-11.3.151-22.618.177-33.935.206-22.632.088-45.308-.194-67.971-.391-22.665-.219-45.3-.2-67.928-.123q-16.971.054-33.917.339-16.957.2-33.879.726c-22.567.678-45.107 1.7-67.738 1.827-45.227.726-90.827-3.139-136.013-2.314-22.612.22-45.152 1.493-67.75 2.059-22.6.6-45.242.454-67.892.156-11.325-.137-22.645-.226-33.958-.166s-22.621.218-33.907.812c-11.29.544-22.57 1.368-33.873 1.715s-22.624.318-33.953.061-22.669-.843-34-1.308-22.656-.746-33.97-.751c-22.631-.095-45.25.179-67.869.58s-45.244.736-67.872.752c-22.627.043-45.26-.291-67.885-.668l-1.646-.027.033-1.64c.387-19.253.646-38.505.657-57.759l-.048-14.44q-.092-7.219-.333-14.439c-.339-9.627-.893-19.254-1.3-28.88-.839-19.254-.668-38.506-.065-57.759.3-9.626.671-19.253.89-28.88s.262-19.253.163-28.879c-.137-19.253-.867-38.506-1.555-57.759-.719-19.254-1.091-38.506-.926-57.76q.112-14.44.645-28.879c.347-9.626.822-19.253 1.245-28.88.869-19.253 1.457-38.505 1.243-57.759-.113-9.626-.525-19.253-.9-28.879s-.648-19.254-.665-28.88c-.089-19.254.425-38.506.892-57.759q.349-14.44.423-28.88c.022-9.626-.008-19.253-.328-28.879-.593-19.253-2.354-38.506-2.532-57.759-.2-38.506.223-77.013.813-115.519S25.365 75.2 25.612 36.694l.012-1.8 1.71.014q37.044.311 74.089-.014c24.7-.215 49.392-.615 74.088-.763s49.393-.113 74.089.117c24.7.2 49.393.489 74.089.471l18.522-.038q9.261-.068 18.523-.386c12.348-.4 24.7-.924 37.044-.917 24.7-.057 49.393.673 74.089 1.212 24.7.468 49.392.932 74.089-.721 6.174-.282 12.348-.475 18.522-.489l18.522.074q18.522.121 37.044.44l74.089 1.374q37.045.555 74.089.4c24.7-.118 49.393-.691 74.089-1.062l18.522-.272c6.174-.1 12.348-.323 18.522-.478s12.348-.179 18.523-.111l18.522.177c24.7.327 49.392.963 74.089 1.077 12.348.06 24.7.063 37.044-.175l37.044-.852c12.349-.268 24.7-.31 37.045-.219s24.7.26 37.044.55c24.7.547 49.393 1.293 74.089 1.375h.982v1.009q.119 27.622 1.137 55.235c.685 18.407 1.56 36.813 2.019 55.224.479 18.41.649 36.824.276 55.243s-.931 36.841-.877 55.256c-.06 18.416 1.232 36.817 1.185 55.233.094 18.415-.723 36.839-.377 55.251.228 18.413 1.112 36.818 1.776 55.227.682 18.408.816 36.822.9 55.237.062 18.415-.052 36.831-.092 55.248q-.014 13.81.066 27.622c.029 4.6.027 9.208.158 13.81.1 4.6.309 9.2.488 13.807s.335 9.2.39 13.807l.06 13.811q.035 13.81-.072 27.624c-.106 18.417-.31 36.834-.227 55.249.042 9.207.095 18.415.289 27.621s.561 18.409.918 27.612.688 18.408.838 27.614.18 18.414.174 27.622c-.031 18.416-.38 36.835-.546 55.252s-.134 36.833.351 55.243l.016.591-.565.193c-9.023 3.089-18.033 6.254-27.092 9.254s-18.149 5.884-27.232 8.783l-27.26 8.599Zm-3.411-.6 1.329-.444 27.1-9.049 27.106-8.957c9.04-2.956 18.073-5.93 27.137-8.783s18.177-5.546 27.278-8.31l-.55.783c.109-18.417-.245-36.828-.778-55.238s-1.268-36.817-1.674-55.228c-.2-9.206-.358-18.412-.393-27.619s.1-18.417.274-27.626.343-18.419.353-27.627-.129-18.415-.275-27.62c-.293-18.413-.874-36.822-1.356-55.232q-.389-13.808-.637-27.616l-.222-13.809c-.041-4.6.016-9.208.106-13.812s.2-9.21.207-13.814c.036-4.6-.06-9.208-.125-13.81q-.183-13.81-.5-27.618c-.415-18.411-.906-36.821-1.221-55.233-.3-18.412-.538-36.825-.232-55.243.287-18.419.794-36.84.647-55.255-.031-18.415-1.225-36.817-1.508-55.229-.423-18.411.492-36.836.056-55.247-.323-18.412-1.26-36.817-2.007-55.224s-.957-36.821-.854-55.238c.083-18.417.58-36.837.889-55.256s.3-36.834.008-55.246l.985 1.013c-24.7.083-49.392.827-74.089 1.375q-18.522.434-37.044.55c-12.348.09-24.7.047-37.045-.219l-37.044-.853c-12.348-.238-24.7-.235-37.044-.174-24.7.113-49.393.749-74.089 1.076l-18.522.176c-6.175.07-12.348.052-18.523-.11s-12.348-.381-18.522-.477l-18.522-.273c-24.7-.371-49.393-.944-74.089-1.062s-49.392.025-74.089.4l-74.089 1.374q-18.522.315-37.044.44l-18.522.075c-6.174-.015-12.348-.208-18.522-.49-24.7-1.653-49.393-1.188-74.089-.721-24.7.538-49.393 1.269-74.089 1.213-12.348.007-24.7-.513-37.044-.917q-9.262-.308-18.523-.387l-18.522-.038c-24.7-.019-49.392.272-74.089.471q-37.044.346-74.089.117c-24.7-.149-49.392-.548-74.088-.763s-49.393-.221-74.089-.014l1.722-1.787c.246 38.506.968 77.013 1.564 115.518s1.017 77.013.813 115.519c-.177 19.253-1.939 38.506-2.531 57.759-.32 9.626-.35 19.253-.328 28.879s.19 19.254.423 28.88c.468 19.253.982 38.505.892 57.759-.016 9.626-.294 19.253-.665 28.88s-.786 19.253-.9 28.879c-.213 19.254.374 38.506 1.243 57.759.422 9.627.9 19.254 1.245 28.88s.571 19.253.645 28.879c.165 19.254-.207 38.506-.926 57.76-.688 19.253-1.418 38.506-1.554 57.759q-.149 14.439.162 28.879c.219 9.627.585 19.254.89 28.88.6 19.253.773 38.505-.065 57.759-.408 9.626-.962 19.253-1.3 28.88q-.247 7.219-.333 14.439l-.047 14.44c.01 19.254.269 38.506.656 57.759l-1.613-1.667c22.612-.592 45.219-1.142 67.829-1.314 22.61-.2 45.225-.073 67.843.106s45.239.244 67.846-.066q16.957-.17 33.887-1.074c11.287-.573 22.567-1.267 33.857-1.632s22.588-.513 33.905-.262 22.655.956 33.985 1.392c11.332.487 22.644.527 33.951.488s22.605-.244 33.9-.488c22.588-.512 45.18-.874 67.823-.489 22.64.351 45.339 1.407 67.966 1.413 45.29.393 90.167-3.9 135.418-3.607 22.608-.091 45.305.719 67.977 1.182q17 .35 33.979.4 16.979.1 33.94.017c22.611-.141 45.215-.335 67.788-.769 22.576-.413 45.137-.91 67.745-1.038 11.3-.078 22.6-.16 33.921-.116 11.316.025 22.651.179 33.983.317 22.213.329 44.443.789 66.742 1.67Z" data-name="Caminho 5505"/></g></g><g data-name="Grupo 7925"><path fill="#171556" d="m1121.877 957.35 90.679-31.939v-13.063l-107.212 45.057Z" data-name="Caminho 5506"/></g><g data-name="Grupo 8066" opacity=".2"><path fill="#4b6cbf" d="M1103.231 955.346s33.377-24.318 30.627-47.6l20.4 2.129s-4.23 26.037-39.316 45.47Z" data-name="Caminho 5579"/></g><g data-name="Grupo 8069"><g data-name="Grupo 8067"><path fill="#fff" d="M1118.716 952.071s40.317-13.271 36.231-46.95c0 0 41.828-9.719 66.138 15.168" data-name="Caminho 5580"/></g><g data-name="Grupo 8068"><path fill="#171556" d="M1118.699 952.019a81.578 81.578 0 0 0 13.546-8.352 64.216 64.216 0 0 0 11.085-10.764 62.512 62.512 0 0 0 4.4-6.078 34.95 34.95 0 0 0 3.406-6.622 23.063 23.063 0 0 0 1.439-7.3 36.512 36.512 0 0 0-.724-7.408l-.452-2.692 2.842-.721a40.861 40.861 0 0 1 4.575-.908c1.512-.195 3.02-.37 4.536-.467a74.59 74.59 0 0 1 9.085-.029c6.051.315 12.007 1.1 17.991 1.935a59.844 59.844 0 0 1 8.933 1.818 40.511 40.511 0 0 1 8.393 3.676 39.017 39.017 0 0 1 13.37 12.143l-.079.076a78.073 78.073 0 0 0-15.2-8.317c-2.625-1.078-5.313-1.945-7.991-2.857s-5.393-1.806-8.189-2.446a54.487 54.487 0 0 0-17.15-.854c-2.863.249-5.707.632-8.533 1.016-1.412.207-2.825.392-4.223.634-1.378.228-2.846.43-4.111.654l2.39-3.413a40.53 40.53 0 0 1-.449 8.613 57.03 57.03 0 0 1-1.811 8.386 38.07 38.07 0 0 1-3.3 7.926 34.58 34.58 0 0 1-5.117 6.82 54.205 54.205 0 0 1-13.458 9.782 65.916 65.916 0 0 1-7.439 3.406 56.852 56.852 0 0 1-7.737 2.445Z" data-name="Caminho 5581"/></g></g><g data-name="Grupo 8071"><g data-name="Grupo 8070"><path fill="#171556" d="M1240.982 545.668c-2.076-222.182-5-454.758-5.852-520.747 0-.242-.03-.478-.046-.716h-2.88c.021.248.046.5.049.751 1.228 95.59 11.752 927.274 6.577 958.019-12.212.39-145.344.523-320.092.523-335.1 0-823.078-.487-903.753-.57a10.719 10.719 0 0 1-10.786-10.611V25.095a10.721 10.721 0 0 1 10.8-10.612h8.341a35.3 35.3 0 0 1-2.6-2.826h-5.746A13.577 13.577 0 0 0 1.313 25.095v947.222a13.577 13.577 0 0 0 13.662 13.437c127.933.132 576.615.568 893.853.568 187.484 0 329.112-.152 331.343-.61 1.6-.329 2.2-.452 2.639-38.4.259-22.371.34-55.29.239-97.84-.164-72.746-.862-174.961-2.067-303.804Z" data-name="Caminho 5582"/></g></g><g data-name="Grupo 8077"><g data-name="Grupo 8072"><path fill="#fff" d="m1229.879 424.578 1.331-1.452-.08-16.9a1.209 1.209 0 0 0-1.525-1.16c-.174.047-.347.09-.522.133a1.226 1.226 0 0 0-.957 1.2q.088 8.514.186 17.031a1.214 1.214 0 0 0 1.434 1.173Z" data-name="Caminho 5583"/></g><g data-name="Grupo 8073"><path fill="#fff" d="m343.238 974.054-8.246.034a1.765 1.765 0 0 0-1.757 1.771v.036a1.765 1.765 0 0 0 1.761 1.762l8.255.01a1.772 1.772 0 0 0 1.767-1.952l-.009-.08a1.774 1.774 0 0 0-1.771-1.581Z" data-name="Caminho 5584"/></g><g data-name="Grupo 8074"><path fill="#fff" d="M393.754 973.958q-17.276 0-34.552.048a1.763 1.763 0 0 0-1.745 1.954l.014.133a1.761 1.761 0 0 0 1.75 1.583q17.254.008 34.506-.049a1.761 1.761 0 0 0 1.709-1.364l.031-.133a1.763 1.763 0 0 0-1.713-2.172Z" data-name="Caminho 5585"/></g><g data-name="Grupo 8075"><path fill="#fff" d="m1234.006 763.595-1.272-105.5-.517-52.75-.376-52.75q-.231-32.1-.351-64.2a1.215 1.215 0 0 0-1.108-1.2h-.025a1.211 1.211 0 0 0-1.317 1.221q.36 32.1.648 64.2l.445 52.749.3 52.751.372 105.5q.454 104.731 1.69 209.458l-145.759.628-73.655.186q-36.827.052-73.656-.2c-98.208-.948-196.412.133-294.618.585q-73.655.336-147.31-.034-44.372-.167-88.743-.271c-.01.041-.013.08-.024.122l-.316 1.271a1.769 1.769 0 0 0 1.727 2.19q43.68-.184 87.361-.515 73.654-.594 147.309-.449c98.206.175 196.414.979 294.619-.246q36.825-.358 73.654-.4l73.655-.021 147.31.219h.009a1.525 1.525 0 0 0 1.525-1.524v-.024q-.5-105.497-1.577-210.996Z" data-name="Caminho 5586"/></g><g data-name="Grupo 8076"><path fill="#fff" d="m1231.427 473.623-.15-35.87a1.217 1.217 0 0 0-1.019-1.186 6.15 6.15 0 0 1-.289-.058 1.216 1.216 0 0 0-1.5 1.187q.2 17.965.408 35.931a1.211 1.211 0 0 0 1.061 1.19l.128.016a1.214 1.214 0 0 0 1.361-1.21Z" data-name="Caminho 5587"/></g></g><g data-name="Grupo 8078" opacity=".2"><path fill="#5e9afc" d="M1164.006 116.34H79.739c-5.8 0-11.245 5.861-11.245 13.066v748.872c0 7.205 5.446 13.066 11.245 13.066h1084.267a12.814 12.814 0 0 0 13.034-13.066V129.403a12.814 12.814 0 0 0-13.034-13.063ZM71.964 878.278V129.403c0-5.146 3.891-9.333 8.671-9.333h36.746l-.169.006c-.042 18.543-.006 37.084-.039 55.627l-.429 70.747-.126 35.374c.013 11.791.017 23.582.1 35.374l.245 35.375c.04 11.79.1 23.582.054 35.374-.051 23.582-.546 47.165-.545 70.747-.037 23.582.213 47.165.262 70.747.124 47.166-.641 94.331-.534 141.5.138 47.165.687 94.331.687 141.495.08 23.582-.5 47.165-.413 70.747 0 1.34.017 2.679.021 4.02-8.1.055-22.355.11-30.456.178 8.1.068 22.355.123 30.458.179v.056H80.636c-4.783-.005-8.672-4.192-8.672-9.338Zm47.634 9.333v-.034q2.8.02 5.608.034Zm1053.976-9.333c0 5.146-3.891 9.333-8.672 9.333h-31.178c6.5-.07 20.038-.141 26.535-.235-7.851-.114-22.747-.2-30.6-.284.085-23.572-.493-47.144-.413-70.716 0-47.165.548-94.33.687-141.5.107-47.165-.657-94.33-.534-141.495.049-23.583.3-47.166.262-70.748 0-23.582-.494-47.165-.545-70.747-.046-11.791.014-23.582.054-35.374l.245-35.375c.081-11.79.085-23.582.1-35.373l-.127-35.374-.43-70.748c-.034-19.694.018-39.389-.039-59.083h-1.665c-.056 19.694-.005 39.389-.04 59.083l-.429 70.748-.126 35.374c.012 11.79.017 23.582.1 35.373l.245 35.375c.039 11.791.1 23.582.054 35.374-.052 23.582-.546 47.165-.545 70.747-.039 23.582.213 47.165.262 70.748.123 47.165-.641 94.33-.534 141.495.139 47.166.686 94.331.687 141.5.08 23.561-.5 47.124-.414 70.685-13.335-.133-23.091-.241-36.426-.365q-3.831-.032-7.661-.069c.079-23.483-.494-46.965-.414-70.448 0-47.166.548-94.331.687-141.5.108-47.164-.656-94.33-.534-141.495.05-23.582.3-47.165.262-70.747 0-23.582-.493-47.165-.544-70.747-.046-11.791.013-23.582.053-35.375l.245-35.374c.081-11.791.085-23.582.1-35.373l-.127-35.375-.429-70.747c-.035-19.629.017-39.257-.04-58.886h-1.667c-.056 19.629 0 39.257-.039 58.886l-.43 70.747-.126 35.375c.013 11.79.017 23.581.1 35.373l.245 35.374c.04 11.792.1 23.583.054 35.375-.051 23.582-.545 47.165-.544 70.747-.038 23.582.213 47.166.262 70.747.124 47.165-.641 94.331-.533 141.495.138 47.166.686 94.331.686 141.5.08 23.473-.492 46.946-.413 70.421-7.514-.067-15.027-.124-22.541-.107-8.375.027-16.749.068-25.124.026.08-23.512-.493-47.025-.414-70.537 0-47.165.549-94.33.688-141.495.107-47.166-.657-94.331-.534-141.5.049-23.582.3-47.165.262-70.747 0-23.583-.494-47.166-.545-70.747-.047-11.792.014-23.583.054-35.375l.245-35.374c.081-11.791.084-23.582.1-35.374l-.126-35.375-.43-70.747c-.034-19.563.016-39.125-.037-58.688h-1.669c-.055 19.563 0 39.126-.039 58.688l-.429 70.747-.127 35.375c.014 11.791.017 23.582.1 35.374l.245 35.374c.039 11.791.1 23.582.054 35.375-.052 23.582-.546 47.164-.546 70.747-.038 23.582.213 47.165.263 70.747.123 47.165-.641 94.33-.534 141.5.138 47.165.686 94.33.687 141.495.08 23.5-.494 47.006-.414 70.509-1.692-.013-3.385-.022-5.078-.044-14.2-.11-28.391-.32-42.585-.473.073-23.4-.494-46.793-.414-70.189 0-47.166.548-94.331.687-141.5.107-47.165-.656-94.33-.534-141.495.049-23.582.3-47.166.262-70.748 0-23.582-.494-47.165-.544-70.747-.047-11.791.014-23.582.054-35.374l.245-35.374c.081-11.791.085-23.582.1-35.374l-.126-35.375-.429-70.747c-.035-19.5.015-38.994-.039-58.491H978.4c-.054 19.5 0 38.995-.039 58.491l-.429 70.747-.126 35.375c.013 11.791.017 23.582.1 35.374l.245 35.374c.04 11.791.1 23.582.053 35.374-.052 23.582-.545 47.165-.545 70.747-.038 23.582.214 47.166.263 70.748.123 47.165-.641 94.33-.534 141.495.139 47.165.686 94.33.687 141.5.08 23.386-.488 46.77-.414 70.156q-10.484-.105-20.969-.137c-8.9-.034-17.8.039-26.7.133.077-23.45-.493-46.9-.414-70.35 0-47.165.548-94.33.687-141.495.107-47.165-.656-94.331-.534-141.5.049-23.582.3-47.165.263-70.747 0-23.582-.494-47.166-.546-70.747-.045-11.791.015-23.583.054-35.374l.245-35.374c.081-11.792.085-23.582.1-35.375l-.126-35.374-.43-70.747c-.034-19.431.015-38.862-.037-58.294h-1.67c-.053 19.432 0 38.863-.038 58.294l-.43 70.747-.126 35.374c.014 11.792.017 23.582.1 35.375l.245 35.374c.04 11.79.1 23.582.054 35.374-.051 23.582-.546 47.165-.545 70.747-.038 23.582.213 47.165.262 70.747.123 47.165-.641 94.331-.533 141.5.138 47.165.686 94.33.686 141.495.081 23.461-.491 46.922-.413 70.383-12.287.134-24.573.29-36.86.246-3.6 0-7.2-.022-10.8-.029v-.047c.085-23.582-.493-47.164-.413-70.746 0-47.166.548-94.332.686-141.5.107-47.166-.657-94.331-.533-141.5.049-23.582.3-47.165.262-70.747 0-23.582-.494-47.165-.545-70.747-.046-11.792.015-23.582.054-35.375l.245-35.374c.081-11.791.084-23.582.1-35.374l-.126-35.374-.43-70.748c-.034-19.365.015-38.731-.037-58.1h-1.671c-.052 19.366 0 38.732-.038 58.1l-.429 70.748-.127 35.374c.013 11.791.017 23.582.1 35.374l.245 35.374c.039 11.792.1 23.582.054 35.375-.051 23.582-.546 47.165-.546 70.747-.038 23.582.214 47.165.263 70.747.123 47.165-.641 94.33-.534 141.5.139 47.164.686 94.33.687 141.5.08 23.582-.5 47.164-.414 70.746v.042q-23.832-.056-47.666-.223v-.019c.085-23.582-.493-47.165-.413-70.747 0-47.165.548-94.331.687-141.5.107-47.165-.657-94.33-.534-141.495.049-23.582.3-47.166.262-70.748 0-23.582-.494-47.165-.545-70.747-.046-11.791.014-23.582.053-35.374l.245-35.374c.08-11.791.085-23.582.1-35.374l-.126-35.374-.43-70.748c-.033-19.3.015-38.6-.036-57.9h-1.671c-.051 19.3 0 38.6-.038 57.9l-.429 70.748-.126 35.374c.013 11.791.017 23.582.1 35.374l.245 35.374c.04 11.791.1 23.582.054 35.374-.051 23.582-.545 47.165-.545 70.747-.037 23.582.213 47.166.262 70.748.123 47.165-.641 94.33-.534 141.495.138 47.165.687 94.331.687 141.5.08 23.582-.5 47.162-.413 70.744q-23.833-.164-47.664-.3c.082-23.546-.494-47.092-.414-70.639 0-47.164.549-94.33.687-141.495.107-47.165-.656-94.33-.533-141.495.049-23.583.3-47.166.262-70.748 0-23.582-.494-47.165-.545-70.747-.046-11.791.014-23.582.053-35.374l.246-35.375c.08-11.791.084-23.582.1-35.374l-.126-35.374-.43-70.747c-.034-19.234.01-38.468-.04-57.7h-1.665c-.049 19.234-.005 38.469-.039 57.7l-.43 70.747-.126 35.374c.013 11.791.017 23.582.1 35.374l.246 35.375c.039 11.791.1 23.582.053 35.374-.051 23.582-.545 47.165-.545 70.747-.038 23.582.213 47.165.263 70.748.123 47.165-.641 94.33-.534 141.495.138 47.165.686 94.331.687 141.495.08 23.541-.5 47.083-.414 70.623q-8.912-.046-17.825-.088-14.919-.036-29.84.043v-.027c.085-23.583-.493-47.165-.413-70.748 0-47.165.548-94.33.687-141.495.107-47.166-.657-94.331-.534-141.5.049-23.582.3-47.165.262-70.748 0-23.582-.494-47.165-.545-70.747-.046-11.791.013-23.582.054-35.374l.245-35.374c.081-11.791.084-23.582.1-35.374l-.126-35.374-.43-70.747c-.033-19.168.013-38.337-.036-57.506h-1.673c-.05 19.169 0 38.338-.037 57.506l-.429 70.747-.126 35.374c.012 11.791.017 23.582.1 35.374l.245 35.374c.04 11.792.1 23.582.054 35.374-.052 23.582-.545 47.165-.545 70.747-.038 23.583.213 47.166.263 70.748.123 47.165-.641 94.33-.534 141.5.139 47.165.686 94.33.687 141.495.08 23.583-.5 47.165-.414 70.748v.038q-23.833.115-47.667.316v-.553c.084-23.582-.494-47.165-.414-70.747 0-47.165.548-94.33.687-141.495.107-47.166-.657-94.331-.534-141.5.049-23.582.3-47.165.262-70.748 0-23.582-.493-47.165-.545-70.747-.045-11.791.014-23.582.054-35.374l.245-35.374c.081-11.791.085-23.582.1-35.374l-.126-35.374-.429-70.748c-.034-19.1.013-38.2-.036-57.308h-1.674c-.048 19.1 0 38.205-.036 57.308l-.43 70.748-.126 35.374c.013 11.791.017 23.582.1 35.374l.245 35.374c.039 11.791.1 23.582.054 35.374-.051 23.582-.546 47.165-.545 70.747-.038 23.583.213 47.166.262 70.748.123 47.165-.64 94.33-.533 141.5.138 47.165.686 94.33.686 141.495.08 23.582-.5 47.165-.413 70.747v.574q-23.837.158-47.672.142v-.913c.085-23.582-.494-47.165-.414-70.748 0-47.165.549-94.33.687-141.495.107-47.165-.656-94.33-.533-141.5.049-23.582.3-47.164.262-70.747 0-23.582-.494-47.165-.545-70.747-.047-11.791.013-23.583.053-35.374l.245-35.374c.081-11.792.084-23.582.1-35.375l-.126-35.374-.43-70.747c-.033-19.037.008-38.074-.039-57.111h-1.666c-.047 19.037-.006 38.074-.039 57.111l-.43 70.747-.126 35.374c.013 11.792.017 23.582.1 35.375l.245 35.374c.039 11.79.1 23.582.053 35.374-.051 23.582-.545 47.165-.545 70.747-.038 23.583.213 47.165.263 70.747.123 47.166-.641 94.331-.534 141.5.139 47.165.686 94.33.687 141.495.079 23.583-.5 47.166-.414 70.748v.907c-15.891-.041-31.782-.176-47.674-.234v-.871c.085-23.582-.493-47.165-.413-70.746 0-47.166.548-94.331.687-141.5.108-47.165-.657-94.331-.534-141.5.049-23.582.3-47.165.262-70.747 0-23.582-.494-47.166-.545-70.748-.046-11.79.014-23.582.054-35.373l.245-35.375c.08-11.791.085-23.582.1-35.374l-.126-35.374-.43-70.747c-.033-18.971.008-37.942-.039-56.914h-1.702c-.046 18.972-.005 37.942-.039 56.914l-.429 70.747-.126 35.374c.012 11.791.017 23.582.1 35.374l.245 35.375c.04 11.79.1 23.582.054 35.373-.052 23.582-.545 47.166-.545 70.748-.038 23.582.214 47.165.263 70.747.123 47.165-.641 94.331-.534 141.5.138 47.165.686 94.33.687 141.5.081 23.581-.5 47.164-.413 70.746v.863q-7.342-.022-14.684-.016c-11 0-21.993.12-32.991.249 0-.431.006-.862.007-1.294.084-23.582-.494-47.165-.414-70.747 0-47.165.548-94.331.687-141.5.107-47.165-.656-94.33-.534-141.495.05-23.582.3-47.165.262-70.748 0-23.582-.493-47.164-.544-70.747-.047-11.791.013-23.582.053-35.374l.245-35.374c.082-11.791.085-23.582.1-35.375l-.127-35.373-.429-70.748c-.033-18.9.006-37.81-.039-56.716h-1.666c-.046 18.906-.006 37.811-.039 56.716l-.43 70.748-.126 35.373c.014 11.792.017 23.583.1 35.375l.245 35.374c.04 11.791.1 23.582.054 35.374-.051 23.583-.546 47.165-.545 70.747-.038 23.583.213 47.166.262 70.748.124 47.165-.64 94.33-.533 141.495.137 47.165.686 94.331.686 141.5.08 23.582-.5 47.165-.413 70.747 0 .442.006.886.006 1.328-10.192.119-20.385.237-30.578.261q-8.551.034-17.1 0c0-.6.008-1.193.009-1.789.085-23.582-.494-47.165-.414-70.748 0-47.164.549-94.33.687-141.495.107-47.165-.656-94.33-.533-141.5.05-23.582.3-47.165.262-70.747 0-23.582-.494-47.165-.545-70.747-.046-11.791.013-23.583.054-35.374l.245-35.374c.08-11.791.084-23.582.1-35.374l-.126-35.375-.43-70.748c-.033-18.839.006-37.679-.04-56.518h-1.666c-.046 18.839-.006 37.68-.039 56.518l-.43 70.748-.126 35.375c.013 11.791.018 23.582.1 35.374l.245 35.374c.039 11.79.1 23.582.053 35.374-.052 23.582-.545 47.165-.545 70.747-.038 23.582.213 47.165.263 70.747.123 47.166-.641 94.331-.534 141.5.139 47.165.686 94.331.687 141.495.08 23.583-.5 47.166-.414 70.748 0 .593.008 1.185.009 1.779q-6.559-.021-13.118-.047l-33.353-.245-1.211-.006c0-.559.007-1.119.008-1.678.085-23.583-.494-47.166-.413-70.748 0-47.165.548-94.33.687-141.5.107-47.164-.657-94.33-.534-141.495.049-23.582.3-47.165.262-70.747 0-23.582-.494-47.165-.544-70.747-.047-11.791.013-23.583.053-35.375l.245-35.374c.081-11.791.085-23.582.1-35.374l-.126-35.374-.431-70.747c-.032-18.774.007-37.548-.037-56.322h-1.669c-.045 18.774-.005 37.548-.039 56.322l-.429 70.747-.126 35.374c.013 11.791.017 23.582.1 35.374l.245 35.374c.04 11.791.1 23.583.054 35.375-.051 23.582-.546 47.165-.546 70.747-.037 23.582.214 47.165.263 70.747.124 47.165-.641 94.331-.534 141.495.138 47.166.686 94.331.687 141.5.08 23.582-.5 47.165-.413 70.748 0 .554.007 1.11.008 1.665q-14.5-.081-29.008-.078l-18.674.07c0-.618.009-1.236.01-1.854.085-23.582-.494-47.165-.414-70.747 0-47.165.548-94.33.687-141.5.107-47.165-.656-94.33-.534-141.495.05-23.582.3-47.166.263-70.748 0-23.582-.494-47.165-.545-70.746-.046-11.792.014-23.583.053-35.375l.245-35.374c.081-11.791.085-23.582.1-35.374l-.126-35.374-.43-70.748c-.033-18.708.005-37.416-.039-56.125h-1.669c-.044 18.709 0 37.417-.037 56.125l-.43 70.748-.126 35.374c.013 11.791.017 23.582.1 35.374l.245 35.374c.04 11.791.1 23.582.054 35.375-.051 23.582-.546 47.164-.545 70.746-.038 23.582.213 47.166.262 70.748.123 47.165-.64 94.33-.533 141.495.138 47.166.686 94.331.686 141.5.081 23.582-.5 47.166-.413 70.747 0 .622.008 1.245.01 1.867l-11.546.043-36.141.233c0-.779.012-1.56.012-2.34.085-23.582-.494-47.165-.414-70.748 0-47.164.549-94.33.687-141.495.107-47.166-.656-94.33-.533-141.495.049-23.583.3-47.166.262-70.748 0-23.582-.494-47.165-.544-70.747-.046-11.791.013-23.582.054-35.374l.245-35.374c.081-11.792.084-23.582.1-35.375l-.126-35.374-.43-70.747c-.032-18.642.005-37.285-.037-55.928h-1.669c-.043 18.643-.005 37.285-.039 55.928l-.429 70.747-.127 35.374c.013 11.792.017 23.582.1 35.375l.245 35.374c.04 11.791.1 23.582.054 35.374-.052 23.582-.546 47.165-.546 70.747-.037 23.582.214 47.165.263 70.748.123 47.165-.641 94.329-.534 141.495.138 47.165.686 94.331.687 141.495.08 23.583-.5 47.166-.414 70.748 0 .787.011 1.574.013 2.36l-27.439.176q-10.126.02-20.252.009c0-.914.014-1.828.015-2.743.084-23.582-.494-47.166-.414-70.748 0-47.165.548-94.33.687-141.495.108-47.166-.657-94.331-.534-141.5.049-23.582.3-47.165.262-70.747 0-23.582-.494-47.166-.545-70.748-.046-11.79.015-23.582.054-35.374l.245-35.374c.08-11.791.085-23.582.1-35.374l-.126-35.374-.429-70.747c-.033-18.577 0-37.153-.039-55.731h-1.669c-.043 18.577-.005 37.153-.038 55.731l-.429 70.747-.126 35.374c.013 11.791.017 23.582.1 35.374l.245 35.374c.039 11.791.1 23.583.054 35.374-.051 23.582-.546 47.166-.545 70.748-.039 23.582.213 47.165.262 70.747.124 47.165-.641 94.33-.534 141.5.139 47.165.686 94.33.687 141.495.08 23.582-.5 47.166-.413 70.748 0 .914.012 1.828.014 2.741-14.444-.007-28.888-.019-43.332.067l-4.362.024c0-1.01.014-2.021.016-3.03.085-23.582-.494-47.164-.414-70.747 0-47.165.548-94.33.687-141.495.107-47.166-.656-94.331-.534-141.5.05-23.582.3-47.165.263-70.747 0-23.582-.494-47.166-.545-70.748-.046-11.791.013-23.582.053-35.374l.246-35.374c.081-11.791.084-23.582.1-35.374l-.126-35.374-.43-70.748c-.032-18.51 0-37.021-.037-55.533h-1.67c-.042 18.511-.006 37.023-.038 55.533l-.43 70.748-.126 35.374c.013 11.791.017 23.582.1 35.374l.246 35.374c.04 11.791.1 23.582.053 35.374-.051 23.582-.545 47.166-.545 70.748-.037 23.582.213 47.165.263 70.747.122 47.165-.642 94.33-.534 141.5.138 47.165.686 94.33.687 141.495.08 23.583-.5 47.165-.414 70.747 0 1.016.013 2.032.016 3.047-15.9.091-30.01.173-45.911.256 0-1.167.017-2.333.019-3.5.085-23.582-.494-47.165-.414-70.747 0-47.165.549-94.331.687-141.5.107-47.165-.656-94.33-.533-141.5.049-23.582.3-47.165.262-70.747 0-23.582-.494-47.165-.545-70.747-.046-11.791.013-23.582.053-35.374l.245-35.375c.08-11.79.084-23.582.1-35.374l-.126-35.373-.43-70.748c-.032-18.445 0-36.89-.038-55.336h-1.67c-.04 18.447-.005 36.89-.038 55.336l-.429 70.748-.127 35.373c.013 11.792.018 23.583.1 35.374l.245 35.375c.039 11.791.1 23.582.054 35.374-.051 23.582-.546 47.165-.546 70.747-.038 23.582.214 47.165.263 70.747.122 47.166-.641 94.331-.534 141.5.139 47.165.686 94.331.687 141.5.08 23.582-.5 47.165-.414 70.747 0 1.172.015 2.344.019 3.516-15.9.084-30.908.176-46.811.283 0-1.332.021-2.664.022-4 .084-23.582-.494-47.165-.414-70.747 0-47.164.548-94.33.687-141.495.107-47.165-.657-94.33-.534-141.5.05-23.582.3-47.165.262-70.747 0-23.582-.494-47.165-.545-70.747-.047-11.791.014-23.583.054-35.374l.245-35.375c.081-11.791.085-23.582.1-35.374l-.127-35.374-.429-70.747c-.033-18.545 0-37.089-3.616-55.633h1045.976c8.359 0 12.25 4.187 12.25 9.333Z" data-name="Caminho 5588"/></g></g><g data-name="Grupo 8160"><g data-name="Grupo 8149"><g data-name="Grupo 130"><g data-name="Grupo 72"><g data-name="Grupo 61" opacity=".39"><path fill="#1b1b4c" d="M138.693 73.281a24.264 24.264 0 0 1 4.975-2.3 25.692 25.692 0 0 1 12.842-.812 43.821 43.821 0 0 1-2.1-5.164 69.7 69.7 0 0 1-2.8-13.537 104.432 104.432 0 0 1-.459-13.84c.173-4.666.4-9.192 1.755-13.538a26.783 26.783 0 0 1 2.737-6.225 17.283 17.283 0 0 1 3.64-4.274v-.007h-21.351c-.279.494-.549.993-.8 1.5a46.828 46.828 0 0 0-4.481 13.858 90.094 90.094 0 0 0-1.04 14.239c.087 9.491 1.715 19.137 6.027 28.061.33.681.687 1.363 1.055 2.039Z" data-name="Caminho 42"/></g><g data-name="Grupo 64"><g data-name="Grupo 62" transform="translate(131.609 58.029)"><ellipse cx="19.181" cy="13.862" fill="#2b7754" data-name="Elipse 1" rx="19.181" ry="13.862"/></g><g data-name="Grupo 63"><path fill="#171556" d="M169.971 71.892a9.248 9.248 0 0 0-2.348-5.971 14.7 14.7 0 0 0-5.09-3.547 23.648 23.648 0 0 0-11.743-1.98 27.461 27.461 0 0 0-11.012 3.254 16.59 16.59 0 0 0-4.38 3.333 8.114 8.114 0 0 0-2.172 4.911 7.618 7.618 0 0 0 1.8 5.181 12.293 12.293 0 0 0 4.643 3.245 39.471 39.471 0 0 0 11.116 2.849 22.778 22.778 0 0 0 11.758-1.733 14.22 14.22 0 0 0 5.1-3.555 9.342 9.342 0 0 0 2.328-5.987Zm0 0c-.026 4.444-2.573 8.761-6.216 11.641a21.639 21.639 0 0 1-6.126 3.273 28.86 28.86 0 0 1-6.839 1.535 18.861 18.861 0 0 1-18.522-9.238 15.415 15.415 0 0 1-2.277-7.21 14.339 14.339 0 0 1 1.909-7.482 16.046 16.046 0 0 1 5.179-5.457 22.88 22.88 0 0 1 13.712-3.288 28.705 28.705 0 0 1 6.823 1.382 20.94 20.94 0 0 1 6.156 3.178 15.4 15.4 0 0 1 6.201 11.666Z" data-name="Caminho 43"/></g></g><g data-name="Grupo 68"><g data-name="Grupo 67"><g data-name="Grupo 65"><path fill="#949fc4" d="M150.891 68.469c-4.387-1.233-16.289-11.686-13.81-37.3 1.217-12.565 10.117-18.346 14.612-18.65a1.512 1.512 0 0 1 1.386.653h17.2a3.207 3.207 0 0 0-.266-2.079c-2.874-6-10.788-9.479-20.226-8.836-13.116.886-28.034 10.121-29.8 28.309-2.711 27.983 9.816 42.55 22.441 46.852a27.416 27.416 0 0 0 8.775 1.459 22.317 22.317 0 0 0 8.475-1.573c3.9-1.612 4.893-4.826 2.22-7.178-2.468-2.174-7.219-2.85-11.007-1.657Z" data-name="Caminho 44"/></g><g data-name="Grupo 66"><path fill="#171556" d="M159.676 68.174a15.342 15.342 0 0 0-8.612-.568 10.078 10.078 0 0 1-2.45-1.7 17.109 17.109 0 0 1-2.225-2.445 27.585 27.585 0 0 1-3.132-5.354 45.26 45.26 0 0 1-3.177-11.318 64.539 64.539 0 0 1-.52-11.571c.2-3.9.458-7.685 1.992-11.32a19.968 19.968 0 0 1 3.106-5.2 16.755 16.755 0 0 1 4.131-3.574c.3-1.127 2.106-2.021 3.99-2.021h2.8a2.471 2.471 0 0 0-.133-.229 3.751 3.751 0 0 0-.916-1.02 3.8 3.8 0 0 0-1.247-.624 5.431 5.431 0 0 0-1.873-.185 12.218 12.218 0 0 0-1.772.277 14.877 14.877 0 0 0-2.683.917 17.963 17.963 0 0 0-3.888 2.37 15.847 15.847 0 0 0-1.525 1.317 17.311 17.311 0 0 0-1.325 1.37 23.24 23.24 0 0 0-3.737 5.8 24.808 24.808 0 0 0-1.86 6.035c-.354 2.047-.385 4.01-.544 6.006a53.469 53.469 0 0 0 .809 11.971 36.571 36.571 0 0 0 1.577 5.947 31.417 31.417 0 0 0 2.66 5.835 27.668 27.668 0 0 0 4.174 5.554 22.035 22.035 0 0 0 2.894 2.561 12.786 12.786 0 0 0 4.161 2.177l.6.178.534-.194a11.914 11.914 0 0 1 7.295-.084c2.311.734 3.959 2.265 4.07 3.913s-1.228 3.333-3.6 4.26a21.919 21.919 0 0 1-8.045 1.5 25.923 25.923 0 0 1-16.045-5.6 29.861 29.861 0 0 1-8.26-10.394 46.74 46.74 0 0 1-3.62-11.365 73.885 73.885 0 0 1-1.344-11.578c.007-1.941-.19-3.883-.053-5.828l.032-2.921c.012-.973.151-1.925.22-2.89a29.455 29.455 0 0 1 3.62-11.318 27.4 27.4 0 0 1 9.842-9.789 33.717 33.717 0 0 1 7.749-3.257 30.42 30.42 0 0 1 9.066-1.141 23.852 23.852 0 0 1 4.512.5 20.177 20.177 0 0 1 4.057 1.235 14.62 14.62 0 0 1 5.8 4.151 11.335 11.335 0 0 1 1.586 2.584 2.544 2.544 0 0 1 .117 1.953h3.538a3.986 3.986 0 0 0-.537-2.519 14.1 14.1 0 0 0-2.109-2.858 18.536 18.536 0 0 0-7.093-4.519 28.159 28.159 0 0 0-9.827-1.665 34.37 34.37 0 0 0-9.8 1.387 38.449 38.449 0 0 0-8.16 3.463 34.663 34.663 0 0 0-10.859 9.976 32.457 32.457 0 0 0-5.086 11.586 55.928 55.928 0 0 0-1.179 11.905 42.886 42.886 0 0 0 6.841 23.461 37.2 37.2 0 0 0 10.055 10.275 30.19 30.19 0 0 0 7.527 3.841 27.325 27.325 0 0 0 9.4 1.629 23.058 23.058 0 0 0 8.422-1.461c2.58-.947 4.306-2.737 4.321-4.615.064-1.864-1.529-3.769-4.262-4.809Z" data-name="Caminho 45"/></g></g></g><g data-name="Grupo 71"><g data-name="Grupo 69"><path fill="#fff" d="M132.518 64.275q-.527-1.866-1.016-3.74a2.1 2.1 0 0 0-2.469-1.332 1.768 1.768 0 0 0-1.586 2.073q.5 1.905 1.035 3.8a2.038 2.038 0 0 0 2.016 1.34 2.416 2.416 0 0 0 .482-.048 1.752 1.752 0 0 0 1.538-2.093Z" data-name="Caminho 46"/></g><g data-name="Grupo 70"><path fill="#fff" d="M128.405 55.03a1.793 1.793 0 0 0 1.677-2.021c-1.828-8.615-3.783-21.322.351-32.158a1.7 1.7 0 0 0-1.343-2.19 2.177 2.177 0 0 0-2.609 1.127c-4.415 11.576-2.39 24.853-.483 33.835a2.008 2.008 0 0 0 2.039 1.435 2.59 2.59 0 0 0 .368-.028Z" data-name="Caminho 47"/></g></g></g><g data-name="Grupo 83"><g data-name="Grupo 73" opacity=".39"><path fill="#1b1b4c" d="M222.487 73.01a22.945 22.945 0 0 1 4.792-2.3 23.875 23.875 0 0 1 12.365-.815 40.983 40.983 0 0 1-2.026-5.164 69.78 69.78 0 0 1-2.7-13.537 101.137 101.137 0 0 1-.442-13.84 51.087 51.087 0 0 1 1.69-13.538 27.105 27.105 0 0 1 2.635-6.225 16.942 16.942 0 0 1 3.506-4.274v-.007h-20.56q-.4.741-.774 1.5a48.782 48.782 0 0 0-4.315 13.858 89.24 89.24 0 0 0-1 14.239 66.471 66.471 0 0 0 5.8 28.061c.332.684.675 1.366 1.029 2.042Z" data-name="Caminho 48"/></g><g data-name="Grupo 76"><g data-name="Grupo 74" transform="translate(215.665 57.758)"><ellipse cx="18.472" cy="13.862" fill="#2b7754" data-name="Elipse 2" rx="18.472" ry="13.862"/></g><g data-name="Grupo 75"><path fill="#171556" d="M252.61 71.621a9.292 9.292 0 0 0-2.22-5.872 14.325 14.325 0 0 0-4.883-3.577 21.83 21.83 0 0 0-11.369-2.049 25.225 25.225 0 0 0-10.6 3.3 16.176 16.176 0 0 0-4.181 3.343 8.228 8.228 0 0 0-2.07 4.856 7.688 7.688 0 0 0 1.7 5.115 11.926 11.926 0 0 0 4.447 3.262 35.9 35.9 0 0 0 10.712 2.9 21.037 21.037 0 0 0 11.384-1.8 13.843 13.843 0 0 0 4.891-3.584 9.4 9.4 0 0 0 2.189-5.894Zm0 0a14.5 14.5 0 0 1-5.186 10.478 20.088 20.088 0 0 1-5.542 3.672 21.281 21.281 0 0 1-7.745 2.3 18.747 18.747 0 0 1-13.316-3.821 19.331 19.331 0 0 1-4.654-5.567 15.834 15.834 0 0 1-2.119-7.061 14.613 14.613 0 0 1 1.744-7.322 15.718 15.718 0 0 1 4.921-5.485 21.525 21.525 0 0 1 13.424-3.42 20.894 20.894 0 0 1 7.735 2.126 19.4 19.4 0 0 1 5.568 3.6 14.413 14.413 0 0 1 5.17 10.5Z" data-name="Caminho 49"/></g></g><g data-name="Grupo 79"><g data-name="Grupo 77"><path fill="#949fc4" d="M234.234 68.195c-4.224-1.233-15.686-11.686-13.3-37.3 1.172-12.565 9.741-18.381 14.072-18.651a1.429 1.429 0 0 1 1.334.653h16.565a3.314 3.314 0 0 0-.256-2.079c-2.767-6-10.389-9.479-19.478-8.836-12.631.885-27 10.121-28.695 28.31-2.609 27.983 9.453 42.549 21.611 46.852a25.52 25.52 0 0 0 8.45 1.459 20.79 20.79 0 0 0 8.162-1.573c3.754-1.612 4.712-4.826 2.138-7.178-2.379-2.171-6.954-2.847-10.603-1.657Z" data-name="Caminho 50"/></g><g data-name="Grupo 78"><path fill="#171556" d="M242.695 67.903a14.439 14.439 0 0 0-8.294-.568 9.9 9.9 0 0 1-2.36-1.7 18.237 18.237 0 0 1-2.143-2.445 27.4 27.4 0 0 1-3.015-5.354 45.158 45.158 0 0 1-3.06-11.318 62.482 62.482 0 0 1-.5-11.57 32.187 32.187 0 0 1 1.919-11.32 20.006 20.006 0 0 1 2.99-5.2 16.145 16.145 0 0 1 3.979-3.574c.292-1.127 2.028-2.02 3.843-2.02h2.694a3.06 3.06 0 0 0-.128-.229 3.6 3.6 0 0 0-2.083-1.644 5.04 5.04 0 0 0-1.8-.185 11.28 11.28 0 0 0-1.706.277 13.9 13.9 0 0 0-2.584.917 17.609 17.609 0 0 0-3.743 2.37 16.3 16.3 0 0 0-1.469 1.318 16.016 16.016 0 0 0-1.275 1.37 23.1 23.1 0 0 0-3.6 5.8 25.268 25.268 0 0 0-1.792 6.035 59.35 59.35 0 0 0 .255 17.977 43.221 43.221 0 0 0 1.519 5.947 34.271 34.271 0 0 0 2.56 5.835 28.072 28.072 0 0 0 4.02 5.554 21.171 21.171 0 0 0 2.787 2.561 11.906 11.906 0 0 0 4.007 2.176l.582.179.513-.194a11.132 11.132 0 0 1 7.025-.084c2.222.743 3.813 2.265 3.92 3.913s-1.192 3.315-3.465 4.259a20.49 20.49 0 0 1-7.747 1.5 24.421 24.421 0 0 1-8.733-1.657 25.118 25.118 0 0 1-6.719-3.945 29.078 29.078 0 0 1-7.956-10.394 49.494 49.494 0 0 1-3.485-11.364 80.327 80.327 0 0 1-1.294-11.578c.006-1.942-.184-3.883-.052-5.828l.031-2.921c.012-.973.125-1.925.212-2.89a29.156 29.156 0 0 1 3.488-11.313 26.55 26.55 0 0 1 9.478-9.789 30.665 30.665 0 0 1 7.463-3.257 29.034 29.034 0 0 1 8.732-1.141 24 24 0 0 1 4.344.5 20.072 20.072 0 0 1 3.906 1.235 14.425 14.425 0 0 1 5.587 4.151 11.722 11.722 0 0 1 1.527 2.584 2.636 2.636 0 0 1 .113 1.953h3.407a4.143 4.143 0 0 0-.517-2.518 14.556 14.556 0 0 0-2.031-2.858 18.209 18.209 0 0 0-6.83-4.519 27.237 27.237 0 0 0-9.463-1.665 32.773 32.773 0 0 0-9.433 1.388 36.306 36.306 0 0 0-7.859 3.463 34.219 34.219 0 0 0-10.457 9.976 33.535 33.535 0 0 0-4.9 11.586 55.436 55.436 0 0 0-1.136 11.906 43.437 43.437 0 0 0 6.588 23.461 36.039 36.039 0 0 0 9.683 10.274 28.211 28.211 0 0 0 7.249 3.841 26.564 26.564 0 0 0 9.055 1.629 21.774 21.774 0 0 0 8.11-1.461c2.471-.974 4.13-2.738 4.161-4.615s-1.497-3.756-4.118-4.817Z" data-name="Caminho 51"/></g></g><g data-name="Grupo 82"><g data-name="Grupo 80"><path fill="#fff" d="M216.541 64.004q-.507-1.867-.978-3.74a2.014 2.014 0 0 0-2.378-1.332 1.757 1.757 0 0 0-1.527 2.073q.476 1.905 1 3.8a1.965 1.965 0 0 0 1.942 1.34 2.3 2.3 0 0 0 .464-.048 1.747 1.747 0 0 0 1.477-2.093Z" data-name="Caminho 52"/></g><g data-name="Grupo 81"><path fill="#fff" d="M212.584 54.759a1.777 1.777 0 0 0 1.616-2.021c-1.761-8.615-3.643-21.322.338-32.158a1.708 1.708 0 0 0-1.292-2.191 2.071 2.071 0 0 0-2.513 1.127c-4.252 11.576-2.3 24.853-.466 33.835a1.941 1.941 0 0 0 1.964 1.435 2.36 2.36 0 0 0 .353-.027Z" data-name="Caminho 53"/></g></g></g><g data-name="Grupo 94"><g data-name="Grupo 84" opacity=".39"><path fill="#1b1b4c" d="M306.28 74.74a21.731 21.731 0 0 1 4.607-2.3 22.121 22.121 0 0 1 11.892-.812 42.015 42.015 0 0 1-1.949-5.164 72.25 72.25 0 0 1-2.592-13.537 105.512 105.512 0 0 1-.425-13.84 53.009 53.009 0 0 1 1.625-13.539 27.716 27.716 0 0 1 2.535-6.225 16.78 16.78 0 0 1 3.37-4.275v-.007h-19.77q-.388.742-.744 1.5a50.192 50.192 0 0 0-4.15 13.858 92.821 92.821 0 0 0-.962 14.239 68.742 68.742 0 0 0 5.582 28.061c.307.683.64 1.365.981 2.041Z" data-name="Caminho 54"/></g><g data-name="Grupo 87"><g data-name="Grupo 85" transform="translate(299.72 56.488)"><ellipse cx="17.763" cy="13.862" fill="#2b7754" data-name="Elipse 3" rx="17.763" ry="13.862"/></g><g data-name="Grupo 86"><path fill="#171556" d="M335.245 70.35a9.366 9.366 0 0 0-2.091-5.775 13.987 13.987 0 0 0-4.677-3.6 20.137 20.137 0 0 0-10.994-2.119 23.138 23.138 0 0 0-10.2 3.344 15.816 15.816 0 0 0-3.982 3.352 8.368 8.368 0 0 0-1.968 4.8 7.767 7.767 0 0 0 1.587 5.049 11.548 11.548 0 0 0 4.248 3.279 32.647 32.647 0 0 0 10.31 2.946 19.412 19.412 0 0 0 11.01-1.871 13.491 13.491 0 0 0 4.684-3.614 9.476 9.476 0 0 0 2.073-5.791Zm0 0a13.67 13.67 0 0 1-4.154 9.315 18.646 18.646 0 0 1-4.959 4.072 18.961 18.961 0 0 1-8.649 3.061 17.726 17.726 0 0 1-13.025-3.949 19.022 19.022 0 0 1-4.395-5.587 16.4 16.4 0 0 1-1.961-6.912 14.974 14.974 0 0 1 1.58-7.162 15.42 15.42 0 0 1 4.662-5.513 20.267 20.267 0 0 1 13.139-3.551 18.522 18.522 0 0 1 8.647 2.87 17.979 17.979 0 0 1 4.979 4.021 13.608 13.608 0 0 1 4.136 9.335Z" data-name="Caminho 55"/></g></g><g data-name="Grupo 90"><g data-name="Grupo 88"><path fill="#949fc4" d="M317.575 66.928c-4.062-1.233-15.083-11.685-12.788-37.295 1.127-12.565 9.367-18.381 13.531-18.651a1.353 1.353 0 0 1 1.283.653h15.93a3.444 3.444 0 0 0-.246-2.079c-2.662-6-9.99-9.479-18.731-8.837-12.146.886-25.961 10.121-27.592 28.31-2.51 27.983 9.09 42.55 20.781 46.852a23.7 23.7 0 0 0 8.126 1.459 19.329 19.329 0 0 0 7.849-1.573c3.61-1.613 4.531-4.827 2.056-7.178-2.29-2.178-6.69-2.854-10.199-1.661Z" data-name="Caminho 56"/></g><g data-name="Grupo 89"><path fill="#171556" d="M325.711 66.633a13.377 13.377 0 0 0-7.975-.568 9.49 9.49 0 0 1-2.269-1.7 17.932 17.932 0 0 1-2.06-2.445 27.73 27.73 0 0 1-2.9-5.354 46.567 46.567 0 0 1-2.942-11.318 64.917 64.917 0 0 1-.482-11.571 33.336 33.336 0 0 1 1.845-11.32 20.233 20.233 0 0 1 2.875-5.2 15.758 15.758 0 0 1 3.826-3.574c.281-1.128 1.951-2.021 3.695-2.021h2.591a3.029 3.029 0 0 0-.124-.228 3.55 3.55 0 0 0-.85-1.02 3.382 3.382 0 0 0-1.154-.624 4.67 4.67 0 0 0-1.735-.185 10.46 10.46 0 0 0-1.64.277 9.669 9.669 0 0 0-1.333.42 9.8 9.8 0 0 0-1.152.5 16.859 16.859 0 0 0-3.6 2.37 15.991 15.991 0 0 0-1.411 1.318 15.606 15.606 0 0 0-1.227 1.37 23.271 23.271 0 0 0-3.462 5.8 26.159 26.159 0 0 0-1.723 6.035 61.718 61.718 0 0 0 .247 17.977 43.772 43.772 0 0 0 1.459 5.947 34.954 34.954 0 0 0 2.463 5.835 28.126 28.126 0 0 0 3.864 5.554 20.6 20.6 0 0 0 2.681 2.561 11.333 11.333 0 0 0 3.853 2.176l.56.178.493-.194a10.308 10.308 0 0 1 6.755-.083c2.136.742 3.666 2.264 3.769 3.912s-1.147 3.315-3.331 4.26a19.032 19.032 0 0 1-7.45 1.5 22.675 22.675 0 0 1-8.4-1.656 23.983 23.983 0 0 1-6.46-3.945 28.981 28.981 0 0 1-7.651-10.395 50.967 50.967 0 0 1-3.351-11.364 83.49 83.49 0 0 1-1.244-11.579c.006-1.941-.176-3.883-.05-5.828l.03-2.922c.011-.973.12-1.925.2-2.89a30.025 30.025 0 0 1 3.353-11.313 26.124 26.124 0 0 1 9.114-9.79 28.915 28.915 0 0 1 7.177-3.257 26.911 26.911 0 0 1 8.4-1.141 22.209 22.209 0 0 1 4.178.5 18.768 18.768 0 0 1 3.756 1.235 13.936 13.936 0 0 1 5.372 4.151 11.825 11.825 0 0 1 1.468 2.584 2.734 2.734 0 0 1 .109 1.952h3.276a4.283 4.283 0 0 0-.5-2.518 14.648 14.648 0 0 0-1.954-2.859 17.491 17.491 0 0 0-6.568-4.518 25.27 25.27 0 0 0-9.1-1.665 30.4 30.4 0 0 0-9.071 1.388 34.242 34.242 0 0 0-7.556 3.462 33.5 33.5 0 0 0-10.055 9.976 34.243 34.243 0 0 0-4.71 11.586 57.548 57.548 0 0 0-1.092 11.906 44.739 44.739 0 0 0 6.335 23.461 35.5 35.5 0 0 0 9.312 10.275 26.777 26.777 0 0 0 6.971 3.841 24.657 24.657 0 0 0 8.707 1.629 20.214 20.214 0 0 0 7.8-1.461c2.376-.973 3.971-2.738 4-4.615s-1.433-3.754-3.952-4.815Z" data-name="Caminho 57"/></g></g><g data-name="Grupo 93"><g data-name="Grupo 91"><path fill="#fff" d="M300.562 62.734q-.488-1.867-.941-3.74a1.927 1.927 0 0 0-2.286-1.332 1.751 1.751 0 0 0-1.468 2.073q.458 1.905.958 3.8a1.9 1.9 0 0 0 1.867 1.34 2.149 2.149 0 0 0 .446-.048 1.743 1.743 0 0 0 1.424-2.093Z" data-name="Caminho 58"/></g><g data-name="Grupo 92"><path fill="#fff" d="M296.752 53.489a1.764 1.764 0 0 0 1.554-2.021c-1.693-8.614-3.5-21.321.325-32.158a1.716 1.716 0 0 0-1.244-2.191 1.968 1.968 0 0 0-2.416 1.127c-4.089 11.576-2.213 24.853-.448 33.835a1.879 1.879 0 0 0 1.888 1.435 2.2 2.2 0 0 0 .341-.027Z" data-name="Caminho 59"/></g></g></g><g data-name="Grupo 105"><g data-name="Grupo 95" opacity=".39"><path fill="#1b1b4c" d="M397.468 75.469a20.3 20.3 0 0 1 15.841-3.115 43.085 43.085 0 0 1-1.87-5.164 74.828 74.828 0 0 1-2.489-13.536 109.566 109.566 0 0 1-.408-13.84 55.079 55.079 0 0 1 1.561-13.539 28.336 28.336 0 0 1 2.432-6.225 16.751 16.751 0 0 1 3.236-4.274v-.007H396.79q-.371.742-.714 1.5a51.824 51.824 0 0 0-3.984 13.858 96.549 96.549 0 0 0-.923 14.239 71.229 71.229 0 0 0 5.359 28.061c.301.684.618 1.366.94 2.042Z" data-name="Caminho 60"/></g><g data-name="Grupo 98"><g data-name="Grupo 96" transform="translate(391.175 57.217)"><ellipse cx="17.053" cy="13.862" fill="#2b7754" data-name="Elipse 4" rx="17.053" ry="13.862"/></g><g data-name="Grupo 97"><path fill="#171556" d="M425.277 71.082a9.463 9.463 0 0 0-1.964-5.677 13.651 13.651 0 0 0-4.47-3.634 18.548 18.548 0 0 0-10.619-2.187 21.209 21.209 0 0 0-9.788 3.39 15.47 15.47 0 0 0-3.782 3.361 8.525 8.525 0 0 0-1.865 4.747 7.87 7.87 0 0 0 1.477 4.984 11.209 11.209 0 0 0 4.051 3.3 29.653 29.653 0 0 0 9.907 3 17.891 17.891 0 0 0 10.635-1.942 13.163 13.163 0 0 0 4.479-3.643 9.581 9.581 0 0 0 1.939-5.699Zm0 0a13.185 13.185 0 0 1-3.124 8.152 17.4 17.4 0 0 1-4.375 4.473 18.221 18.221 0 0 1-9.554 3.823 16.765 16.765 0 0 1-12.734-4.078 18.706 18.706 0 0 1-4.135-5.606 17.062 17.062 0 0 1-1.8-6.764 15.4 15.4 0 0 1 1.415-7 15.1 15.1 0 0 1 4.4-5.541 19.076 19.076 0 0 1 12.852-3.684 17.76 17.76 0 0 1 9.558 3.615 16.734 16.734 0 0 1 4.391 4.441 13.165 13.165 0 0 1 3.106 8.169Z" data-name="Caminho 61"/></g></g><g data-name="Grupo 101"><g data-name="Grupo 99"><path fill="#949fc4" d="M408.317 67.657c-3.9-1.233-14.481-11.685-12.277-37.3 1.081-12.565 8.991-18.382 12.99-18.65a1.277 1.277 0 0 1 1.231.653h15.294a3.569 3.569 0 0 0-.236-2.079c-2.556-6-9.592-9.479-17.982-8.837-11.662.886-24.924 10.122-26.491 28.31-2.409 27.983 8.728 42.55 19.952 46.852a21.932 21.932 0 0 0 7.8 1.459 17.918 17.918 0 0 0 7.535-1.573c3.466-1.613 4.35-4.826 1.974-7.178-2.197-2.174-6.421-2.85-9.79-1.657Z" data-name="Caminho 62"/></g><g data-name="Grupo 100"><path fill="#171556" d="M416.129 67.362a12.363 12.363 0 0 0-7.656-.568 9.182 9.182 0 0 1-2.178-1.7 17.721 17.721 0 0 1-1.978-2.445 28.091 28.091 0 0 1-2.784-5.353 48.174 48.174 0 0 1-2.825-11.318 67.733 67.733 0 0 1-.463-11.571 34.6 34.6 0 0 1 1.772-11.32 20.479 20.479 0 0 1 2.762-5.2 15.385 15.385 0 0 1 3.672-3.574c.27-1.127 1.872-2.021 3.547-2.021h2.487a3.026 3.026 0 0 0-.118-.228 3.508 3.508 0 0 0-.815-1.02 3.221 3.221 0 0 0-1.108-.624 4.316 4.316 0 0 0-1.666-.185 9.638 9.638 0 0 0-1.575.277 8.951 8.951 0 0 0-1.279.42 9.169 9.169 0 0 0-1.106.5 16.126 16.126 0 0 0-3.457 2.37 20.788 20.788 0 0 0-2.534 2.688 23.489 23.489 0 0 0-3.323 5.8 26.955 26.955 0 0 0-1.654 6.036 64.243 64.243 0 0 0 .237 17.977 45.366 45.366 0 0 0 1.4 5.947 35.826 35.826 0 0 0 2.365 5.835 28.139 28.139 0 0 0 3.711 5.554 20.226 20.226 0 0 0 2.572 2.561 10.794 10.794 0 0 0 3.7 2.176l.537.178.474-.194a9.52 9.52 0 0 1 6.485-.084c2.051.741 3.521 2.264 3.62 3.913s-1.1 3.316-3.2 4.259a17.642 17.642 0 0 1-7.152 1.5 21.03 21.03 0 0 1-8.062-1.657 22.883 22.883 0 0 1-6.2-3.945 28.939 28.939 0 0 1-7.344-10.395 52.56 52.56 0 0 1-3.218-11.364 87.013 87.013 0 0 1-1.195-11.579c.006-1.941-.169-3.882-.047-5.827l.028-2.922c.011-.973.115-1.925.2-2.89a30.943 30.943 0 0 1 3.22-11.313 25.727 25.727 0 0 1 8.75-9.79 27.23 27.23 0 0 1 6.89-3.257 24.84 24.84 0 0 1 8.061-1.14 20.394 20.394 0 0 1 4.011.5 17.529 17.529 0 0 1 3.607 1.235 13.476 13.476 0 0 1 5.157 4.151 11.907 11.907 0 0 1 1.41 2.584 2.831 2.831 0 0 1 .1 1.952h3.146a4.441 4.441 0 0 0-.477-2.518 14.679 14.679 0 0 0-1.876-2.859 16.793 16.793 0 0 0-6.306-4.519A23.4 23.4 0 0 0 409.718.73a28.12 28.12 0 0 0-8.709 1.387 32.29 32.29 0 0 0-7.255 3.463 32.875 32.875 0 0 0-9.654 9.976 35.066 35.066 0 0 0-4.521 11.586 59.745 59.745 0 0 0-1.048 11.906 46.153 46.153 0 0 0 6.082 23.461 35.045 35.045 0 0 0 8.939 10.274 25.414 25.414 0 0 0 6.693 3.841 22.85 22.85 0 0 0 8.359 1.629 18.736 18.736 0 0 0 7.488-1.461c2.28-.973 3.813-2.737 3.842-4.615s-1.388-3.754-3.805-4.815Z" data-name="Caminho 63"/></g></g><g data-name="Grupo 104"><g data-name="Grupo 102"><path fill="#fff" d="M391.988 63.463q-.469-1.867-.9-3.74a1.845 1.845 0 0 0-2.195-1.332 1.745 1.745 0 0 0-1.41 2.073q.439 1.906.919 3.8a1.827 1.827 0 0 0 1.792 1.34 1.957 1.957 0 0 0 .428-.048 1.74 1.74 0 0 0 1.366-2.093Z" data-name="Caminho 64"/></g><g data-name="Grupo 103"><path fill="#fff" d="M388.327 54.221a1.751 1.751 0 0 0 1.491-2.021c-1.626-8.615-3.362-21.321.312-32.158a1.725 1.725 0 0 0-1.193-2.191 1.87 1.87 0 0 0-2.32 1.127c-3.924 11.576-2.125 24.853-.43 33.835a1.819 1.819 0 0 0 1.814 1.435 2 2 0 0 0 .326-.027Z" data-name="Caminho 65"/></g></g></g><g data-name="Grupo 116"><g data-name="Grupo 106" opacity=".39"><path fill="#1b1b4c" d="M487.612 75.2a19.411 19.411 0 0 1 4.239-2.3 18.816 18.816 0 0 1 10.942-.812A44.48 44.48 0 0 1 501 66.924a77.792 77.792 0 0 1-2.385-13.536 114.431 114.431 0 0 1-.391-13.84 57.347 57.347 0 0 1 1.5-13.54 29 29 0 0 1 2.332-6.225 16.676 16.676 0 0 1 3.1-4.274v-.007h-18.191q-.357.741-.684 1.5a53.479 53.479 0 0 0-3.819 13.858 100.728 100.728 0 0 0-.885 14.239 73.991 73.991 0 0 0 5.136 28.061c.281.681.585 1.363.899 2.04Z" data-name="Caminho 66"/></g><g data-name="Grupo 109"><g data-name="Grupo 107" transform="translate(481.576 56.947)"><ellipse cx="16.344" cy="13.862" fill="#2b7754" data-name="Elipse 5" rx="16.344" ry="13.862"/></g><g data-name="Grupo 108"><path fill="#171556" d="M514.264 70.809a9.585 9.585 0 0 0-1.835-5.578 13.34 13.34 0 0 0-4.265-3.664 17.076 17.076 0 0 0-10.244-2.256 19.392 19.392 0 0 0-9.38 3.435 15.2 15.2 0 0 0-3.583 3.37 8.721 8.721 0 0 0-1.763 4.693 8 8 0 0 0 1.368 4.918 10.9 10.9 0 0 0 3.855 3.312 26.893 26.893 0 0 0 9.5 3.045 16.465 16.465 0 0 0 10.262-2.011 12.857 12.857 0 0 0 4.271-3.672 9.7 9.7 0 0 0 1.814-5.592Zm0 0a13.541 13.541 0 0 1-2.094 6.989 16.318 16.318 0 0 1-3.79 4.873 18.167 18.167 0 0 1-10.461 4.586 15.862 15.862 0 0 1-12.443-4.207 18.345 18.345 0 0 1-3.874-5.626 17.9 17.9 0 0 1-1.645-6.615 15.916 15.916 0 0 1 1.249-6.843 14.77 14.77 0 0 1 4.146-5.568 17.977 17.977 0 0 1 12.566-3.816 17.7 17.7 0 0 1 10.472 4.359 15.725 15.725 0 0 1 3.8 4.862 13.6 13.6 0 0 1 2.074 7.006Z" data-name="Caminho 67"/></g></g><g data-name="Grupo 112"><g data-name="Grupo 110"><path fill="#949fc4" d="M498.006 67.387c-3.737-1.233-13.879-11.686-11.767-37.3 1.037-12.564 8.618-18.38 12.451-18.65a1.206 1.206 0 0 1 1.18.652h14.66a3.706 3.706 0 0 0-.226-2.079c-2.449-6-9.193-9.479-17.234-8.836-11.176.885-23.888 10.121-25.389 28.309-2.309 27.983 8.364 42.55 19.121 46.852a20.25 20.25 0 0 0 7.476 1.459 16.565 16.565 0 0 0 7.222-1.573c3.322-1.612 4.169-4.826 1.892-7.178-2.11-2.173-6.162-2.849-9.386-1.656Z" data-name="Caminho 68"/></g><g data-name="Grupo 111"><path fill="#171556" d="M505.492 67.093a11.386 11.386 0 0 0-7.338-.568 8.832 8.832 0 0 1-2.088-1.7 17.691 17.691 0 0 1-1.9-2.445 28.57 28.57 0 0 1-2.668-5.353 49.9 49.9 0 0 1-2.708-11.318 70.456 70.456 0 0 1-.443-11.571 35.97 35.97 0 0 1 1.7-11.32 20.792 20.792 0 0 1 2.646-5.2 15.064 15.064 0 0 1 3.52-3.574c.259-1.127 1.795-2.021 3.4-2.021h2.383a3.028 3.028 0 0 0-.113-.228 3.5 3.5 0 0 0-.781-1.02 3.063 3.063 0 0 0-1.062-.624 3.969 3.969 0 0 0-1.6-.185 8.879 8.879 0 0 0-1.509.277 8.367 8.367 0 0 0-1.226.42 8.733 8.733 0 0 0-1.06.5 18.592 18.592 0 0 0-5.741 5.058 23.77 23.77 0 0 0-3.184 5.8 27.874 27.874 0 0 0-1.585 6.036 67.1 67.1 0 0 0 .227 17.977 46.937 46.937 0 0 0 1.343 5.948 36.805 36.805 0 0 0 2.266 5.834 28.3 28.3 0 0 0 3.556 5.554 19.757 19.757 0 0 0 2.466 2.561 10.263 10.263 0 0 0 3.545 2.177l.516.178.454-.194a8.769 8.769 0 0 1 6.215-.084c1.966.741 3.373 2.264 3.469 3.913s-1.057 3.316-3.066 4.26a16.311 16.311 0 0 1-6.855 1.5 19.442 19.442 0 0 1-7.727-1.657 21.845 21.845 0 0 1-5.943-3.945 28.959 28.959 0 0 1-7.039-10.395 54.327 54.327 0 0 1-3.085-11.363 90.747 90.747 0 0 1-1.145-11.58c.006-1.941-.162-3.882-.044-5.828l.027-2.921c.01-.973.11-1.925.187-2.89a32 32 0 0 1 3.087-11.313 25.261 25.261 0 0 1 14.989-13.047 22.883 22.883 0 0 1 7.725-1.14 18.829 18.829 0 0 1 3.845.5 16.273 16.273 0 0 1 3.456 1.235 13.045 13.045 0 0 1 4.943 4.151 12.119 12.119 0 0 1 1.351 2.584 2.958 2.958 0 0 1 .1 1.952h3.015a4.612 4.612 0 0 0-.457-2.518 14.8 14.8 0 0 0-1.8-2.858 16.145 16.145 0 0 0-6.043-4.518 21.612 21.612 0 0 0-8.374-1.666 25.946 25.946 0 0 0-8.346 1.387 30.387 30.387 0 0 0-6.953 3.463 32.3 32.3 0 0 0-9.252 9.976 36.011 36.011 0 0 0-4.334 11.586 62.373 62.373 0 0 0-1.005 11.906 47.753 47.753 0 0 0 5.829 23.461 34.635 34.635 0 0 0 8.568 10.274 24.143 24.143 0 0 0 6.413 3.841 21.113 21.113 0 0 0 8.012 1.629 17.3 17.3 0 0 0 7.176-1.461c2.184-.972 3.654-2.737 3.682-4.615s-1.321-3.757-3.637-4.818Z" data-name="Caminho 69"/></g></g><g data-name="Grupo 115"><g data-name="Grupo 113"><path fill="#fff" d="M482.351 63.193q-.45-1.867-.866-3.74a1.766 1.766 0 0 0-2.1-1.332 1.743 1.743 0 0 0-1.351 2.073q.421 1.906.881 3.8a1.764 1.764 0 0 0 1.718 1.34 1.762 1.762 0 0 0 1.721-2.145Z" data-name="Caminho 70"/></g><g data-name="Grupo 114"><path fill="#fff" d="M478.846 53.948a1.743 1.743 0 0 0 1.429-2.021c-1.558-8.615-3.223-21.322.3-32.158a1.739 1.739 0 0 0-1.144-2.19 1.774 1.774 0 0 0-2.223 1.127c-3.762 11.576-2.037 24.853-.412 33.835a1.758 1.758 0 0 0 1.737 1.435 1.85 1.85 0 0 0 .313-.028Z" data-name="Caminho 71"/></g></g></g><g data-name="Grupo 129"><g data-name="Grupo 117" opacity=".39"><path fill="#1b1b4c" d="M575.871 74.928a18.277 18.277 0 0 1 4.056-2.3 17.253 17.253 0 0 1 10.467-.812 49.956 49.956 0 0 1-1.715-5.164 83.682 83.682 0 0 1-2.282-13.536 128.177 128.177 0 0 1-.373-13.84 62.65 62.65 0 0 1 1.43-13.54 30.158 30.158 0 0 1 2.23-6.225 16.907 16.907 0 0 1 2.966-4.274v-.007h-17.4q-.342.742-.655 1.5a54.64 54.64 0 0 0-3.652 13.858 109.852 109.852 0 0 0-.848 14.239c.071 9.491 1.4 19.137 4.913 28.061.272.683.562 1.364.863 2.04Z" data-name="Caminho 72"/></g><g data-name="Grupo 120"><g data-name="Grupo 118" transform="translate(570.095 56.676)"><ellipse cx="15.635" cy="13.862" fill="#2b7754" data-name="Elipse 6" rx="15.635" ry="13.862"/></g><g data-name="Grupo 119"><path fill="#171556" d="M601.365 70.538a9.717 9.717 0 0 0-1.707-5.481 13.055 13.055 0 0 0-4.059-3.692 15.7 15.7 0 0 0-9.869-2.325 17.7 17.7 0 0 0-8.972 3.481 14.975 14.975 0 0 0-3.384 3.379 8.941 8.941 0 0 0-1.66 4.639 8.15 8.15 0 0 0 1.258 4.853 10.574 10.574 0 0 0 3.658 3.329 24.341 24.341 0 0 0 9.1 3.094 15.134 15.134 0 0 0 9.887-2.08 12.575 12.575 0 0 0 4.066-3.7 9.86 9.86 0 0 0 1.682-5.497Zm0 0a16.8 16.8 0 0 1-1.062 5.826 15.543 15.543 0 0 1-3.207 5.273 18.476 18.476 0 0 1-11.365 5.349 15.016 15.016 0 0 1-12.152-4.335 18.037 18.037 0 0 1-3.615-5.646 18.964 18.964 0 0 1-1.485-6.467 16.576 16.576 0 0 1 1.084-6.683 14.445 14.445 0 0 1 3.888-5.6 16.95 16.95 0 0 1 12.28-3.948 18 18 0 0 1 11.383 5.1 15.016 15.016 0 0 1 3.214 5.283 17.144 17.144 0 0 1 1.037 5.848Z" data-name="Caminho 73"/></g></g><g data-name="Grupo 128"><g data-name="Grupo 124"><g data-name="Grupo 123"><g data-name="Grupo 121"><path fill="#949fc4" d="M591.09 67.116c-2.716-1.233-10.084-11.686-8.55-37.3.754-12.564 6.264-18.346 9.046-18.65.167-.015.5-.042.858.653h6.141a5.033 5.033 0 0 0-.164-2.079c-1.779-6-6.679-9.479-12.521-8.837-8.12.886-17.356 10.122-18.446 28.31-1.678 27.983 6.076 42.55 13.892 46.852a11.289 11.289 0 0 0 5.432 1.459 9.37 9.37 0 0 0 5.246-1.573 5.082 5.082 0 0 0 1.375-7.178c-1.532-2.172.036-2.85-2.309-1.657Z" data-name="Caminho 74"/></g><g data-name="Grupo 122"><path fill="#171556" d="M592.019 66.822c-1.519-.983.958-1.211-.822-.568a7.237 7.237 0 0 1-1.517-1.7 16.91 16.91 0 0 1-1.378-2.445 34.44 34.44 0 0 1-1.939-5.354 68.142 68.142 0 0 1-1.967-11.317 104.09 104.09 0 0 1-.323-11.571 50.893 50.893 0 0 1 1.234-11.32 24.656 24.656 0 0 1 1.923-5.2 14.1 14.1 0 0 1 2.557-3.574 2.553 2.553 0 0 1 2.47-2.02h1.732c-.027-.08-.053-.158-.082-.229a3.761 3.761 0 0 0-.568-1.02 2.245 2.245 0 0 0-.771-.624 2.146 2.146 0 0 0-1.16-.185 4.924 4.924 0 0 0-1.1.277 5.064 5.064 0 0 0-.891.42 5.687 5.687 0 0 0-.77.5 11.9 11.9 0 0 0-2.406 2.37 13.43 13.43 0 0 0-.944 1.318c-.309.443-.56.908-.821 1.37a27.814 27.814 0 0 0-2.314 5.8 36.789 36.789 0 0 0-1.151 6.036c-.22 2.046-.239 4.009-.337 6.006a85.8 85.8 0 0 0 .5 11.97 55.278 55.278 0 0 0 .976 5.948 42.855 42.855 0 0 0 1.646 5.834 30.664 30.664 0 0 0 2.583 5.554 18.858 18.858 0 0 0 1.792 2.561 7.735 7.735 0 0 0 2.576 2.177l.374.178.33-.194c1.311-.771-1.422-.837.007-.083a4.707 4.707 0 0 1 2.52 3.912 4.855 4.855 0 0 1-2.227 4.259 9.2 9.2 0 0 1-4.98 1.5 10.972 10.972 0 0 1-5.615-1.657 16.654 16.654 0 0 1-4.318-3.945 31.927 31.927 0 0 1-5.112-10.401 69.006 69.006 0 0 1-2.241-11.363c-.521-3.829-.691-7.706-.832-11.579 0-1.941-.117-3.883-.033-5.827l.02-2.921c.007-.974.093-1.924.135-2.89a43.334 43.334 0 0 1 2.251-11.32 25.384 25.384 0 0 1 6.093-9.79 17.948 17.948 0 0 1 4.8-3.257 12.2 12.2 0 0 1 5.612-1.14 10.142 10.142 0 0 1 5.3 1.738 10.8 10.8 0 0 1 3.591 4.151 13.879 13.879 0 0 1 .982 2.584 4 4 0 0 1 .073 1.953h2.191a6.094 6.094 0 0 0-.332-2.519 15.733 15.733 0 0 0-1.306-2.858 12.664 12.664 0 0 0-4.391-4.519 11.651 11.651 0 0 0-6.083-1.665 13.921 13.921 0 0 0-6.064 1.388 20.549 20.549 0 0 0-5.051 3.463 30.436 30.436 0 0 0-6.722 9.976 44.581 44.581 0 0 0-3.149 11.586 89.4 89.4 0 0 0-.73 11.905 63.6 63.6 0 0 0 4.236 23.461 35.028 35.028 0 0 0 6.224 10.274 17.846 17.846 0 0 0 4.66 3.841 11.337 11.337 0 0 0 5.821 1.629 9.588 9.588 0 0 0 5.214-1.461 5.5 5.5 0 0 0 2.675-4.615 5.625 5.625 0 0 0-2.651-4.808Z" data-name="Caminho 75"/></g></g></g><g data-name="Grupo 127"><g data-name="Grupo 125"><path fill="#fff" d="M578.588 61.681q-.327-1.867-.629-3.74c-.151-.94-.836-1.54-1.529-1.332a1.818 1.818 0 0 0-.981 2.073q.306 1.906.64 3.8a1.438 1.438 0 0 0 1.248 1.34.952.952 0 0 0 .3-.048 1.837 1.837 0 0 0 .951-2.093Z" data-name="Caminho 76"/></g><g data-name="Grupo 126"><path fill="#fff" d="M576.042 52.437a1.775 1.775 0 0 0 1.039-2.021c-1.132-8.615-2.343-21.322.217-32.158a1.923 1.923 0 0 0-.831-2.19c-.677-.292-1.4.212-1.616 1.127-2.733 11.576-1.48 24.853-.3 33.835.11.844.652 1.436 1.263 1.436a1.014 1.014 0 0 0 .228-.029Z" data-name="Caminho 77"/></g></g></g></g></g><g data-name="Grupo 8149"><g data-name="Grupo 72"><g data-name="Grupo 61" opacity=".39"><path fill="#1b1b4c" d="M1116.196 74.281a24.266 24.266 0 0 0-4.975-2.3 25.692 25.692 0 0 0-12.842-.812 43.841 43.841 0 0 0 2.1-5.164 69.7 69.7 0 0 0 2.8-13.537 104.422 104.422 0 0 0 .458-13.84c-.173-4.666-.4-9.192-1.755-13.538a26.783 26.783 0 0 0-2.737-6.225 17.286 17.286 0 0 0-3.64-4.274v-.007h21.349c.279.494.549.993.8 1.5a46.834 46.834 0 0 1 4.481 13.858 90.094 90.094 0 0 1 1.04 14.239c-.088 9.491-1.715 19.137-6.027 28.061a43.327 43.327 0 0 1-1.052 2.039Z" data-name="Caminho 42"/></g><g data-name="Grupo 64"><g data-name="Grupo 62" transform="translate(1084.918 58.029)"><ellipse cx="19.181" cy="13.862" fill="#2b7754" data-name="Elipse 1" rx="19.181" ry="13.862"/></g><g data-name="Grupo 63"><path fill="#171556" d="M1084.922 71.892a9.248 9.248 0 0 1 2.348-5.971 14.7 14.7 0 0 1 5.09-3.547 23.648 23.648 0 0 1 11.743-1.98 27.46 27.46 0 0 1 11.012 3.254 16.59 16.59 0 0 1 4.38 3.333 8.113 8.113 0 0 1 2.172 4.911 7.618 7.618 0 0 1-1.8 5.181 12.291 12.291 0 0 1-4.643 3.245 39.471 39.471 0 0 1-11.116 2.849 22.778 22.778 0 0 1-11.758-1.733 14.22 14.22 0 0 1-5.1-3.555 9.342 9.342 0 0 1-2.328-5.987Zm0 0c.026 4.444 2.573 8.761 6.216 11.641a21.64 21.64 0 0 0 6.126 3.273 28.86 28.86 0 0 0 6.839 1.535 18.861 18.861 0 0 0 18.519-9.24 15.414 15.414 0 0 0 2.277-7.21 14.34 14.34 0 0 0-1.909-7.482 16.044 16.044 0 0 0-5.179-5.457 22.88 22.88 0 0 0-13.712-3.288 28.7 28.7 0 0 0-6.823 1.382 20.941 20.941 0 0 0-6.156 3.178 15.4 15.4 0 0 0-6.198 11.668Z" data-name="Caminho 43"/></g></g><g data-name="Grupo 68"><g data-name="Grupo 67"><g data-name="Grupo 65"><path fill="#949fc4" d="M1103.997 68.469c4.387-1.233 16.289-11.686 13.81-37.3-1.217-12.565-10.117-18.346-14.612-18.65a1.512 1.512 0 0 0-1.386.653h-17.2a3.207 3.207 0 0 1 .266-2.079c2.874-6 10.788-9.479 20.226-8.836 13.116.886 28.034 10.121 29.8 28.309 2.711 27.983-9.816 42.55-22.441 46.852a27.416 27.416 0 0 1-8.775 1.459 22.318 22.318 0 0 1-8.475-1.573c-3.9-1.612-4.893-4.826-2.22-7.178 2.472-2.174 7.219-2.85 11.007-1.657Z" data-name="Caminho 44"/></g><g data-name="Grupo 66"><path fill="#171556" d="M1095.213 68.174a15.342 15.342 0 0 1 8.612-.568 10.077 10.077 0 0 0 2.45-1.7 17.109 17.109 0 0 0 2.225-2.445 27.585 27.585 0 0 0 3.132-5.354 45.26 45.26 0 0 0 3.177-11.318 64.539 64.539 0 0 0 .52-11.571c-.2-3.9-.458-7.685-1.992-11.32a19.966 19.966 0 0 0-3.106-5.2 16.756 16.756 0 0 0-4.131-3.574c-.3-1.127-2.106-2.021-3.99-2.021h-2.8a2.457 2.457 0 0 1 .133-.229 3.75 3.75 0 0 1 .916-1.02 3.8 3.8 0 0 1 1.247-.624 5.431 5.431 0 0 1 1.873-.185 12.221 12.221 0 0 1 1.772.277 14.88 14.88 0 0 1 2.683.917 17.962 17.962 0 0 1 3.887 2.37 15.863 15.863 0 0 1 1.525 1.317 17.318 17.318 0 0 1 1.325 1.37 23.232 23.232 0 0 1 3.737 5.8 24.805 24.805 0 0 1 1.86 6.035c.354 2.047.385 4.01.544 6.006a53.473 53.473 0 0 1-.809 11.971 36.571 36.571 0 0 1-1.577 5.947 31.416 31.416 0 0 1-2.66 5.835 27.669 27.669 0 0 1-4.174 5.554 22.03 22.03 0 0 1-2.894 2.561 12.785 12.785 0 0 1-4.161 2.177l-.6.178-.534-.194a11.914 11.914 0 0 0-7.295-.084c-2.311.734-3.959 2.265-4.07 3.913s1.229 3.333 3.6 4.26a21.919 21.919 0 0 0 8.045 1.5 25.923 25.923 0 0 0 16.045-5.6 29.86 29.86 0 0 0 8.26-10.394 46.734 46.734 0 0 0 3.62-11.365 73.885 73.885 0 0 0 1.344-11.578c-.007-1.941.19-3.883.053-5.828l-.032-2.921c-.012-.973-.151-1.925-.22-2.89a29.455 29.455 0 0 0-3.622-11.313 27.4 27.4 0 0 0-9.842-9.789 33.717 33.717 0 0 0-7.749-3.257 30.421 30.421 0 0 0-9.066-1.141 23.853 23.853 0 0 0-4.512.5 20.177 20.177 0 0 0-4.057 1.235 14.62 14.62 0 0 0-5.8 4.151 11.341 11.341 0 0 0-1.586 2.584 2.544 2.544 0 0 0-.117 1.953h-3.538a3.986 3.986 0 0 1 .537-2.519 14.1 14.1 0 0 1 2.109-2.858 18.534 18.534 0 0 1 7.093-4.519 28.159 28.159 0 0 1 9.827-1.665 34.37 34.37 0 0 1 9.8 1.387 38.45 38.45 0 0 1 8.16 3.463 34.662 34.662 0 0 1 10.859 9.976 32.455 32.455 0 0 1 5.086 11.586 55.928 55.928 0 0 1 1.179 11.905 42.887 42.887 0 0 1-6.841 23.461 37.194 37.194 0 0 1-10.055 10.275 30.19 30.19 0 0 1-7.527 3.841 27.325 27.325 0 0 1-9.4 1.629 23.058 23.058 0 0 1-8.422-1.461c-2.58-.947-4.306-2.737-4.321-4.615-.061-1.869 1.532-3.774 4.265-4.814Z" data-name="Caminho 45"/></g></g></g><g data-name="Grupo 71"><g data-name="Grupo 69"><path fill="#fff" d="M1122.371 64.275q.527-1.866 1.016-3.74a2.1 2.1 0 0 1 2.469-1.332 1.768 1.768 0 0 1 1.586 2.073q-.5 1.905-1.034 3.8a2.038 2.038 0 0 1-2.016 1.34 2.416 2.416 0 0 1-.482-.048 1.752 1.752 0 0 1-1.539-2.093Z" data-name="Caminho 46"/></g><g data-name="Grupo 70"><path fill="#fff" d="M1126.485 55.03a1.793 1.793 0 0 1-1.677-2.021c1.828-8.615 3.783-21.322-.351-32.158a1.7 1.7 0 0 1 1.343-2.19 2.177 2.177 0 0 1 2.609 1.127c4.415 11.576 2.39 24.853.483 33.835a2.008 2.008 0 0 1-2.039 1.435 2.588 2.588 0 0 1-.368-.028Z" data-name="Caminho 47"/></g></g></g><g data-name="Grupo 83"><g data-name="Grupo 73" opacity=".39"><path fill="#1b1b4c" d="M1032.401 74.01a22.946 22.946 0 0 0-4.792-2.3 23.875 23.875 0 0 0-12.367-.812 41.011 41.011 0 0 0 2.026-5.164 69.779 69.779 0 0 0 2.7-13.537 101.137 101.137 0 0 0 .442-13.84 51.09 51.09 0 0 0-1.69-13.538 27.1 27.1 0 0 0-2.635-6.225 16.939 16.939 0 0 0-3.506-4.274v-.007h20.56q.4.741.774 1.5a48.784 48.784 0 0 1 4.315 13.858 89.254 89.254 0 0 1 1 14.239 66.472 66.472 0 0 1-5.8 28.061 76.238 76.238 0 0 1-1.027 2.039Z" data-name="Caminho 48"/></g><g data-name="Grupo 76"><g data-name="Grupo 74" transform="translate(1002.279 57.758)"><ellipse cx="18.472" cy="13.862" fill="#2b7754" data-name="Elipse 2" rx="18.472" ry="13.862"/></g><g data-name="Grupo 75"><path fill="#171556" d="M1002.279 71.621a9.292 9.292 0 0 1 2.22-5.872 14.325 14.325 0 0 1 4.883-3.577 21.83 21.83 0 0 1 11.369-2.049 25.226 25.226 0 0 1 10.6 3.3 16.177 16.177 0 0 1 4.181 3.343 8.229 8.229 0 0 1 2.07 4.856 7.688 7.688 0 0 1-1.7 5.115 11.926 11.926 0 0 1-4.447 3.262 35.894 35.894 0 0 1-10.713 2.9 21.036 21.036 0 0 1-11.384-1.8 13.843 13.843 0 0 1-4.891-3.584 9.4 9.4 0 0 1-2.188-5.894Zm0 0a14.5 14.5 0 0 0 5.186 10.478 20.091 20.091 0 0 0 5.542 3.672 21.282 21.282 0 0 0 7.745 2.3 18.747 18.747 0 0 0 13.316-3.821 19.331 19.331 0 0 0 4.654-5.567 15.834 15.834 0 0 0 2.119-7.061 14.611 14.611 0 0 0-1.744-7.322 15.717 15.717 0 0 0-4.921-5.485 21.525 21.525 0 0 0-13.424-3.42 20.894 20.894 0 0 0-7.735 2.126 19.4 19.4 0 0 0-5.568 3.6 14.413 14.413 0 0 0-5.17 10.5Z" data-name="Caminho 49"/></g></g><g data-name="Grupo 79"><g data-name="Grupo 77"><path fill="#949fc4" d="M1020.654 68.195c4.224-1.233 15.686-11.686 13.3-37.3-1.172-12.565-9.741-18.381-14.072-18.651a1.429 1.429 0 0 0-1.334.653h-16.568a3.315 3.315 0 0 1 .256-2.079c2.767-6 10.389-9.479 19.478-8.836 12.631.885 27 10.121 28.695 28.31 2.609 27.983-9.453 42.549-21.611 46.852a25.52 25.52 0 0 1-8.45 1.459 20.79 20.79 0 0 1-8.162-1.573c-3.754-1.612-4.712-4.826-2.138-7.178 2.382-2.171 6.957-2.847 10.606-1.657Z" data-name="Caminho 50"/></g><g data-name="Grupo 78"><path fill="#171556" d="M1012.193 67.903a14.439 14.439 0 0 1 8.294-.568 9.9 9.9 0 0 0 2.36-1.7 18.215 18.215 0 0 0 2.143-2.445 27.393 27.393 0 0 0 3.015-5.354 45.166 45.166 0 0 0 3.06-11.318 62.488 62.488 0 0 0 .5-11.57 32.184 32.184 0 0 0-1.919-11.32 20 20 0 0 0-2.99-5.2 16.148 16.148 0 0 0-3.979-3.574c-.292-1.127-2.028-2.02-3.843-2.02h-2.693a3.06 3.06 0 0 1 .128-.229 3.6 3.6 0 0 1 2.083-1.644 5.04 5.04 0 0 1 1.8-.185 11.282 11.282 0 0 1 1.706.277 13.9 13.9 0 0 1 2.584.917 17.608 17.608 0 0 1 3.743 2.37 16.314 16.314 0 0 1 1.469 1.318 16.014 16.014 0 0 1 1.275 1.37 23.094 23.094 0 0 1 3.6 5.8 25.266 25.266 0 0 1 1.792 6.035 50.369 50.369 0 0 1 .524 6.006 50.894 50.894 0 0 1-.779 11.97 43.256 43.256 0 0 1-1.519 5.947 34.271 34.271 0 0 1-2.56 5.835 28.076 28.076 0 0 1-4.02 5.554 21.161 21.161 0 0 1-2.787 2.561 11.9 11.9 0 0 1-4.007 2.176l-.582.179-.513-.194a11.132 11.132 0 0 0-7.025-.084c-2.222.743-3.813 2.265-3.92 3.913s1.192 3.315 3.465 4.259a20.491 20.491 0 0 0 7.747 1.5 24.421 24.421 0 0 0 8.733-1.657 25.117 25.117 0 0 0 6.719-3.945 29.076 29.076 0 0 0 7.956-10.394 49.5 49.5 0 0 0 3.485-11.364 80.327 80.327 0 0 0 1.294-11.578c-.006-1.942.184-3.883.052-5.828l-.031-2.921c-.012-.973-.125-1.925-.212-2.89a29.157 29.157 0 0 0-3.488-11.313 26.55 26.55 0 0 0-9.478-9.789 30.667 30.667 0 0 0-7.463-3.257 29.034 29.034 0 0 0-8.732-1.141 24 24 0 0 0-4.344.5 20.072 20.072 0 0 0-3.906 1.235 14.426 14.426 0 0 0-5.587 4.151 11.717 11.717 0 0 0-1.527 2.584 2.637 2.637 0 0 0-.113 1.953h-3.407a4.143 4.143 0 0 1 .517-2.518 14.553 14.553 0 0 1 2.031-2.858 18.211 18.211 0 0 1 6.83-4.519 27.237 27.237 0 0 1 9.463-1.665 32.773 32.773 0 0 1 9.433 1.388 36.305 36.305 0 0 1 7.859 3.463 34.22 34.22 0 0 1 10.457 9.976 33.532 33.532 0 0 1 4.9 11.586 55.428 55.428 0 0 1 1.136 11.906 43.436 43.436 0 0 1-6.588 23.461 36.04 36.04 0 0 1-9.683 10.274 28.211 28.211 0 0 1-7.249 3.841 26.565 26.565 0 0 1-9.055 1.629 21.775 21.775 0 0 1-8.11-1.461c-2.471-.974-4.13-2.738-4.161-4.615s1.497-3.755 4.117-4.816Z" data-name="Caminho 51"/></g></g><g data-name="Grupo 82"><g data-name="Grupo 80"><path fill="#fff" d="M1038.344 64.004q.507-1.867.978-3.74a2.014 2.014 0 0 1 2.378-1.332 1.757 1.757 0 0 1 1.527 2.073q-.476 1.905-1 3.8a1.965 1.965 0 0 1-1.942 1.34 2.3 2.3 0 0 1-.464-.048 1.747 1.747 0 0 1-1.477-2.093Z" data-name="Caminho 52"/></g><g data-name="Grupo 81"><path fill="#fff" d="M1042.309 54.759a1.777 1.777 0 0 1-1.616-2.021c1.761-8.615 3.643-21.322-.338-32.158a1.708 1.708 0 0 1 1.292-2.191 2.071 2.071 0 0 1 2.513 1.127c4.252 11.576 2.3 24.853.466 33.835a1.941 1.941 0 0 1-1.964 1.435 2.36 2.36 0 0 1-.353-.027Z" data-name="Caminho 53"/></g></g></g><g data-name="Grupo 94"><g data-name="Grupo 84" opacity=".39"><path fill="#1b1b4c" d="M948.608 75.74a21.727 21.727 0 0 0-4.607-2.3 22.12 22.12 0 0 0-11.892-.812 41.975 41.975 0 0 0 1.949-5.164 72.211 72.211 0 0 0 2.592-13.537 105.47 105.47 0 0 0 .425-13.84 53.02 53.02 0 0 0-1.625-13.539 27.7 27.7 0 0 0-2.535-6.225 16.783 16.783 0 0 0-3.37-4.275v-.007h19.77q.388.742.744 1.5a50.205 50.205 0 0 1 4.15 13.858 92.805 92.805 0 0 1 .962 14.239 68.746 68.746 0 0 1-5.581 28.061 56.875 56.875 0 0 1-.982 2.041Z" data-name="Caminho 54"/></g><g data-name="Grupo 87"><g data-name="Grupo 85" transform="translate(919.643 57.488)"><ellipse cx="17.763" cy="13.862" fill="#2b7754" data-name="Elipse 3" rx="17.763" ry="13.862"/></g><g data-name="Grupo 86"><path fill="#171556" d="M919.643 71.35a9.368 9.368 0 0 1 2.091-5.775 13.988 13.988 0 0 1 4.677-3.6 20.137 20.137 0 0 1 10.994-2.119 23.137 23.137 0 0 1 10.2 3.344 15.817 15.817 0 0 1 3.982 3.352 8.369 8.369 0 0 1 1.968 4.8 7.767 7.767 0 0 1-1.587 5.049 11.547 11.547 0 0 1-4.249 3.279 32.644 32.644 0 0 1-10.309 2.946 19.412 19.412 0 0 1-11.01-1.871 13.491 13.491 0 0 1-4.684-3.614 9.477 9.477 0 0 1-2.073-5.791Zm0 0a13.67 13.67 0 0 0 4.154 9.315 18.646 18.646 0 0 0 4.959 4.072 18.962 18.962 0 0 0 8.65 3.061 17.726 17.726 0 0 0 13.025-3.949 19.021 19.021 0 0 0 4.395-5.587 16.4 16.4 0 0 0 1.961-6.912 14.973 14.973 0 0 0-1.58-7.162 15.42 15.42 0 0 0-4.662-5.513 20.267 20.267 0 0 0-13.139-3.551 18.524 18.524 0 0 0-8.648 2.87 17.981 17.981 0 0 0-4.979 4.021 13.608 13.608 0 0 0-4.136 9.335Z" data-name="Caminho 55"/></g></g><g data-name="Grupo 90"><g data-name="Grupo 88"><path fill="#949fc4" d="M937.312 67.928c4.062-1.233 15.083-11.685 12.788-37.295-1.127-12.565-9.366-18.381-13.531-18.651a1.352 1.352 0 0 0-1.283.653h-15.93a3.444 3.444 0 0 1 .246-2.079c2.662-6 9.99-9.479 18.73-8.837 12.146.886 25.961 10.121 27.593 28.31 2.51 27.983-9.09 42.55-20.78 46.852a23.7 23.7 0 0 1-8.126 1.459 19.33 19.33 0 0 1-7.849-1.573c-3.61-1.613-4.531-4.827-2.056-7.178 2.289-2.178 6.689-2.854 10.198-1.661Z" data-name="Caminho 56"/></g><g data-name="Grupo 89"><path fill="#171556" d="M929.176 67.633a13.377 13.377 0 0 1 7.975-.568 9.49 9.49 0 0 0 2.269-1.7 17.936 17.936 0 0 0 2.06-2.445 27.722 27.722 0 0 0 2.9-5.354 46.567 46.567 0 0 0 2.943-11.318 64.917 64.917 0 0 0 .482-11.571 33.346 33.346 0 0 0-1.845-11.32 20.238 20.238 0 0 0-2.876-5.2 15.759 15.759 0 0 0-3.826-3.574c-.281-1.128-1.951-2.021-3.695-2.021h-2.591c.04-.08.081-.158.123-.228a3.554 3.554 0 0 1 .85-1.02 3.383 3.383 0 0 1 1.154-.624 4.67 4.67 0 0 1 1.735-.185 10.458 10.458 0 0 1 1.639.277 9.664 9.664 0 0 1 1.333.42 9.79 9.79 0 0 1 1.152.5 16.861 16.861 0 0 1 3.6 2.37 15.993 15.993 0 0 1 1.411 1.318 15.6 15.6 0 0 1 1.227 1.37 23.274 23.274 0 0 1 3.462 5.8 26.172 26.172 0 0 1 1.723 6.035 61.706 61.706 0 0 1-.247 17.977 43.79 43.79 0 0 1-1.459 5.947 34.975 34.975 0 0 1-2.463 5.835 28.106 28.106 0 0 1-3.865 5.554 20.6 20.6 0 0 1-2.681 2.561 11.334 11.334 0 0 1-3.853 2.176l-.56.178-.493-.194a10.308 10.308 0 0 0-6.755-.083c-2.136.742-3.666 2.264-3.769 3.912s1.147 3.315 3.331 4.26a19.033 19.033 0 0 0 7.45 1.5 22.675 22.675 0 0 0 8.4-1.656 23.985 23.985 0 0 0 6.46-3.945 28.984 28.984 0 0 0 7.651-10.395 50.973 50.973 0 0 0 3.351-11.364 83.471 83.471 0 0 0 1.244-11.579c-.006-1.941.176-3.883.05-5.828l-.03-2.922c-.011-.973-.12-1.925-.2-2.89a30.019 30.019 0 0 0-3.353-11.313 26.124 26.124 0 0 0-9.114-9.79 28.916 28.916 0 0 0-7.177-3.257 26.91 26.91 0 0 0-8.4-1.141 22.207 22.207 0 0 0-4.178.5 18.766 18.766 0 0 0-3.756 1.235 13.933 13.933 0 0 0-5.372 4.151 11.82 11.82 0 0 0-1.468 2.584 2.734 2.734 0 0 0-.109 1.952h-3.276a4.282 4.282 0 0 1 .5-2.518 14.647 14.647 0 0 1 1.954-2.859 17.491 17.491 0 0 1 6.568-4.518 25.271 25.271 0 0 1 9.1-1.665 30.4 30.4 0 0 1 9.071 1.388 34.236 34.236 0 0 1 7.556 3.462 33.5 33.5 0 0 1 10.055 9.976 34.25 34.25 0 0 1 4.71 11.586 57.548 57.548 0 0 1 1.092 11.906 44.74 44.74 0 0 1-6.335 23.461 35.505 35.505 0 0 1-9.312 10.275 26.781 26.781 0 0 1-6.97 3.841 24.657 24.657 0 0 1-8.707 1.629 20.214 20.214 0 0 1-7.8-1.461c-2.376-.973-3.971-2.738-4-4.615s1.435-3.754 3.954-4.815Z" data-name="Caminho 57"/></g></g><g data-name="Grupo 93"><g data-name="Grupo 91"><path fill="#fff" d="M954.325 63.734q.488-1.867.941-3.74a1.927 1.927 0 0 1 2.286-1.332 1.751 1.751 0 0 1 1.468 2.073q-.458 1.905-.958 3.8a1.9 1.9 0 0 1-1.867 1.34 2.148 2.148 0 0 1-.446-.048 1.743 1.743 0 0 1-1.424-2.093Z" data-name="Caminho 58"/></g><g data-name="Grupo 92"><path fill="#fff" d="M958.135 54.489a1.765 1.765 0 0 1-1.554-2.021c1.693-8.614 3.5-21.321-.325-32.158a1.716 1.716 0 0 1 1.243-2.191 1.968 1.968 0 0 1 2.416 1.127c4.089 11.576 2.213 24.853.448 33.835a1.879 1.879 0 0 1-1.888 1.435 2.195 2.195 0 0 1-.34-.027Z" data-name="Caminho 59"/></g></g></g><g data-name="Grupo 105"><g data-name="Grupo 95" opacity=".39"><path fill="#1b1b4c" d="M857.415 75.469a20.3 20.3 0 0 0-15.841-3.115 43.105 43.105 0 0 0 1.87-5.164 74.828 74.828 0 0 0 2.489-13.536 109.566 109.566 0 0 0 .408-13.84 55.079 55.079 0 0 0-1.561-13.539 28.336 28.336 0 0 0-2.432-6.225 16.75 16.75 0 0 0-3.236-4.274v-.007h18.981q.371.742.714 1.5a51.819 51.819 0 0 1 3.984 13.858 96.549 96.549 0 0 1 .923 14.239 71.231 71.231 0 0 1-5.359 28.061 55.06 55.06 0 0 1-.94 2.042Z" data-name="Caminho 60"/></g><g data-name="Grupo 98"><g data-name="Grupo 96" transform="translate(829.606 57.217)"><ellipse cx="17.053" cy="13.862" fill="#2b7754" data-name="Elipse 4" rx="17.053" ry="13.862"/></g><g data-name="Grupo 97"><path fill="#171556" d="M829.606 71.082a9.462 9.462 0 0 1 1.964-5.677 13.65 13.65 0 0 1 4.47-3.634 18.549 18.549 0 0 1 10.619-2.187 21.209 21.209 0 0 1 9.788 3.39 15.475 15.475 0 0 1 3.782 3.361 8.524 8.524 0 0 1 1.865 4.747 7.871 7.871 0 0 1-1.477 4.984 11.212 11.212 0 0 1-4.051 3.3 29.655 29.655 0 0 1-9.907 3 17.892 17.892 0 0 1-10.635-1.942 13.165 13.165 0 0 1-4.478-3.643 9.582 9.582 0 0 1-1.94-5.699Zm0 0a13.186 13.186 0 0 0 3.124 8.152 17.4 17.4 0 0 0 4.375 4.473 18.221 18.221 0 0 0 9.555 3.823 16.765 16.765 0 0 0 12.734-4.078 18.7 18.7 0 0 0 4.135-5.606 17.062 17.062 0 0 0 1.8-6.764 15.4 15.4 0 0 0-1.415-7 15.094 15.094 0 0 0-4.4-5.541 19.075 19.075 0 0 0-12.852-3.684 17.761 17.761 0 0 0-9.559 3.615 16.739 16.739 0 0 0-4.391 4.441 13.166 13.166 0 0 0-3.106 8.169Z" data-name="Caminho 61"/></g></g><g data-name="Grupo 101"><g data-name="Grupo 99"><path fill="#949fc4" d="M846.57 67.657c3.9-1.233 14.482-11.685 12.277-37.3-1.081-12.565-8.991-18.382-12.99-18.65a1.277 1.277 0 0 0-1.231.653h-15.294a3.567 3.567 0 0 1 .236-2.079c2.555-6 9.591-9.479 17.982-8.837 11.662.886 24.925 10.122 26.491 28.31 2.409 27.983-8.728 42.55-19.952 46.852a21.931 21.931 0 0 1-7.8 1.459 17.918 17.918 0 0 1-7.535-1.573c-3.466-1.613-4.35-4.826-1.974-7.178 2.198-2.174 6.422-2.85 9.79-1.657Z" data-name="Caminho 62"/></g><g data-name="Grupo 100"><path fill="#171556" d="M838.758 67.362a12.363 12.363 0 0 1 7.657-.568 9.185 9.185 0 0 0 2.178-1.7 17.729 17.729 0 0 0 1.978-2.445 28.1 28.1 0 0 0 2.784-5.353 48.18 48.18 0 0 0 2.825-11.318 67.746 67.746 0 0 0 .462-11.571 34.6 34.6 0 0 0-1.772-11.32 20.482 20.482 0 0 0-2.761-5.2 15.383 15.383 0 0 0-3.673-3.574c-.27-1.127-1.872-2.021-3.547-2.021h-2.487c.038-.08.077-.158.118-.228a3.5 3.5 0 0 1 .815-1.02 3.221 3.221 0 0 1 1.108-.624 4.316 4.316 0 0 1 1.665-.185 9.64 9.64 0 0 1 1.575.277 8.951 8.951 0 0 1 1.279.42 9.188 9.188 0 0 1 1.106.5 16.135 16.135 0 0 1 3.457 2.37 20.753 20.753 0 0 1 2.533 2.688 23.485 23.485 0 0 1 3.323 5.8 26.962 26.962 0 0 1 1.654 6.036 64.252 64.252 0 0 1-.237 17.977 45.366 45.366 0 0 1-1.4 5.947 35.826 35.826 0 0 1-2.365 5.835 28.143 28.143 0 0 1-3.711 5.554 20.235 20.235 0 0 1-2.572 2.561 10.792 10.792 0 0 1-3.7 2.176l-.537.178-.474-.194a9.52 9.52 0 0 0-6.485-.084c-2.051.741-3.521 2.264-3.62 3.913s1.1 3.316 3.2 4.259a17.643 17.643 0 0 0 7.152 1.5 21.03 21.03 0 0 0 8.063-1.657 22.886 22.886 0 0 0 6.2-3.945 28.94 28.94 0 0 0 7.344-10.395 52.567 52.567 0 0 0 3.218-11.364 87.054 87.054 0 0 0 1.195-11.579c-.006-1.941.169-3.882.047-5.827l-.028-2.922c-.011-.973-.115-1.925-.2-2.89a30.943 30.943 0 0 0-3.22-11.313 25.729 25.729 0 0 0-8.75-9.79 27.229 27.229 0 0 0-6.89-3.257 24.839 24.839 0 0 0-8.06-1.14 20.393 20.393 0 0 0-4.011.5 17.531 17.531 0 0 0-3.607 1.235 13.477 13.477 0 0 0-5.157 4.151 11.907 11.907 0 0 0-1.41 2.584 2.831 2.831 0 0 0-.1 1.952h-3.146a4.443 4.443 0 0 1 .477-2.518 14.685 14.685 0 0 1 1.876-2.859 16.791 16.791 0 0 1 6.306-4.519A23.4 23.4 0 0 1 845.169.73a28.119 28.119 0 0 1 8.709 1.387 32.285 32.285 0 0 1 7.255 3.463 32.872 32.872 0 0 1 9.654 9.976 35.066 35.066 0 0 1 4.521 11.586 59.745 59.745 0 0 1 1.048 11.906 46.153 46.153 0 0 1-6.082 23.461 35.046 35.046 0 0 1-8.939 10.274 25.414 25.414 0 0 1-6.693 3.841 22.85 22.85 0 0 1-8.359 1.629 18.736 18.736 0 0 1-7.488-1.461c-2.28-.973-3.813-2.737-3.842-4.615s1.389-3.754 3.805-4.815Z" data-name="Caminho 63"/></g></g><g data-name="Grupo 104"><g data-name="Grupo 102"><path fill="#fff" d="M862.907 63.463q.469-1.867.9-3.74a1.845 1.845 0 0 1 2.195-1.332 1.745 1.745 0 0 1 1.409 2.073q-.439 1.906-.919 3.8a1.828 1.828 0 0 1-1.792 1.34 1.956 1.956 0 0 1-.428-.048 1.74 1.74 0 0 1-1.365-2.093Z" data-name="Caminho 64"/></g><g data-name="Grupo 103"><path fill="#fff" d="M866.561 54.221a1.751 1.751 0 0 1-1.491-2.021c1.626-8.615 3.362-21.321-.312-32.158a1.725 1.725 0 0 1 1.194-2.191 1.87 1.87 0 0 1 2.32 1.127c3.924 11.576 2.125 24.853.43 33.835a1.818 1.818 0 0 1-1.813 1.435 2.006 2.006 0 0 1-.328-.027Z" data-name="Caminho 65"/></g></g></g><g data-name="Grupo 116"><g data-name="Grupo 106" opacity=".39"><path fill="#1b1b4c" d="M767.276 75.2a19.414 19.414 0 0 0-4.239-2.3 18.815 18.815 0 0 0-10.942-.812 44.5 44.5 0 0 0 1.792-5.164 77.757 77.757 0 0 0 2.385-13.536 114.456 114.456 0 0 0 .391-13.84 57.36 57.36 0 0 0-1.5-13.54 29.011 29.011 0 0 0-2.332-6.225 16.673 16.673 0 0 0-3.1-4.274v-.007h18.191q.356.741.684 1.5a53.479 53.479 0 0 1 3.819 13.858 100.709 100.709 0 0 1 .885 14.239 73.987 73.987 0 0 1-5.136 28.061 52.057 52.057 0 0 1-.898 2.04Z" data-name="Caminho 66"/></g><g data-name="Grupo 109"><g data-name="Grupo 107" transform="translate(740.625 56.947)"><ellipse cx="16.344" cy="13.862" fill="#2b7754" data-name="Elipse 5" rx="16.344" ry="13.862"/></g><g data-name="Grupo 108"><path fill="#171556" d="M740.624 70.809a9.583 9.583 0 0 1 1.835-5.578 13.338 13.338 0 0 1 4.266-3.664 17.074 17.074 0 0 1 10.244-2.256 19.392 19.392 0 0 1 9.38 3.435 15.2 15.2 0 0 1 3.583 3.37 8.721 8.721 0 0 1 1.763 4.693 8 8 0 0 1-1.368 4.918 10.9 10.9 0 0 1-3.855 3.312 26.892 26.892 0 0 1-9.5 3.045 16.465 16.465 0 0 1-10.262-2.011 12.856 12.856 0 0 1-4.271-3.672 9.7 9.7 0 0 1-1.815-5.592Zm0 0a13.541 13.541 0 0 0 2.094 6.989 16.322 16.322 0 0 0 3.79 4.873 18.169 18.169 0 0 0 10.461 4.586 15.862 15.862 0 0 0 12.443-4.207 18.345 18.345 0 0 0 3.874-5.626 17.9 17.9 0 0 0 1.645-6.615 15.914 15.914 0 0 0-1.249-6.843 14.769 14.769 0 0 0-4.146-5.568 17.977 17.977 0 0 0-12.566-3.816 17.7 17.7 0 0 0-10.472 4.359 15.725 15.725 0 0 0-3.8 4.862 13.6 13.6 0 0 0-2.074 7.006Z" data-name="Caminho 67"/></g></g><g data-name="Grupo 112"><g data-name="Grupo 110"><path fill="#949fc4" d="M756.883 67.387c3.737-1.233 13.879-11.686 11.767-37.3-1.037-12.564-8.617-18.38-12.451-18.65a1.206 1.206 0 0 0-1.18.652h-14.658a3.706 3.706 0 0 1 .226-2.079c2.449-6 9.193-9.479 17.234-8.836 11.176.885 23.888 10.121 25.389 28.309 2.309 27.983-8.364 42.55-19.121 46.852a20.25 20.25 0 0 1-7.476 1.459 16.565 16.565 0 0 1-7.222-1.573c-3.322-1.612-4.169-4.826-1.892-7.178 2.107-2.173 6.156-2.849 9.384-1.656Z" data-name="Caminho 68"/></g><g data-name="Grupo 111"><path fill="#171556" d="M749.396 67.093a11.387 11.387 0 0 1 7.339-.568 8.836 8.836 0 0 0 2.088-1.7 17.682 17.682 0 0 0 1.9-2.445 28.577 28.577 0 0 0 2.668-5.353 49.911 49.911 0 0 0 2.708-11.318 70.443 70.443 0 0 0 .443-11.571 35.977 35.977 0 0 0-1.7-11.32 20.8 20.8 0 0 0-2.646-5.2 15.061 15.061 0 0 0-3.52-3.574c-.259-1.127-1.794-2.021-3.4-2.021h-2.384c.036-.08.074-.158.114-.228a3.505 3.505 0 0 1 .781-1.02 3.066 3.066 0 0 1 1.063-.624 3.968 3.968 0 0 1 1.6-.185 8.876 8.876 0 0 1 1.509.277 8.372 8.372 0 0 1 1.226.42 8.733 8.733 0 0 1 1.06.5 18.592 18.592 0 0 1 5.741 5.058 23.769 23.769 0 0 1 3.184 5.8 27.86 27.86 0 0 1 1.586 6.036 67.116 67.116 0 0 1-.227 17.977 46.939 46.939 0 0 1-1.343 5.948 36.793 36.793 0 0 1-2.266 5.834 28.3 28.3 0 0 1-3.556 5.554 19.763 19.763 0 0 1-2.466 2.561 10.261 10.261 0 0 1-3.545 2.177l-.515.178-.454-.194a8.77 8.77 0 0 0-6.215-.084c-1.966.741-3.373 2.264-3.469 3.913s1.056 3.316 3.066 4.26a16.311 16.311 0 0 0 6.855 1.5 19.442 19.442 0 0 0 7.727-1.657 21.845 21.845 0 0 0 5.943-3.945 28.959 28.959 0 0 0 7.039-10.395 54.312 54.312 0 0 0 3.085-11.363 90.7 90.7 0 0 0 1.145-11.58c-.006-1.941.162-3.882.045-5.828l-.027-2.921c-.01-.973-.11-1.925-.187-2.89a32 32 0 0 0-3.087-11.313 25.26 25.26 0 0 0-14.989-13.047 22.884 22.884 0 0 0-7.725-1.14 18.833 18.833 0 0 0-3.845.5 16.283 16.283 0 0 0-3.456 1.235 13.043 13.043 0 0 0-4.943 4.151 12.121 12.121 0 0 0-1.351 2.584 2.959 2.959 0 0 0-.1 1.952h-3.015a4.609 4.609 0 0 1 .457-2.518 14.785 14.785 0 0 1 1.8-2.858 16.146 16.146 0 0 1 6.043-4.518 21.612 21.612 0 0 1 8.374-1.666 25.947 25.947 0 0 1 8.346 1.387 30.39 30.39 0 0 1 6.953 3.463 32.3 32.3 0 0 1 9.252 9.976 36.011 36.011 0 0 1 4.334 11.586 62.382 62.382 0 0 1 1 11.906 47.752 47.752 0 0 1-5.829 23.461 34.633 34.633 0 0 1-8.568 10.274 24.147 24.147 0 0 1-6.413 3.841 21.114 21.114 0 0 1-8.012 1.629 17.3 17.3 0 0 1-7.176-1.461c-2.185-.972-3.654-2.737-3.682-4.615s1.322-3.757 3.637-4.818Z" data-name="Caminho 69"/></g></g><g data-name="Grupo 115"><g data-name="Grupo 113"><path fill="#fff" d="M772.537 63.193q.449-1.867.866-3.74a1.767 1.767 0 0 1 2.1-1.332 1.743 1.743 0 0 1 1.351 2.073q-.421 1.906-.881 3.8a1.771 1.771 0 0 1-2.128 1.292 1.741 1.741 0 0 1-1.308-2.093Z" data-name="Caminho 70"/></g><g data-name="Grupo 114"><path fill="#fff" d="M776.042 53.948a1.743 1.743 0 0 1-1.429-2.021c1.558-8.615 3.223-21.322-.3-32.158a1.739 1.739 0 0 1 1.144-2.19 1.774 1.774 0 0 1 2.223 1.127c3.762 11.576 2.037 24.853.412 33.835a1.758 1.758 0 0 1-1.737 1.435 1.85 1.85 0 0 1-.313-.028Z" data-name="Caminho 71"/></g></g></g><g data-name="Grupo 129"><g data-name="Grupo 117" opacity=".39"><path fill="#1b1b4c" d="M679.017 74.928a18.275 18.275 0 0 0-4.056-2.3 17.252 17.252 0 0 0-10.467-.812 49.984 49.984 0 0 0 1.715-5.164 83.669 83.669 0 0 0 2.282-13.536 128.145 128.145 0 0 0 .373-13.84 62.658 62.658 0 0 0-1.43-13.54 30.166 30.166 0 0 0-2.23-6.225 16.906 16.906 0 0 0-2.966-4.274v-.007h17.4q.342.742.656 1.5a54.65 54.65 0 0 1 3.652 13.858 109.874 109.874 0 0 1 .847 14.239c-.072 9.491-1.4 19.137-4.913 28.061a55.566 55.566 0 0 1-.863 2.04Z" data-name="Caminho 72"/></g><g data-name="Grupo 120"><g data-name="Grupo 118" transform="translate(653.523 56.676)"><ellipse cx="15.635" cy="13.862" fill="#2b7754" data-name="Elipse 6" rx="15.635" ry="13.862"/></g><g data-name="Grupo 119"><path fill="#171556" d="M653.523 70.538a9.716 9.716 0 0 1 1.707-5.481 13.055 13.055 0 0 1 4.059-3.692 15.7 15.7 0 0 1 9.869-2.325 17.7 17.7 0 0 1 8.972 3.481 14.971 14.971 0 0 1 3.384 3.379 8.941 8.941 0 0 1 1.66 4.639 8.151 8.151 0 0 1-1.259 4.853 10.572 10.572 0 0 1-3.658 3.329 24.339 24.339 0 0 1-9.1 3.094 15.134 15.134 0 0 1-9.887-2.08 12.575 12.575 0 0 1-4.066-3.7 9.861 9.861 0 0 1-1.681-5.497Zm0 0a16.8 16.8 0 0 0 1.063 5.826 15.541 15.541 0 0 0 3.207 5.273 18.477 18.477 0 0 0 11.365 5.349 15.016 15.016 0 0 0 12.152-4.335 18.037 18.037 0 0 0 3.615-5.646 18.964 18.964 0 0 0 1.485-6.467 16.574 16.574 0 0 0-1.084-6.683 14.442 14.442 0 0 0-3.888-5.6 16.949 16.949 0 0 0-12.28-3.948 17.994 17.994 0 0 0-11.383 5.1 15.011 15.011 0 0 0-3.214 5.283 17.138 17.138 0 0 0-1.038 5.848Z" data-name="Caminho 73"/></g></g><g data-name="Grupo 128"><g data-name="Grupo 124"><g data-name="Grupo 123"><g data-name="Grupo 121"><path fill="#949fc4" d="M663.799 67.116c2.716-1.233 10.084-11.686 8.55-37.3-.754-12.564-6.264-18.346-9.046-18.65-.167-.015-.5-.042-.858.653h-6.14a5.035 5.035 0 0 1 .164-2.079c1.779-6 6.679-9.479 12.521-8.837 8.12.886 17.355 10.122 18.446 28.31 1.678 27.983-6.076 42.55-13.892 46.852a11.291 11.291 0 0 1-5.432 1.459 9.369 9.369 0 0 1-5.246-1.573 5.082 5.082 0 0 1-1.375-7.178c1.531-2.172-.033-2.85 2.308-1.657Z" data-name="Caminho 74"/></g><g data-name="Grupo 122"><path fill="#171556" d="M662.869 66.822c1.519-.983-.958-1.211.822-.568a7.231 7.231 0 0 0 1.517-1.7 16.875 16.875 0 0 0 1.378-2.445 34.415 34.415 0 0 0 1.939-5.354 68.13 68.13 0 0 0 1.967-11.317 104.031 104.031 0 0 0 .323-11.571 50.9 50.9 0 0 0-1.234-11.32 24.642 24.642 0 0 0-1.923-5.2 14.107 14.107 0 0 0-2.557-3.574 2.553 2.553 0 0 0-2.47-2.02h-1.738c.027-.08.054-.158.083-.229a3.756 3.756 0 0 1 .568-1.02 2.245 2.245 0 0 1 .771-.624 2.145 2.145 0 0 1 1.16-.185 4.919 4.919 0 0 1 1.1.277 5.062 5.062 0 0 1 .891.42 5.7 5.7 0 0 1 .77.5 11.9 11.9 0 0 1 2.406 2.37 13.452 13.452 0 0 1 .944 1.318c.309.443.56.908.82 1.37a27.828 27.828 0 0 1 2.314 5.8 36.828 36.828 0 0 1 1.151 6.036c.22 2.046.239 4.009.337 6.006a85.784 85.784 0 0 1-.5 11.97 55.338 55.338 0 0 1-.976 5.948 42.838 42.838 0 0 1-1.646 5.834 30.671 30.671 0 0 1-2.583 5.554 18.889 18.889 0 0 1-1.792 2.561 7.739 7.739 0 0 1-2.577 2.177l-.374.178-.33-.194c-1.311-.771 1.422-.837-.007-.083a4.707 4.707 0 0 0-2.52 3.912 4.856 4.856 0 0 0 2.227 4.259 9.2 9.2 0 0 0 4.98 1.5 10.971 10.971 0 0 0 5.614-1.657 16.652 16.652 0 0 0 4.318-3.945 31.919 31.919 0 0 0 5.114-10.395 68.994 68.994 0 0 0 2.241-11.363c.52-3.829.691-7.706.832-11.579 0-1.941.117-3.883.033-5.827l-.02-2.921c-.007-.974-.094-1.924-.135-2.89a43.344 43.344 0 0 0-2.242-11.313 25.386 25.386 0 0 0-6.093-9.79 17.95 17.95 0 0 0-4.8-3.257 12.205 12.205 0 0 0-5.612-1.14 10.144 10.144 0 0 0-5.3 1.738 10.8 10.8 0 0 0-3.591 4.151 13.887 13.887 0 0 0-.982 2.584 4 4 0 0 0-.073 1.953h-2.191a6.094 6.094 0 0 1 .332-2.519 15.724 15.724 0 0 1 1.306-2.858 12.663 12.663 0 0 1 4.391-4.519 11.652 11.652 0 0 1 6.083-1.665 13.921 13.921 0 0 1 6.064 1.388 20.549 20.549 0 0 1 5.051 3.463 30.441 30.441 0 0 1 6.723 9.976 44.6 44.6 0 0 1 3.148 11.586 89.4 89.4 0 0 1 .73 11.905 63.6 63.6 0 0 1-4.236 23.461 35.028 35.028 0 0 1-6.224 10.274 17.845 17.845 0 0 1-4.659 3.841 11.338 11.338 0 0 1-5.821 1.629 9.587 9.587 0 0 1-5.214-1.461 5.494 5.494 0 0 1-2.675-4.615 5.625 5.625 0 0 1 2.647-4.821Z" data-name="Caminho 75"/></g></g></g><g data-name="Grupo 127"><g data-name="Grupo 125"><path fill="#fff" d="M676.299 61.681q.327-1.867.629-3.74c.151-.94.837-1.54 1.529-1.332a1.818 1.818 0 0 1 .98 2.073q-.306 1.906-.639 3.8a1.438 1.438 0 0 1-1.248 1.34.951.951 0 0 1-.3-.048 1.837 1.837 0 0 1-.951-2.093Z" data-name="Caminho 76"/></g><g data-name="Grupo 126"><path fill="#fff" d="M678.846 52.437a1.774 1.774 0 0 1-1.038-2.021c1.132-8.615 2.342-21.322-.217-32.158a1.923 1.923 0 0 1 .831-2.19c.677-.292 1.4.212 1.616 1.127 2.733 11.576 1.48 24.853.3 33.835-.111.844-.652 1.436-1.263 1.436a1.015 1.015 0 0 1-.229-.029Z" data-name="Caminho 77"/></g></g></g></g></g></g></g></svg>