<svg xmlns="http://www.w3.org/2000/svg"  viewBox="0 0 50 50" width="25px" height="25px"><path d="M 3.90625 2.96875 C 3.863281 2.976563 3.820313 2.988281 3.78125 3 C 3.40625 3.066406 3.105469 3.339844 3 3.703125 C 2.894531 4.070313 3.003906 4.460938 3.28125 4.71875 L 45.28125 46.71875 C 45.679688 47.117188 46.320313 47.117188 46.71875 46.71875 C 47.117188 46.320313 47.117188 45.679688 46.71875 45.28125 L 39.09375 37.65625 C 44.765625 34.25 48.539063 29.957031 48.8125 29.59375 C 49.113281 29.292969 49.113281 28.710938 48.8125 28.3125 C 48.394531 27.894531 41.097656 19.539063 31.09375 16.84375 C 34.058594 18.8125 36 22.175781 36 26 C 36 28.417969 35.199219 30.625 33.875 32.4375 L 29.53125 28.09375 C 29.832031 27.457031 30 26.734375 30 26 C 30 23.199219 27.800781 21 25 21 C 24.265625 21 23.542969 21.167969 22.90625 21.46875 L 18.5625 17.125 C 18.699219 17.027344 18.828125 16.90625 18.96875 16.8125 C 18.78125 16.859375 18.589844 16.917969 18.40625 16.96875 L 4.71875 3.28125 C 4.511719 3.058594 4.210938 2.945313 3.90625 2.96875 Z M 14.5 18.5 C 6.800781 22 1.488281 28.011719 1.1875 28.3125 C 0.886719 28.710938 0.886719 29.195313 1.1875 29.59375 C 1.6875 30.195313 12 42 25 42 C 28.800781 42 32.398438 40.992188 35.5 39.59375 L 31.09375 35.15625 C 29.351563 36.316406 27.25 37 25 37 C 18.925781 37 14 32.074219 14 26 C 14 23.730469 14.699219 21.625 15.875 19.875 Z M 20.3125 24.3125 C 20.113281 24.914063 20 25.398438 20 26 C 20 28.800781 22.199219 31 25 31 C 25.601563 31 26.085938 30.886719 26.6875 30.6875 Z"/></svg>