<svg xmlns="http://www.w3.org/2000/svg" width="23.103" height="17.667"><g data-name="Grupo 8157"><path fill="#171556" d="M11.518 4.53c-.031-1.412.88-5.385-1.749-4.364-2.021 1.729-4.4 2.9-6.3 4.725-.326.289-.665.588-1.006.87-.642.009-1.194-.069-1.9-.079l.511-.065c-1.1-.041-1.118.981-1.054 1.839.013 1.239.173 2.429.211 3.668-.126 1.136.509 1.23 1.471 1.2.41.012-.357.033.045.053.489.01.677.055 1.1.064.925.706 2.327 1.613 3.316 2.344 1.187.574 3.828 4.142 5.109 2.411.517-4.365-.004-8.383.246-12.666Z" data-name="Caminho 5687"/></g><path fill="#171556" d="M15.334 7.956a3.669 3.669 0 0 0-.632-1.763c-.231-.518-.661-1.288-1.317-.825l.048.06c-1.728.946 1.269 1.582-.229 5.074-.1.435-.461.791-.365 1.265a.821.821 0 0 0 1.554.2 12.076 12.076 0 0 1 .666-1.185 8.375 8.375 0 0 0 .275-2.826Z" data-name="Caminho 5688"/><path fill="#171556" d="M18.876 11.069a10.569 10.569 0 0 0 .363-3.136c-.324-1.366-.515-3.279-1.628-4.091a.783.783 0 1 0-1.4.686 5.511 5.511 0 0 1 1.232 3.6 10.89 10.89 0 0 1-.339 3.027c-.219.9-1.165 1.585-1.062 2.533 1.266 2.226 2.796-1.396 2.834-2.619Z" data-name="Caminho 5689"/><path fill="#171556" d="M23.098 8.772c.078-1.665-.722-5.308-2.008-6.3-.5-1.129-2.064-.091-1.3.831a7.935 7.935 0 0 1 1.493 4.791 10.694 10.694 0 0 1-1.734 6.391.911.911 0 0 0 1.567.872 14.946 14.946 0 0 0 .97-1.671 20.278 20.278 0 0 0 1.012-4.914Z" data-name="Caminho 5690"/></svg>