<svg xmlns="http://www.w3.org/2000/svg" width="82.099" height="57.816"><g data-name="Grupo 481" transform="translate(-.683)"><path fill="#afceff" d="M28.344 8.236c-.549-.484-1.347-1.249-1.875-1.744a2.364 2.364 0 0 0-3.259.253c-3.131 2.369-6.61 4.587-8.748 7.993a2.744 2.744 0 0 0 .343 3.639c1.738 1.272 4.607 4.885 6.464 1.973a73.159 73.159 0 0 1 7.005-6.415c1.085-.671 2.191-1.67 1.983-3.072-.059-1.144-1.157-1.913-1.913-2.627Z" data-name="Caminho 332"/><path fill="#afceff" d="M69.327 14.357c-2.237-3.563-5.876-5.883-9.152-8.361a2.473 2.473 0 0 0-3.409-.266c-.552.517-1.386 1.319-1.961 1.825-.791.747-1.94 1.552-2 2.748-.218 1.467.939 2.512 2.074 3.213a76.526 76.526 0 0 1 7.328 6.713c1.943 3.047 4.945-.733 6.762-2.064a2.869 2.869 0 0 0 .358-3.808Z" data-name="Caminho 333"/><circle cx="15.022" cy="15.022" r="15.022" fill="#fff" data-name="Elipse 23" transform="translate(27.719 20.244)"/><path fill="#afceff" d="M61.606 27.965a14.754 14.754 0 0 0-.343-1.005l-.109-.293c-.082-.2-.173-.4-.263-.6-.047-.1-.093-.2-.14-.312-.11-.242-.236-.475-.358-.7l-.111-.206c-.179-.31-.374-.6-.544-.859-.13-.184-.264-.365-.4-.545l-.2-.269-.625-.774c-.212-.248-.422-.5-.635-.76l-.653-.752a23.767 23.767 0 0 0-2.939-2.776 15.92 15.92 0 0 0-3.531-2.109 14.145 14.145 0 0 0-3.993-1.049 35.928 35.928 0 0 0-4.034-.239 22.483 22.483 0 0 0-7.974 1.368 20.021 20.021 0 0 0-6.985 4.317 18.116 18.116 0 0 0-2.6 3.237 19.024 19.024 0 0 0-1.8 3.721 24.827 24.827 0 0 0-1.393 8 24.083 24.083 0 0 0 .269 4.066 16.924 16.924 0 0 0 1.127 3.959 15.352 15.352 0 0 0 2.1 3.544 28.909 28.909 0 0 0 2.731 2.971 27.851 27.851 0 0 0 3.074 2.587 20.973 20.973 0 0 0 3.488 2.072 17.292 17.292 0 0 0 7.32 1.578c.22 0 .44 0 .661-.012a21.387 21.387 0 0 0 7.822-1.872 25.441 25.441 0 0 0 3.523-1.879 16.048 16.048 0 0 0 3.072-2.594 18.417 18.417 0 0 0 2-2.557 20.242 20.242 0 0 0 2.445-19.252Zm-5.724 13.043a11.536 11.536 0 0 1-3.056 4.661 13.251 13.251 0 0 1-2.259 1.643 18.93 18.93 0 0 1-2.483 1.219 16.447 16.447 0 0 1-2.63.829 15.521 15.521 0 0 1-2.747.375 14.428 14.428 0 0 1-2.789-.158c-.462-.079-.92-.181-1.373-.3s-.9-.286-1.332-.46a12.7 12.7 0 0 1-2.469-1.347 13.413 13.413 0 0 1-2.111-1.842 15.548 15.548 0 0 1-2.963-4.674 21.4 21.4 0 0 1-.866-2.635 14.218 14.218 0 0 1-.458-2.766 11 11 0 0 1 .222-2.812 12.668 12.668 0 0 1 .859-2.69 14.431 14.431 0 0 1 3.241-4.538 16.213 16.213 0 0 1 4.6-3.092 15.939 15.939 0 0 1 2.647-.913 14.482 14.482 0 0 1 2.793-.4 12.837 12.837 0 0 1 5.568 1.005 13.938 13.938 0 0 1 4.632 3.24 13.24 13.24 0 0 1 1.712 2.24 13.085 13.085 0 0 1 1.2 2.527 12.621 12.621 0 0 1 .683 5.432h.093a13.064 13.064 0 0 1-.714 5.456Z" data-name="Caminho 334"/><path fill="#afceff" d="M32.758 34.707c1.74-2.055 3.5-4.09 5.243-6.146q2.713-3.208 5.424-6.41-.34-.018-.684-.018a13.133 13.133 0 0 0-12.826 15.965c.862-1.191 1.899-2.278 2.843-3.391Z" data-name="Caminho 335"/><path fill="#afceff" d="M44.832 33.798q3.11-4.345 6.29-8.639a13.115 13.115 0 0 0-4.225-2.353q-3.763 4.451-7.521 8.907c-1.523 1.8-3.074 3.572-4.592 5.373a20.289 20.289 0 0 0-3.352 4.531 1.654 1.654 0 0 1-.089.171 13.211 13.211 0 0 0 4.651 4.746q4.32-6.436 8.838-12.736Z" data-name="Caminho 336"/><path fill="#afceff" d="M42.745 48.401a13.119 13.119 0 0 0 12.659-16.607q-6.13 8.455-12.659 16.607Z" data-name="Caminho 337"/><g fill="#1639ad" data-name="Grupo 343"><path d="M63.038 26.985c-.039-.126-.077-.252-.118-.376a16.443 16.443 0 0 0-.257-.72l-.12-.321c-.09-.224-.189-.444-.29-.666a12.782 12.782 0 0 0-.546-1.11l-.123-.23c-.2-.344-.414-.67-.6-.946-.131-.187-.268-.371-.435-.6l-.9-1.142a37.611 37.611 0 0 1-.689-.826l-.713-.819a25.875 25.875 0 0 0-3.213-3.035 17.464 17.464 0 0 0-3.875-2.316 15.562 15.562 0 0 0-4.39-1.154 39.6 39.6 0 0 0-4.4-.262 24.567 24.567 0 0 0-8.723 1.5 21.9 21.9 0 0 0-7.649 4.729 19.786 19.786 0 0 0-2.851 3.548 20.852 20.852 0 0 0-1.978 4.076 27.14 27.14 0 0 0-1.523 8.747 26.308 26.308 0 0 0 .294 4.446 18.476 18.476 0 0 0 1.236 4.342 16.8 16.8 0 0 0 2.308 3.893 31.48 31.48 0 0 0 2.981 3.245 30.339 30.339 0 0 0 3.358 2.823 22.836 22.836 0 0 0 3.817 2.268 19.019 19.019 0 0 0 8.029 1.732c.24 0 .483 0 .724-.013a23.447 23.447 0 0 0 8.564-2.049 27.846 27.846 0 0 0 3.847-2.053 17.668 17.668 0 0 0 3.374-2.847 20.059 20.059 0 0 0 2.185-2.794 22.176 22.176 0 0 0 2.681-21.075Zm-.6 8.089a19.867 19.867 0 0 1-3.928 11.914 22.847 22.847 0 0 1-2.034 2.171 28.906 28.906 0 0 1-3.077 2.449 15.943 15.943 0 0 1-3.416 1.835 18.7 18.7 0 0 1-7.6 1.177 25.281 25.281 0 0 1-7.517-1.514 19.084 19.084 0 0 1-3.479-1.646 15.376 15.376 0 0 1-3-2.4 14.88 14.88 0 0 1-2.243-3.1 32.774 32.774 0 0 1-1.649-3.484 25.972 25.972 0 0 1-1.178-3.639 17.2 17.2 0 0 1-.508-3.776 16.459 16.459 0 0 1 1.666-7.359 23.234 23.234 0 0 1 4.37-6.151 20.224 20.224 0 0 1 6.092-4.447 17.876 17.876 0 0 1 7.427-1.7h.125a13.2 13.2 0 0 1 3.629.531c1.188.341 2.318.757 3.649 1.275a29.778 29.778 0 0 1 3.487 1.638 17.014 17.014 0 0 1 3.145 2.2l.276.262c.15.141.3.283.426.407l.092.1c.189.2.382.416.549.615.2.259.4.523.581.768l.22.325c.113.165.227.331.323.48.1.178.217.351.357.565.064.1.127.195.189.3l.526.842c.332.559.656 1.143.963 1.737l.116.229a19.916 19.916 0 0 1 1.425 7.396Z" data-name="Caminho 338"/><path d="M57.068 35.065h-.06a13.183 13.183 0 0 0-.729-5.413 14.081 14.081 0 0 0-3.029-4.954 14.535 14.535 0 0 0-4.812-3.366 13.438 13.438 0 0 0-5.792-1.046 14.968 14.968 0 0 0-2.9.414 16.7 16.7 0 0 0-7.513 4.152 15.1 15.1 0 0 0-3.365 4.713 13.244 13.244 0 0 0-.894 2.8 11.52 11.52 0 0 0-.231 2.933 14.781 14.781 0 0 0 .476 2.872 22.665 22.665 0 0 0 .9 2.726 16.078 16.078 0 0 0 3.076 4.848 13.81 13.81 0 0 0 2.193 1.913 13.223 13.223 0 0 0 2.57 1.4c.469.187.935.347 1.387.478.485.132.964.238 1.428.317a14.967 14.967 0 0 0 2.292.176c.2 0 .4 0 .6-.012a16 16 0 0 0 2.85-.389 17.106 17.106 0 0 0 2.725-.86 19.761 19.761 0 0 0 2.569-1.26 13.773 13.773 0 0 0 2.347-1.708 12.009 12.009 0 0 0 3.185-4.857 13.632 13.632 0 0 0 .745-5.674Zm-1.391 0h-.054l-.017.2a13.854 13.854 0 0 1-1.328 4.82 17.507 17.507 0 0 1-2.776 4.06 13.822 13.822 0 0 1-1.81 1.7 9.83 9.83 0 0 1-2.143 1.258 10.893 10.893 0 0 1-2.4.693 11.5 11.5 0 0 1-2.485.138 12.742 12.742 0 0 1-2.45-.358 7.258 7.258 0 0 1-.359-.092l-.239-.061a9.85 9.85 0 0 1-.37-.114l-.214-.068a13.441 13.441 0 0 1-1.15-.428 14.329 14.329 0 0 1-4.133-2.635 11.6 11.6 0 0 1-2.854-4.027 8.943 8.943 0 0 1-.655-2.383 12.733 12.733 0 0 1-.055-2.471 20.2 20.2 0 0 1 .293-2.436 14.806 14.806 0 0 1 .668-2.351 12.513 12.513 0 0 1 2.577-4.165 11.043 11.043 0 0 1 6.477-3.329 12.444 12.444 0 0 1 1.806-.13c.212 0 .424 0 .635.016a14.582 14.582 0 0 1 4.716 1.038 12.95 12.95 0 0 1 4.072 2.579 13.5 13.5 0 0 1 2.909 3.94 14.484 14.484 0 0 1 1.34 4.606Z" data-name="Caminho 339"/></g><g data-name="Grupo 344"><path fill="#1639ad" d="M41.504 14.208a7.1 7.1 0 1 1 7.1-7.1 7.112 7.112 0 0 1-7.1 7.1Zm0-11.725a4.621 4.621 0 1 0 4.621 4.621 4.626 4.626 0 0 0-4.621-4.622Z" data-name="Caminho 340"/></g><g fill="#1639ad" data-name="Grupo 345"><path d="M28.801 8.504c-.132-.118-.262-.233-.386-.35-.4-.35-.923-.847-1.387-1.285l-.486-.457a2.456 2.456 0 0 0-3.4.247c-.494.374-1 .743-1.5 1.114-2.685 1.977-5.462 4.021-7.269 6.9a2.835 2.835 0 0 0 .364 3.79c.331.242.709.575 1.107.927 1.107.976 2.467 2.173 3.712 2.173a1.89 1.89 0 0 0 .257-.017 2.213 2.213 0 0 0 1.529-1.122 73.217 73.217 0 0 1 6.984-6.4c1.52-.939 2.2-2.008 2.034-3.174a3.672 3.672 0 0 0-1.559-2.346Zm-1.385 2.418-.022.015-.054.035a18.238 18.238 0 0 0-7.144 8.576l-.1-.063-.06.052a.392.392 0 0 1-.354.1.3.3 0 0 1-.219-.182l-.016-.025a79.54 79.54 0 0 0-2.451-2.939c.4-.564.8-1.159 1.192-1.734 1.86-2.747 3.783-5.587 6.7-7.115h.013c.211 0 .491.434.68.726a2.269 2.269 0 0 0 .281.388c.227.321.6.847.938 1.316l.5.707c.057.057.088.105.116.144Z" data-name="Caminho 341"/><path d="M69.417 14.3c-1.9-3.02-4.8-5.159-7.613-7.228-.526-.387-1.049-.772-1.556-1.154a2.569 2.569 0 0 0-3.556-.266c-.156.146-.333.312-.521.491-.481.454-1.026.969-1.441 1.334-.126.119-.261.239-.4.363a3.831 3.831 0 0 0-1.633 2.447c-.181 1.219.533 2.336 2.121 3.32a77.2 77.2 0 0 1 7.3 6.679 2.333 2.333 0 0 0 1.61 1.189 1.9 1.9 0 0 0 .269.019c1.3 0 2.722-1.253 3.88-2.274.418-.368.813-.715 1.166-.975a2.954 2.954 0 0 0 .374-3.945Zm-2.734 1.889c-.85.969-1.69 1.977-2.567 3.078l-.015.026a.323.323 0 0 1-.231.193.436.436 0 0 1-.377-.1l-.06-.052-.107.068a19.072 19.072 0 0 0-7.479-8.979l-.055-.036-.024-.015.117-.156.478-.669c.363-.509.783-1.1 1.016-1.43a2.376 2.376 0 0 0 .31-.423c.2-.306.494-.762.716-.762h.016c3.056 1.6 5.067 4.569 7.013 7.444.407.598.828 1.22 1.249 1.813Z" data-name="Caminho 342"/></g><path fill="#1639ad" d="M50.124 34.575h-4.236a3.282 3.282 0 0 0-1.988-2.1v-6.674a1.139 1.139 0 0 0-2.277 0v6.674a3.269 3.269 0 1 0 4.133 4.375h4.368a1.139 1.139 0 0 0 0-2.277Zm-7.33 2.3a1.366 1.366 0 1 1 1.367-1.366 1.366 1.366 0 0 1-1.367 1.366Z" data-name="Caminho 343"/><g fill="#fff" data-name="Grupo 347"><path d="M52.38 20.89a.955.955 0 0 0-.275-1.377 20.1 20.1 0 0 0-3.573-1.744 1.015 1.015 0 0 0-1.062.234l-.02.019a.917.917 0 0 0 .37 1.521 18.127 18.127 0 0 1 3.29 1.618.942.942 0 0 0 1.258-.255Z" data-name="Caminho 344"/><path d="m54.945 23.156-.024.032a.966.966 0 0 0 .08 1.214 16.422 16.422 0 0 1 4.282 11.011 16.625 16.625 0 0 1-6.137 12.8.912.912 0 0 0-.191 1.235l.012.017a1.023 1.023 0 0 0 1.48.186 18.482 18.482 0 0 0 6.834-14.236 18.257 18.257 0 0 0-4.854-12.337.96.96 0 0 0-1.482.078Z" data-name="Caminho 345"/></g><g data-name="Grupo 467"><g fill="#1639ad" data-name="Grupo 466"><path d="M9.224 47.449a1.914 1.914 0 0 0 .59.37c.865.324 4.097-3.464 3.91-3.99l-.242-.303c-.533-.23-4.7 2.37-4.574 3.314a1.84 1.84 0 0 0 .316.609Z" data-name="Caminho 479"/><path d="M6.751 23.595a1.806 1.806 0 0 1 .516-.428c.775-.409 4.197 3.03 4.074 3.573l-.196.325c-.477.284-4.65-1.885-4.628-2.832a1.9 1.9 0 0 1 .234-.638Z" data-name="Caminho 480"/><path d="M1.32 36.778a3.448 3.448 0 0 1 .433-.8c.736-.995 5.81-.615 5.863-.02l-.11.448c-.438.639-5.918 2.013-6.23 1.14a2.083 2.083 0 0 1 .044-.768Z" data-name="Caminho 481"/></g></g><g data-name="Grupo 468"><g fill="#1639ad" data-name="Grupo 466"><path d="M75.635 47.449a1.913 1.913 0 0 1-.59.37c-.865.324-4.098-3.464-3.91-3.99l.241-.303c.534-.23 4.7 2.37 4.573 3.314a1.84 1.84 0 0 1-.314.609Z" data-name="Caminho 479"/><path d="M78.109 23.595a1.806 1.806 0 0 0-.517-.428c-.78-.41-4.196 3.03-4.073 3.573l.196.325c.477.284 4.65-1.885 4.627-2.832a1.9 1.9 0 0 0-.233-.638Z" data-name="Caminho 480"/><path d="M82.147 36.775a3.448 3.448 0 0 0-.433-.799c-.737-.995-5.81-.615-5.86-.024l.106.451c.439.639 5.918 2.013 6.226 1.137a2.083 2.083 0 0 0-.039-.765Z" data-name="Caminho 481"/></g></g></g></svg>