<?xml version="1.0" encoding="utf-8"?>
<!-- Generator: Adobe Illustrator 24.0.0, SVG Export Plug-In . SVG Version: 6.00 Build 0)  -->
<svg version="1.1" id="Camada_1" xmlns="http://www.w3.org/2000/svg" xmlns:xlink="http://www.w3.org/1999/xlink" x="0px" y="0px"
	 viewBox="0 0 150 150" style="enable-background:new 0 0 150 150;" xml:space="preserve">
<style type="text/css">
	.st0{fill:#178FFC;}
	.st1{fill:#012442;}
	.st2{fill:none;}
	.st3{fill:#FFBB71;}
	.st4{fill:#FFFFFF;}
	.st5{fill:#9CA8AD;}
	.st6{fill:#C459D3;}
	.st7{fill:#9B613A;}
	.st8{fill:#ED99FF;}
	.st9{fill:#D5DADB;}
</style>
<g>
	<g>
		<g>
			<g>
				<circle class="st0" cx="75" cy="75" r="74.94"/>
			</g>
		</g>
	</g>
	<g>
		<g>
			<g>
				<path class="st1" d="M130.98,69.23c-1.3-2.86-4.27-4.82-7.71-4.82h-6.92l-0.03-2.34h-0.14v-4.86c0-18.1-15.73-32.83-33.83-32.83
					h-9.17c-20.4,0-38,16.6-38,37v3.04H28.5c-3.43,0-6.4,1.95-7.71,4.82c-4.11,0.45-7.32,3.9-7.32,8.08v18.86
					c0,4.18,3.21,7.63,7.32,8.08c1.3,2.86,4.27,4.82,7.71,4.82h7.63c0.09,0,0.18-0.01,0.28-0.01c1.86,6.17,5.81,11.67,11.56,15.96
					c7.47,5.58,17.35,8.65,27.82,8.65c12.79,0,24.46-4.36,32.01-11.96c3.67-3.7,6.23-7.98,7.6-12.66c0.08,0,0.16,0.01,0.24,0.01
					h7.63c4.25,0,6.78-3.49,7.45-4.55l0.16-0.25c4.16-0.41,7.41-3.88,7.41-8.09V77.31C138.3,73.13,135.09,69.68,130.98,69.23z"/>
			</g>
			<g>
				<g>
					<path class="st2" d="M71,79.3"/>
				</g>
			</g>
			<g>
				<path class="st3" d="M110.15,68.32H41.43V81.2v19.48c0,15.89,15.96,26.73,34.36,26.73c19.12,0,34.63-10.86,34.54-26.73
					C110.61,100.68,110.15,68.32,110.15,68.32z"/>
			</g>
			<g>
				<g id="olho_94_">
					<g>
						<g>
							<path class="st1" d="M64.54,90.7c0.01,3.19-2.57,5.79-5.76,5.8c-3.19,0.01-5.79-2.57-5.8-5.76c-0.01-3.19,2.57-5.79,5.76-5.8
								C61.93,84.93,64.53,87.51,64.54,90.7z"/>
						</g>
					</g>
				</g>
				<g>
					<g>
						<g>
							<g>
								<circle class="st4" cx="59.9" cy="88.99" r="2.04"/>
							</g>
						</g>
					</g>
				</g>
			</g>
			<g>
				<g id="olho_93_">
					<g>
						<g>
							<path class="st1" d="M88.22,90.7c-0.01,3.19,2.57,5.79,5.76,5.8c3.19,0.01,5.79-2.57,5.8-5.76c0.01-3.19-2.57-5.79-5.76-5.8
								C90.83,84.93,88.24,87.51,88.22,90.7z"/>
						</g>
					</g>
				</g>
				<g>
					<g>
						<g>
							<g>
								<circle class="st4" cx="92.86" cy="88.99" r="2.04"/>
							</g>
						</g>
					</g>
				</g>
			</g>
			<g>
				<path class="st1" d="M27.83,75.25c-0.65,0-1.3-0.24-1.79-0.67c-1.2-1.04-1.27-1.1-1.05-18.38c0.23-18.14,16.1-36.37,35.37-40.64
					c2.47-0.55,15.68-3.13,33.05-0.02c17.25,3.08,32.57,21.58,32.79,39.6c0.09,7.67-0.13,16.36-0.13,16.44
					c-0.04,1.45-1.24,2.6-2.7,2.6c-0.02,0-0.05,0-0.07,0c-1.49-0.04-2.66-1.27-2.63-2.74c0-0.09,0.22-8.67,0.13-16.24
					c-0.19-15.39-13.7-31.78-28.35-34.4c-16.35-2.92-28.62-0.53-30.92-0.02c-16.97,3.76-30.95,19.68-31.15,35.49
					c-0.15,11.74-0.04,14.75,0.02,15.52c0.04,0.13,0.07,0.26,0.09,0.4c0.22,1.46-0.8,2.82-2.28,3.03
					C28.09,75.24,27.96,75.25,27.83,75.25z"/>
			</g>
			<g>
				<path class="st5" d="M35.09,102.82H28.5c-1.2,0-2.17-0.81-2.17-1.8V72.46c0-0.99,0.97-1.8,2.17-1.8h6.59
					c1.2,0,2.17,0.81,2.17,1.8v28.56C37.26,102.01,36.29,102.82,35.09,102.82z"/>
			</g>
			<g>
				<path class="st5" d="M19.72,77.31v18.86c0,1.04,0.89,1.88,1.99,1.88h4.87V75.43h-4.87C20.62,75.43,19.72,76.27,19.72,77.31z"/>
			</g>
			<g>
				<path class="st5" d="M116.68,102.82h6.59c1.2,0,2.17-0.81,2.17-1.8V72.46c0-0.99-0.97-1.8-2.17-1.8h-6.59
					c-1.2,0-2.17,0.81-2.17,1.8v28.56C114.51,102.01,115.48,102.82,116.68,102.82z"/>
			</g>
			<g>
				<path class="st5" d="M132.05,77.31v18.86c0,1.04-0.89,1.88-1.99,1.88h-4.87V75.43h4.87C131.16,75.43,132.05,76.27,132.05,77.31z
					"/>
			</g>
			<g>
				<path class="st6" d="M78.22,30.62h-5.12c-14.44,0-31.67,13.77-31.67,30.75v7.96l68.81,0.31v-5.88
					C110.24,42.53,95.83,30.62,78.22,30.62z"/>
			</g>
			<g>
				<g>
					<path class="st7" d="M80.43,84.42c-20.45-1.45-33.5-10.69-34.05-11.09l-3.94-2.83h57.7l2.04,8.46l-1.92,0.06
						c-1.05,0.04-2.09,0.05-3.11,0.05c-7.05,0-13.27-0.75-16.6-1.24l2.18,6.75L80.43,84.42z"/>
				</g>
				<g>
					<path class="st1" d="M98.91,72.06l1.3,5.4c-1.03,0.03-2.05,0.05-3.05,0.05c-10.25,0-18.88-1.64-18.88-1.64l2.25,6.98
						c-20.24-1.44-33.25-10.8-33.25-10.8H98.91 M101.37,68.94h-2.46H47.29h-9.69l7.87,5.66c0.56,0.4,13.97,9.89,34.85,11.38
						l4.62,0.33l-1.42-4.4l-0.71-2.19c3.58,0.45,8.71,0.92,14.35,0.92c1.07,0,2.13-0.02,3.16-0.05l3.83-0.13l-0.9-3.73l-1.3-5.4
						L101.37,68.94L101.37,68.94z"/>
				</g>
			</g>
			<g>
				<path class="st7" d="M82.88,61.33H67.99c-2.19,0-3.97-1.78-3.97-3.97v-0.33c0-2.19,1.78-3.97,3.97-3.97h14.89
					c2.19,0,3.97,1.78,3.97,3.97v0.33C86.85,59.55,85.07,61.33,82.88,61.33z"/>
				<path class="st1" d="M82.72,62.89H68.16c-3.14,0-5.69-2.55-5.69-5.69c0-3.14,2.55-5.69,5.69-5.69h14.56
					c3.14,0,5.69,2.55,5.69,5.69C88.41,60.34,85.86,62.89,82.72,62.89z M68.16,54.63c-1.42,0-2.57,1.15-2.57,2.57
					c0,1.42,1.15,2.57,2.57,2.57h14.56c1.42,0,2.57-1.15,2.57-2.57c0-1.42-1.15-2.57-2.57-2.57H68.16z"/>
			</g>
			<g>
				<path class="st8" d="M46.63,69.34v-7.96c0-16.98,12.23-30.75,26.67-30.75h-3.21c-14.44,0-28.67,13.77-28.67,30.75v7.96H46.63z"
					/>
			</g>
			<g>
				<path class="st8" d="M105.51,69.34v-7.96c0-16.98-9.73-30.75-26.67-30.75h3.21c16.19,0,28.67,13.77,28.67,30.75v7.96H105.51z"/>
			</g>
			<g>
				<line class="st5" x1="41.28" y1="69.65" x2="111.28" y2="69.65"/>
				<rect x="41.29" y="68.09" class="st1" width="69.99" height="3.12"/>
			</g>
			<g>
				<rect x="28.16" y="82.56" class="st9" width="9.1" height="11.13"/>
			</g>
			<g>
				<rect x="114.51" y="83.42" class="st9" width="9.1" height="11.13"/>
			</g>
			<g>
				<path class="st1" d="M27.18,72.3h-0.84l-1,3.12h1.08v22.62h-1.08l1,3.12h0.84c1.3,0,2.36-1.14,2.36-2.53V74.83
					C29.54,73.44,28.48,72.3,27.18,72.3z"/>
			</g>
			<g>
				<path class="st1" d="M124.6,72.3h1.89l5,3.12h-6.12v22.62h6.12l-5,3.12h-1.89c-1.3,0-2.36-1.14-2.36-2.53V74.83
					C122.24,73.44,123.29,72.3,124.6,72.3z"/>
			</g>
		</g>
		<path class="st1" d="M68.72,113.93l-0.53-3.36c-0.21-1.33-0.93-2.5-2.02-3.29c-1.1-0.79-2.43-1.11-3.74-0.9l-5.64,0.89
			c-1.34,0.21-2.52,0.95-3.3,2.05c-7.28-0.12-10.11-3.64-11-5.15l-1.98-3.39l-2.75,2.8c-0.17,0.17-0.37,0.33-0.6,0.48
			c-0.37,0.24-0.85,0.42-1.47,0.57l-3.91,0.91l1.98,3.49c1.76,3.1,7.23,10.3,20.09,10.3c0.27,0,0.56,0,0.85-0.01
			c0.92,0.85,2.14,1.33,3.4,1.33c0.26,0,0.53-0.02,0.79-0.06l5.64-0.89c1.33-0.21,2.5-0.93,3.29-2.01
			C68.61,116.6,68.93,115.26,68.72,113.93z"/>
		<path class="st5" d="M65.76,114.4l-0.53-3.36c-0.18-1.11-1.22-1.87-2.33-1.69l-5.64,0.89c-1.01,0.16-1.72,1.04-1.71,2.04
			c-10.37,0.59-14.43-4.5-15.65-6.6c-0.33,0.34-0.71,0.64-1.11,0.9c-0.73,0.47-1.56,0.77-2.42,0.97c1.55,2.74,6.25,8.78,17.48,8.78
			c0.75,0,1.53-0.04,2.33-0.09c0.3,0.94,1.24,1.54,2.25,1.38l5.64-0.89C65.18,116.55,65.93,115.51,65.76,114.4z"/>
		<g>
			<path class="st1" d="M76.55,109.3c-5.07,0-9.32-2.25-11.54-4.18c-0.87-0.75-0.96-2.07-0.21-2.94c0.75-0.87,2.06-0.96,2.93-0.21
				c0.35,0.29,8.44,7.03,17.54-0.07c0.91-0.71,2.22-0.55,2.92,0.36c0.71,0.91,0.54,2.22-0.36,2.92
				C83.96,108.22,80.06,109.3,76.55,109.3z"/>
		</g>
	</g>
</g>
</svg>
