<svg xmlns="http://www.w3.org/2000/svg" width="37.117" height="36.914"><path fill="#171556" d="M31.949 36.191c-2.7.235-5.391.414-8.087.567a77.091 77.091 0 0 1-8.087.082c-2.7-.135-5.391-.393-8.087-.4-.674-.016-1.348.005-2.022.006h-.759l-.32-.006a4.267 4.267 0 0 1-1.305-.259 4.657 4.657 0 0 1-2.128-1.585 4.578 4.578 0 0 1-.889-2.559c-.119-2.7-.266-5.392-.263-8.088-.019-2.7.06-5.391.166-8.087s.216-5.391.211-8.087q.012-1.01-.013-2.022c0-.169 0-.337-.013-.505l-.011-.253v-.328a4.8 4.8 0 0 1 .241-1.352 4.7 4.7 0 0 1 1.6-2.254A4.82 4.82 0 0 1 4.866.079c5.391-.251 10.783.115 16.174.252 2.7.07 5.391.047 8.087-.023L31.149.24l.506-.024.253-.012h.342a4.6 4.6 0 0 1 1.417.262 4.9 4.9 0 0 1 2.319 1.707 4.981 4.981 0 0 1 .967 2.783c.123 2.7.183 5.392.154 8.087-.053 2.7-.082 5.391-.186 8.087q-.121 4.044-.357 8.087l-.119 2.022-.036.505-.018.253-.031.321a4.209 4.209 0 0 1-.352 1.274 4.124 4.124 0 0 1-4.063 2.447Zm0-1.438a2.6 2.6 0 0 0 2.2-1.872 2.149 2.149 0 0 0 .079-.693l-.027-.437-.036-.505-.119-2.022q-.232-4.044-.357-8.087c-.1-2.7-.133-5.391-.186-8.087-.028-2.7.031-5.391.154-8.087a1.81 1.81 0 0 0-1.034-1.773 1.75 1.75 0 0 0-.549-.169c-.056 0-.082-.015-.162-.02l-.253-.012-.506-.024-2.022-.069c-2.7-.07-5.391-.093-8.087-.023-5.391.138-10.783.5-16.174.252a1.98 1.98 0 0 0-1.979 1.084 1.672 1.672 0 0 0-.189.615c-.005.06-.015.1-.02.177l-.011.253c-.009.168-.007.336-.012.505q-.024 1.011-.013 2.022c-.006 2.7.117 5.391.211 8.087s.185 5.392.166 8.087c0 2.7-.144 5.392-.263 8.088a2.167 2.167 0 0 0 1.3 2.119 2.115 2.115 0 0 0 .661.171c.063 0 .1.012.185.015h.759c.674 0 1.348.023 2.022.007 2.7-.008 5.391-.266 8.087-.4a76.942 76.942 0 0 1 8.087.082c2.7.153 5.391.331 8.087.567Z"/></svg>