<svg xmlns="http://www.w3.org/2000/svg" width="370.673" height="214.33"><g data-name="Grupo 5402"><path fill="#4520a0" d="m370.5 154.808-.283-28.9c-.108-9.632-.212-19.264-.366-28.9q-.425-28.9-.964-57.789l-.53-28.894a2.341 2.341 0 0 0-.715-1.819 3.7 3.7 0 0 0-1.414-.866 3.916 3.916 0 0 0-3.07-1.293h-12.601c-9.209 7.93-26.944 11-31.429 0h-20.159a22.635 22.635 0 0 1-9.073 6.794 17.655 17.655 0 0 1-11.076 1.2 9.621 9.621 0 0 1-7.547-7.995h-22.577a25.693 25.693 0 0 1-12.663 6.135c-6.879 1.216-12.867-1.358-15-6.135h-23.428c-2.963 3.843-7.957 6.442-14.15 6.773-6.022.321-11.529-2.608-13.394-6.773h-25a17.224 17.224 0 0 1-13.18 7.416 12.807 12.807 0 0 1-8.643-2.591A9.752 9.752 0 0 1 120 6.345H96.526a22.691 22.691 0 0 1-9.285 5.09c-6.994 2.05-15.083.248-17.667-5.09H45.949a15.727 15.727 0 0 1-5.879 5.02c-7.343 3.6-16.034.3-20.329-5.02h-4.705c-1.951 0-3.533 1.144-3.533 2.555v201.3a2.369 2.369 0 0 0 1.3 1.98 2.234 2.234 0 0 0 .119.247 3.335 3.335 0 0 0 1.758 1.4 4.652 4.652 0 0 0 1.268.286c.455.036.86.02 1.277.025l4.994.008 9.987.016 19.974.026 39.947.051 39.947.007 79.895-.013 79.9.1 39.948-.032 19.975-.035 9.987-.027 5-.025 1.25-.01c.416 0 .826 0 1.273-.017l.329-.009c.188-.046.044.091.5-.107a.652.652 0 0 0 .13-.312c.016-.079.029-.157.039-.234.043-.307.065-.609.088-.911.15-2.415.175-4.821.213-7.231l.056-7.225q.038-7.225.014-14.449-.04-14.453-.171-28.901Zm-.491 50.567c-.043 2.405-.073 4.816-.225 7.213-.023.3-.047.6-.087.89q-.016.11-.036.214a.249.249 0 0 1-.011.049c-.055.007-.116.016-.122 0h-.294c-.384.01-.807.012-1.223.014l-1.247.009-4.992.02-9.986.018-19.974.012h-39.946l-79.895.077-39.947-.024-39.948-.059-39.948-.038h-74.9c-.414 0-.844.01-1.217-.02a4.017 4.017 0 0 1-1.1-.246 3.053 3.053 0 0 1-1.4-1.012 4.651 4.651 0 0 0 1.527.255c36.946.028 351.724.257 353.447 0s-1.376-180.356-1.786-203.875a1.9 1.9 0 0 0-.115-.6 2.823 2.823 0 0 1 .618.473 2.158 2.158 0 0 1 .487.748 2.2 2.2 0 0 1 .119.845l.443 28.894.8 57.789.758 57.789q.159 14.447.249 28.895.036 7.223.028 14.446-.029 3.613-.076 7.225Z" data-name="Caminho 182"/><g data-name="Grupo 251"><path fill="#fff" d="m362.416 2.649-17.812-.057a7.215 7.215 0 0 1 .491 2.571c0 5.354-6 9.694-13.41 9.694s-13.411-4.34-13.411-9.694a7.209 7.209 0 0 1 .521-2.653l-24.329-.077a7.242 7.242 0 0 1 .548 2.73c0 5.354-6 9.694-13.411 9.694s-13.41-4.34-13.41-9.694a7.242 7.242 0 0 1 .578-2.812l-24.444-.077a7.253 7.253 0 0 1 .606 2.889c0 5.354-6 9.694-13.41 9.694s-13.411-4.34-13.411-9.694a7.263 7.263 0 0 1 .647-2.97l-24.593-.078a7.28 7.28 0 0 1 .686 3.048c0 5.354-6 9.694-13.411 9.694s-13.41-4.34-13.41-9.694a7.293 7.293 0 0 1 .727-3.128l-24.754-.079a7.3 7.3 0 0 1 .767 3.207c0 5.354-6 9.694-13.41 9.694s-13.411-4.34-13.411-9.694a7.312 7.312 0 0 1 .808-3.287l-24.915-.079a7.326 7.326 0 0 1 .848 3.366c0 5.354-6 9.694-13.41 9.694S67.87 10.517 67.87 5.163a7.353 7.353 0 0 1 .888-3.446l-25.075-.079a7.373 7.373 0 0 1 .928 3.525c0 5.354-6 9.694-13.411 9.694s-13.41-4.34-13.41-9.694a7.384 7.384 0 0 1 .968-3.6L1.531 1.505l4.215 206.23h360.45Z" data-name="Caminho 183"/><path fill="none" stroke="#171556" stroke-miterlimit="10" stroke-width="3" d="m362.416 2.649-17.812-.057a7.215 7.215 0 0 1 .491 2.571c0 5.354-6 9.694-13.41 9.694s-13.411-4.34-13.411-9.694a7.209 7.209 0 0 1 .521-2.653l-24.329-.077a7.242 7.242 0 0 1 .548 2.73c0 5.354-6 9.694-13.411 9.694s-13.41-4.34-13.41-9.694a7.242 7.242 0 0 1 .578-2.812l-24.444-.077a7.253 7.253 0 0 1 .606 2.889c0 5.354-6 9.694-13.41 9.694s-13.411-4.34-13.411-9.694a7.263 7.263 0 0 1 .647-2.97l-24.593-.078a7.28 7.28 0 0 1 .686 3.048c0 5.354-6 9.694-13.411 9.694s-13.41-4.34-13.41-9.694a7.293 7.293 0 0 1 .727-3.128l-24.754-.079a7.3 7.3 0 0 1 .767 3.207c0 5.354-6 9.694-13.41 9.694s-13.411-4.34-13.411-9.694a7.312 7.312 0 0 1 .808-3.287l-24.915-.079a7.326 7.326 0 0 1 .848 3.366c0 5.354-6 9.694-13.41 9.694S67.87 10.517 67.87 5.163a7.353 7.353 0 0 1 .888-3.446l-25.075-.079a7.373 7.373 0 0 1 .928 3.525c0 5.354-6 9.694-13.411 9.694s-13.41-4.34-13.41-9.694a7.384 7.384 0 0 1 .968-3.6L1.531 1.505l4.215 206.23h360.45Z" data-name="Caminho 184"/></g></g><g data-name="divisoria player"><g fill="#5e9afc" data-name="Grupo 254" opacity=".91"><path d="M45.653 60.082a.788.788 0 0 0-.734-.836q-6.279-.042-12.557.016c-4.233.042-8.466.135-12.7.215a.79.79 0 0 0-.724.872v.016a.781.781 0 0 0 .723.775c4.233.081 8.466.173 12.7.216q6.275.061 12.55.016a.785.785 0 0 0 .736-.809l.006-.481Z" data-name="Caminho 186" opacity=".4"/><path d="M80.016 59.25c-2.647.159-5.295.258-7.942.243q-3.971.018-7.942-.016-5.074-.046-10.147-.131a.782.782 0 0 0-.747.813v.272a.785.785 0 0 0 .746.838q5.076-.075 10.151-.131 3.971-.027 7.942-.015c2.647-.015 5.295.085 7.942.243q1.689.125 3.379.193a.775.775 0 0 0 .764-.757l.066-.851a.794.794 0 0 0-.764-.9q-1.725.074-3.448.199Z" data-name="Caminho 187" opacity=".4"/><path d="M235.715 60.213a1.12 1.12 0 0 0-1.107-1.121c-1.434-.015-2.868 0-4.3.056a1.162 1.162 0 0 0 0 2.323c1.433.09 2.869.07 4.3.056a1.12 1.12 0 0 0 1.107-1.121Z" data-name="Caminho 188" opacity=".4"/><path d="M337.535 59.658c-5.295.267-10.59.287-15.885.187s-10.59-.367-15.885-.55q-3.971-.145-7.942-.192a204.144 204.144 0 0 0-7.942.037c-5.3.141-10.59.489-15.885.485-5.295.02-10.59-.109-15.885-.278-1.972-.057-3.946-.115-5.919-.161a1.123 1.123 0 0 0-1.148 1.123 1.123 1.123 0 0 0 1.148 1.122 730.7 730.7 0 0 0 5.919-.161c5.295-.169 10.59-.3 15.885-.278 5.295 0 10.59.344 15.885.485 2.647.07 5.294.069 7.942.037s5.295-.1 7.942-.192c5.295-.184 10.59-.445 15.885-.55s10.59-.08 15.885.186l5.971.32q.066-.976.185-1.951Z" data-name="Caminho 189" opacity=".4"/><path d="m216.642 59.337-3.076.087-7.942.216c-5.295.165-10.59.272-15.885.265s-10.59-.08-15.885-.233l-15.885-.494a553.698 553.698 0 0 0-7.942-.174l-3.971-.043c-1.323-.009-2.647-.029-3.971.018-2.647.075-5.295.392-7.942.545s-5.295.1-7.942.07c-6.4-.1-12.807-.49-19.21-.611a.777.777 0 0 0-.749.757l-.077 1a.794.794 0 0 0 .749.9c6.429-.119 12.858-.513 19.287-.611 2.647-.029 5.295-.088 7.942.069s5.295.47 7.942.545c1.323.047 2.647.027 3.971.018l3.971-.043c2.647-.043 5.295-.093 7.942-.174l15.885-.494q7.942-.23 15.885-.233c5.295-.007 10.59.1 15.885.265l7.942.216 3.971.1c1.187.234 1.126-1.997-.895-1.961Z" data-name="Caminho 190" opacity=".4"/></g></g><g data-name="divisoria player"><g fill="#5e9afc" data-name="Grupo 254" opacity=".91"><path d="M45.653 128.082a.788.788 0 0 0-.734-.836q-6.279-.042-12.557.016c-4.233.042-8.466.135-12.7.215a.79.79 0 0 0-.724.872v.016a.781.781 0 0 0 .723.775c4.233.081 8.466.173 12.7.216q6.275.061 12.55.016a.785.785 0 0 0 .736-.809l.006-.481Z" data-name="Caminho 186" opacity=".4"/><path d="M80.016 127.25c-2.647.159-5.295.258-7.942.243q-3.971.018-7.942-.016-5.074-.046-10.147-.131a.782.782 0 0 0-.747.813v.272a.785.785 0 0 0 .746.838q5.076-.075 10.151-.131 3.971-.027 7.942-.015c2.647-.015 5.295.085 7.942.243q1.689.125 3.379.193a.775.775 0 0 0 .764-.757l.066-.851a.794.794 0 0 0-.764-.9q-1.725.074-3.448.199Z" data-name="Caminho 187" opacity=".4"/><path d="M235.715 128.213a1.12 1.12 0 0 0-1.107-1.121c-1.434-.015-2.868 0-4.3.056a1.162 1.162 0 0 0 0 2.323c1.433.09 2.869.07 4.3.056a1.12 1.12 0 0 0 1.107-1.121Z" data-name="Caminho 188" opacity=".4"/><path d="M337.535 127.658c-5.295.267-10.59.287-15.885.187s-10.59-.367-15.885-.55q-3.971-.145-7.942-.192a204.144 204.144 0 0 0-7.942.037c-5.3.141-10.59.489-15.885.485-5.295.02-10.59-.109-15.885-.278-1.972-.057-3.946-.115-5.919-.161a1.123 1.123 0 0 0-1.148 1.123 1.123 1.123 0 0 0 1.148 1.122 730.7 730.7 0 0 0 5.919-.161c5.295-.169 10.59-.3 15.885-.278 5.295 0 10.59.344 15.885.485 2.647.07 5.294.069 7.942.037s5.295-.1 7.942-.192c5.295-.184 10.59-.445 15.885-.55s10.59-.08 15.885.186l5.971.32q.066-.976.185-1.951Z" data-name="Caminho 189" opacity=".4"/><path d="m216.642 127.337-3.076.087-7.942.216c-5.295.165-10.59.272-15.885.265s-10.59-.08-15.885-.233l-15.885-.494a553.698 553.698 0 0 0-7.942-.174l-3.971-.043c-1.323-.009-2.647-.029-3.971.018-2.647.075-5.295.392-7.942.545s-5.295.1-7.942.07c-6.4-.1-12.807-.49-19.21-.611a.777.777 0 0 0-.749.757l-.077 1a.794.794 0 0 0 .749.9c6.429-.119 12.858-.513 19.287-.611 2.647-.029 5.295-.088 7.942.069s5.295.47 7.942.545c1.323.047 2.647.027 3.971.018l3.971-.043c2.647-.043 5.295-.093 7.942-.174l15.885-.494q7.942-.23 15.885-.233c5.295-.007 10.59.1 15.885.265l7.942.216 3.971.1c1.187.234 1.126-1.997-.895-1.961Z" data-name="Caminho 190" opacity=".4"/></g></g><g data-name="divisoria player"><g fill="#5e9afc" data-name="Grupo 254" opacity=".91"><path d="M45.653 161.082a.788.788 0 0 0-.734-.836q-6.279-.042-12.557.016c-4.233.042-8.466.135-12.7.215a.79.79 0 0 0-.724.872v.016a.781.781 0 0 0 .723.775c4.233.081 8.466.173 12.7.216q6.275.061 12.55.016a.785.785 0 0 0 .736-.809l.006-.481Z" data-name="Caminho 186" opacity=".4"/><path d="M80.016 160.25c-2.647.159-5.295.258-7.942.243q-3.971.018-7.942-.016-5.074-.046-10.147-.131a.782.782 0 0 0-.747.813v.272a.785.785 0 0 0 .746.838q5.076-.075 10.151-.131 3.971-.027 7.942-.015c2.647-.015 5.295.085 7.942.243q1.689.125 3.379.193a.775.775 0 0 0 .764-.757l.066-.851a.794.794 0 0 0-.764-.9q-1.725.074-3.448.199Z" data-name="Caminho 187" opacity=".4"/><path d="M235.715 161.213a1.12 1.12 0 0 0-1.107-1.121c-1.434-.015-2.868 0-4.3.056a1.162 1.162 0 0 0 0 2.323c1.433.09 2.869.07 4.3.056a1.12 1.12 0 0 0 1.107-1.121Z" data-name="Caminho 188" opacity=".4"/><path d="M337.535 160.658c-5.295.267-10.59.287-15.885.187s-10.59-.367-15.885-.55q-3.971-.145-7.942-.192a204.144 204.144 0 0 0-7.942.037c-5.3.141-10.59.489-15.885.485-5.295.02-10.59-.109-15.885-.278-1.972-.057-3.946-.115-5.919-.161a1.123 1.123 0 0 0-1.148 1.123 1.123 1.123 0 0 0 1.148 1.122 730.7 730.7 0 0 0 5.919-.161c5.295-.169 10.59-.3 15.885-.278 5.295 0 10.59.344 15.885.485 2.647.07 5.294.069 7.942.037s5.295-.1 7.942-.192c5.295-.184 10.59-.445 15.885-.55s10.59-.08 15.885.186l5.971.32q.066-.976.185-1.951Z" data-name="Caminho 189" opacity=".4"/><path d="m216.642 160.337-3.076.087-7.942.216c-5.295.165-10.59.272-15.885.265s-10.59-.08-15.885-.233l-15.885-.494a553.698 553.698 0 0 0-7.942-.174l-3.971-.043c-1.323-.009-2.647-.029-3.971.018-2.647.075-5.295.392-7.942.545s-5.295.1-7.942.07c-6.4-.1-12.807-.49-19.21-.611a.777.777 0 0 0-.749.757l-.077 1a.794.794 0 0 0 .749.9c6.429-.119 12.858-.513 19.287-.611 2.647-.029 5.295-.088 7.942.069s5.295.47 7.942.545c1.323.047 2.647.027 3.971.018l3.971-.043c2.647-.043 5.295-.093 7.942-.174l15.885-.494q7.942-.23 15.885-.233c5.295-.007 10.59.1 15.885.265l7.942.216 3.971.1c1.187.234 1.126-1.997-.895-1.961Z" data-name="Caminho 190" opacity=".4"/></g></g><g data-name="divisoria player"><g fill="#5e9afc" data-name="Grupo 254" opacity=".91"><path d="M45.653 94.082a.788.788 0 0 0-.734-.836q-6.279-.042-12.557.016c-4.233.042-8.466.135-12.7.215a.79.79 0 0 0-.724.872v.016a.781.781 0 0 0 .723.775c4.233.081 8.466.173 12.7.216q6.275.061 12.55.016a.785.785 0 0 0 .736-.809l.006-.481Z" data-name="Caminho 186" opacity=".4"/><path d="M80.016 93.25c-2.647.159-5.295.258-7.942.243q-3.971.018-7.942-.016-5.074-.046-10.147-.131a.782.782 0 0 0-.747.813v.272a.785.785 0 0 0 .746.838q5.076-.075 10.151-.131 3.971-.027 7.942-.015c2.647-.015 5.295.085 7.942.243q1.689.125 3.379.193a.775.775 0 0 0 .764-.757l.066-.851a.794.794 0 0 0-.764-.9q-1.725.074-3.448.199Z" data-name="Caminho 187" opacity=".4"/><path d="M212.503 94.213a1.12 1.12 0 0 0-1.107-1.121c-1.434-.015-2.868 0-4.3.056a1.162 1.162 0 0 0 0 2.323c1.433.09 2.869.07 4.3.056a1.12 1.12 0 0 0 1.107-1.121Z" data-name="Caminho 188" opacity=".4"/><path d="M302.403 93.658c-5.295.267-10.59.287-15.885.187s-10.59-.367-15.885-.55q-3.971-.145-7.942-.192a204.144 204.144 0 0 0-7.942.037c-5.3.141-10.59.489-15.885.485-5.295.02-10.59-.109-15.885-.278-1.972-.057-3.946-.115-5.919-.161a1.123 1.123 0 0 0-1.148 1.123 1.123 1.123 0 0 0 1.148 1.122 730.7 730.7 0 0 0 5.919-.161c5.295-.169 10.59-.3 15.885-.278 5.295 0 10.59.344 15.885.485 2.647.07 5.294.069 7.942.037s5.295-.1 7.942-.192c5.295-.184 10.59-.445 15.885-.55s10.59-.08 15.885.186l5.971.32q.066-.976.185-1.951Z" data-name="Caminho 189" opacity=".4"/><path d="m202.228 93.337-3.076.087-7.942.216c-5.295.165-10.59.272-15.885.265s-10.59-.08-15.885-.233l-15.885-.494a553.698 553.698 0 0 0-7.942-.174l-3.971-.043c-1.323-.009-2.647-.029-3.971.018-2.647.075-5.295.392-7.942.545s-5.295.1-7.942.07c-6.4-.1-12.807-.49-19.21-.611a.777.777 0 0 0-.749.757l-.077 1a.794.794 0 0 0 .749.9c6.429-.119 12.858-.513 19.287-.611 2.647-.029 5.295-.088 7.942.069s5.295.47 7.942.545c1.323.047 2.647.027 3.971.018l3.971-.043c2.647-.043 5.295-.093 7.942-.174l15.885-.494q7.942-.23 15.885-.233c5.295-.007 10.59.1 15.885.265l7.942.216 3.971.1c1.187.234 1.126-1.997-.895-1.961Z" data-name="Caminho 190" opacity=".4"/></g></g><g data-name="divisoria player"><g fill="#5e9afc" data-name="Grupo 254" opacity=".91"><path d="M45.653 193.082a.788.788 0 0 0-.734-.836q-6.279-.042-12.557.016c-4.233.042-8.466.135-12.7.215a.79.79 0 0 0-.724.872v.016a.781.781 0 0 0 .723.775c4.233.081 8.466.173 12.7.216q6.275.061 12.55.016a.785.785 0 0 0 .736-.809l.006-.481Z" data-name="Caminho 186" opacity=".4"/><path d="M80.016 192.25c-2.647.159-5.295.258-7.942.243q-3.971.018-7.942-.016-5.074-.046-10.147-.131a.782.782 0 0 0-.747.813v.272a.785.785 0 0 0 .746.838q5.076-.075 10.151-.131 3.971-.027 7.942-.015c2.647-.015 5.295.085 7.942.243q1.689.125 3.379.193a.775.775 0 0 0 .764-.757l.066-.851a.794.794 0 0 0-.764-.9q-1.725.074-3.448.199Z" data-name="Caminho 187" opacity=".4"/><path d="M212.503 193.213a1.12 1.12 0 0 0-1.107-1.121c-1.434-.015-2.868 0-4.3.056a1.162 1.162 0 0 0 0 2.323c1.433.09 2.869.07 4.3.056a1.12 1.12 0 0 0 1.107-1.121Z" data-name="Caminho 188" opacity=".4"/><path d="M302.403 192.658c-5.295.267-10.59.287-15.885.187s-10.59-.367-15.885-.55q-3.971-.145-7.942-.192a204.144 204.144 0 0 0-7.942.037c-5.3.141-10.59.489-15.885.485-5.295.02-10.59-.109-15.885-.278-1.972-.057-3.946-.115-5.919-.161a1.123 1.123 0 0 0-1.148 1.123 1.123 1.123 0 0 0 1.148 1.122 730.7 730.7 0 0 0 5.919-.161c5.295-.169 10.59-.3 15.885-.278 5.295 0 10.59.344 15.885.485 2.647.07 5.294.069 7.942.037s5.295-.1 7.942-.192c5.295-.184 10.59-.445 15.885-.55s10.59-.08 15.885.186l5.971.32q.066-.976.185-1.951Z" data-name="Caminho 189" opacity=".4"/><path d="m202.228 192.337-3.076.087-7.942.216c-5.295.165-10.59.272-15.885.265s-10.59-.08-15.885-.233l-15.885-.494a553.698 553.698 0 0 0-7.942-.174l-3.971-.043c-1.323-.009-2.647-.029-3.971.018-2.647.075-5.295.392-7.942.545s-5.295.1-7.942.07c-6.4-.1-12.807-.49-19.21-.611a.777.777 0 0 0-.749.757l-.077 1a.794.794 0 0 0 .749.9c6.429-.119 12.858-.513 19.287-.611 2.647-.029 5.295-.088 7.942.069s5.295.47 7.942.545c1.323.047 2.647.027 3.971.018l3.971-.043c2.647-.043 5.295-.093 7.942-.174l15.885-.494q7.942-.23 15.885-.233c5.295-.007 10.59.1 15.885.265l7.942.216 3.971.1c1.187.234 1.126-1.997-.895-1.961Z" data-name="Caminho 190" opacity=".4"/></g></g></svg>