<svg xmlns="http://www.w3.org/2000/svg" width="280.636" height="66.977"><path fill="#e8527d" d="M278.209 18.929a2.685 2.685 0 0 0-3.587 1.246c-1.747 3.606-3.342 5.288-5.027 8.925-.21.46-.43.916-.646 1.374.26-.9.524-1.806.779-2.711 1.061-3.867 2.159-5.723 3.12-9.615s1.846-7.8 2.68-11.727l.045-.208a2.681 2.681 0 0 0-5.159-1.426c-1.579 4.6-3.2 9.187-4.963 13.72-.134.339-.268.647-.4.965l.043-.219 2.029-10.606.491-2.71c.076-.47.147-.926.206-1.488a5.127 5.127 0 0 0 .031-.518 3.2 3.2 0 0 0-.024-.48 2.258 2.258 0 0 0-1.168-1.728 2.226 2.226 0 0 0-1.919-.057 2.377 2.377 0 0 0-.992.864c-.07.1-.134.211-.194.321a8.66 8.66 0 0 0-.211.426l-.547 1.278-.536 1.21-1.1 2.425q-1.209 2.6-2.462 5.181a150.495 150.495 0 0 0 1.977-5.628 2.826 2.826 0 0 0-5.138-2.283l-.067.119c-2.412 4.212-4.841 7.911-7.262 11.616l4.495-11.729a2.808 2.808 0 0 0-5.062-2.394l-.042.073-2.641 4.292c0-.162.008-.324.01-.487l-7.209 11.658 2.229-5.653 1.7-4.307c.279-.727.573-1.415.841-2.175a3.423 3.423 0 0 0-2.078-4.159 3.441 3.441 0 0 0-2.5.031 3.612 3.612 0 0 0-1.821 1.682l-1.221 1.968-2.989 4.839.455-1.26.835-2.306a3.735 3.735 0 0 0-6.652-3.3c-.445.795-.736 1.479-1.123 2.218-1.475 2.9-3.1 5.718-4.764 8.517-.74 1.221-1.469 2.467-2.229 3.661.725-1.471 1.442-2.942 2.183-4.411l2.306-4.646a4.343 4.343 0 0 0-6.485-5.451 4.918 4.918 0 0 0-.993 1.05l-.737 1.068-1.47 2.136-5.867 8.527-2.467 3.039c.242-.5.479-.992.705-1.49.974-2.1 2-4.169 3.064-6.224l1.619-3.071a14.2 14.2 0 0 0 .818-1.639 4.651 4.651 0 0 0 .262-1.97 4.786 4.786 0 0 0-5.644-4.331 4.932 4.932 0 0 0-3.2 2.166c-.687.941-1.359 1.9-2 2.873-1.28 1.948-2.55 3.9-3.755 5.886-.921 1.482-1.843 2.987-2.763 4.464.228-.44.452-.882.686-1.319.2-.4.386-.676.614-1.167a4.665 4.665 0 0 0-7.979-4.717c-.536.773-.927 1.451-1.4 2.182l-2.018 3.208.137-.3 1.224-2.666.612-1.333.33-.733a4.646 4.646 0 0 0 .237-.86 4.5 4.5 0 0 0-7.132-4.366 4.445 4.445 0 0 0-.657.606c-.193.212-.327.384-.494.578l-.946 1.14q-1.875 2.293-3.638 4.677c-1.087 1.453-2.113 2.952-3.127 4.447l1.6-4.426a4.154 4.154 0 0 0-.061-3.324 3.972 3.972 0 0 0-5.947-1.515 9.974 9.974 0 0 0-1.966 2.324c-2.067 3.1-4 6.223-5.983 9.334-.124.2-.248.393-.372.59.318-.66.631-1.314.96-1.952q.927-1.824 1.946-3.6t2.122-3.5l1.127-1.708.573-.836a4.617 4.617 0 0 0 .627-1.089 3.773 3.773 0 0 0-5.6-4.5 2.667 2.667 0 0 0-.327.244l-.054-.043-.586.705a163.57 163.57 0 0 0-4.128 5.167 196.567 196.567 0 0 0-3.945 5.344c-.808 1.128-1.578 2.249-2.376 3.339a97.667 97.667 0 0 1 1.913-3.554q1.6-2.829 3.386-5.553a11.6 11.6 0 0 0 .938-1.542 3.44 3.44 0 0 0-5.107-4.149 3.65 3.65 0 0 0-.773.705l-.538.621-2.155 2.486c-1.385 1.7-2.788 3.395-4.117 5.138l-2.246 2.892 1.958-3.449 1.65-2.907.413-.727.213-.379a3.668 3.668 0 0 0 .372-2.622A3.686 3.686 0 0 0 138.896.69a3.487 3.487 0 0 0-.911.579 3.732 3.732 0 0 0-.379.376l-.28.328a204.685 204.685 0 0 0-5.98 7.517c0-.054.009-.109.005-.164a3.668 3.668 0 0 0-6.382-2.219c-1.994 2.3-3.9 4.619-5.781 6.987l-2.782 3.564c-.931 1.2-1.808 2.41-2.758 3.523-.255.3-.528.595-.793.891 1.226-2.2 2.345-4.364 3.524-6.537l3.58-6.681.895-1.671a3.357 3.357 0 0 0 .446-2.266 3.267 3.267 0 0 0-3.424-2.715 3.222 3.222 0 0 0-2.121.987 9.99 9.99 0 0 0-.64.814l-.563.757q-1.134 1.512-2.3 3a256.283 256.283 0 0 1-4.78 5.874q-1.937 2.319-3.886 4.637c.51-.831 1.025-1.658 1.605-2.448l1.151-1.649.58-.816a4.247 4.247 0 0 0 .583-1 3.573 3.573 0 0 0-5.755-3.935c-.306.3-.491.545-.714.8l-.651.776-1.288 1.561q-1.281 1.567-2.528 3.162-2.494 3.186-4.865 6.467a70.05 70.05 0 0 1-5.194 6.1c-.8.883-1.571 1.795-2.308 2.741 1.061-1.522 2.208-2.981 3.413-4.432.965-1.184 1.922-2.39 2.8-3.66s1.672-2.562 2.506-3.839l4.958-7.673 1.24-1.919c.2-.318.425-.625.626-1.02a3.92 3.92 0 0 0-4.5-5.532 4.041 4.041 0 0 0-2.081 1.355l-2.973 3.489c-.983 1.169-2 2.311-2.958 3.5l-2.77 3.647c-.929 1.207-1.834 2.447-2.782 3.629l-1 1.24.059-.142c.407-.951.823-1.9 1.256-2.839q1.3-2.821 2.744-5.57.723-1.374 1.486-2.726l.766-1.341a3.11 3.11 0 0 0 .544-1.639A3 3 0 0 0 86.1 1.906l-.229.308a2.609 2.609 0 0 0-3.431.691q-4.766 6.518-9.636 12.882a53.779 53.779 0 0 1-5.747 6.136c.386-.543.772-1.109 1.159-1.738l3.66-5.873 1.847-2.943.927-1.494.471-.779.253-.436.145-.261c.087-.17.168-.344.241-.52a2.869 2.869 0 0 0-4.839-2.959l-.073.086L59.919 17.93a48.339 48.339 0 0 1-3.893 3.981c2.224-4.016 4.448-8.027 6.779-11.976l.148-.25a3.219 3.219 0 0 0-5.378-3.523c-3.212 4.4-6.567 8.7-10 12.938-3.034 3.748-6.162 5.865-9.332 9.147 3.817-5.486 7.773-10.3 11.8-16.251l.028-.041a3.058 3.058 0 0 0-4.915-3.63 175.288 175.288 0 0 1-12.391 13.412c.223-.387.445-.774.663-1.193 2.272-4.37 4.363-8.672 6.786-12.749l.225-.378a3.181 3.181 0 0 0-5.174-3.667c-2.447 2.919-4.927 5.817-7.547 8.6-2.6 2.807-5.331 5.491-8.131 8.129l-.186.129a342.497 342.497 0 0 0 8.521-11.617A2.949 2.949 0 0 0 23.7 4.969l-.08.062a800.03 800.03 0 0 0-8.383 6.606c.965-1.523 1.942-3.039 2.9-4.567l.1-.152a2.265 2.265 0 0 0-3.28-3.01q-3.211 2.408-6.4 4.841c.831-1.309 1.666-2.615 2.478-3.938a.546.546 0 0 0-.872-.649c-1.49 1.669-2.944 3.363-4.407 5.052s-2.892 3.4-4.328 5.111a1.471 1.471 0 0 0 1.889 2.205l.152-.092c1.347-.816 2.682-1.649 4.022-2.476q-3.5 4.86-6.949 9.756a2.9 2.9 0 0 0 .072 3.431c.876 1.14 2.433-.168 3.66-1.152l.43.4.05 1.224c2.545-1.952 5.059-3.941 7.58-5.923l-4.684 5.2c-1.732 2.591-3.406 5.216-5.1 7.824l-.034.05a1.924 1.924 0 0 0 3.017 2.363q3.918-4.176 8.08-8.119c2.287-2.17 4.617-2.954 7-4.57a49.307 49.307 0 0 0-1.75 2.307c-2.708 3.88-5.735 7.655-8.657 11.78a72.708 72.708 0 0 0-7.759 13.385l-.1.227a3.6 3.6 0 0 0 5.909 3.924l10.7-11.176q2.184-2.3 4.367-4.615c-.437.773-.892 1.537-1.321 2.315q-3.461 6.264-6.614 12.671l-.026.051a3.168 3.168 0 0 0 5.333 3.356c3.847-4.888 7.774-9.718 11.722-14.539-2.071 3.473-4.147 6.938-6.278 10.364l-.069.111a3.988 3.988 0 0 0 6.481 4.623L43.234 46.1c1.467-1.779 2.889-3.6 4.3-5.421-1.983 3.438-3.9 6.931-5.669 10.582a3.636 3.636 0 0 0 1.264 4.655l-.559.618a4.35 4.35 0 0 0 2.2.834 4.512 4.512 0 0 0 3.394-1.083l.459-.412.886-.813q1.767-1.635 3.463-3.346c.6-.6 1.168-1.225 1.751-1.839a95.942 95.942 0 0 1-2.509 4.13l-1.689 2.54a3.345 3.345 0 0 0 4.018 4.815 3.544 3.544 0 0 0 .89-.477l.612-.467q.6-.474 1.187-.977a31.815 31.815 0 0 0 4.233-4.444c1.271-1.611 2.382-3.283 3.5-4.937a92.342 92.342 0 0 1 1.989-2.866l-.923 1.7c-.8 1.528-1.619 3.027-2.386 4.6a15.332 15.332 0 0 0-1.059 2.552 3.729 3.729 0 0 0-.117.819 3.087 3.087 0 0 0 0 .407 2.261 2.261 0 0 0 .075.454 4.369 4.369 0 0 0 .271.827 3.32 3.32 0 0 0 .221.384l.129.18.069.087.04.048.026.029.005.006v.005l.007.007c-.027-.033.036.045 0 0a3.325 3.325 0 0 0 4.382.491c.363-.277.5-.426.738-.632l.651-.583 1.3-1.176q2.58-2.362 5.067-4.828c1.04-1.044 2.074-2.1 3.09-3.167-.987 1.533-2 3.052-3.046 4.541l-.544.765a6.11 6.11 0 0 0-.3.446 3.706 3.706 0 0 0-.281.551 4.028 4.028 0 0 0 5.62 5.1 3.845 3.845 0 0 0 .986-.743c.279-.291.438-.49.662-.739q1.252-1.427 2.47-2.885c3.24-3.889 6.321-7.9 9.289-11.973l3.015-4.1-2.223 4.74-3.274 6.879-1.637 3.439-.409.86a3.375 3.375 0 0 0-.349 1.278 3.328 3.328 0 0 0 5.75 2.5 10.483 10.483 0 0 0 .66-.864l.558-.772 1.115-1.543 4.461-6.174 1.53-2.106a58.74 58.74 0 0 1-2.583 3.812 60.57 60.57 0 0 1-1.756 2.26 3.419 3.419 0 0 0 1.2 5.253 9.818 9.818 0 0 0 .927.33 4.713 4.713 0 0 0 .987.08 4.489 4.489 0 0 0 1.827-.513 6.642 6.642 0 0 0 .729-.463 3.864 3.864 0 0 0 .639-.5 37.853 37.853 0 0 0 4.041-4.411c.179-.208.34-.426.513-.637-.191.476-.374.958-.544 1.454a5.063 5.063 0 0 0-.427 1.834 4.293 4.293 0 0 0 3.594 4.321 4.309 4.309 0 0 0 3.741-1.221 4.774 4.774 0 0 0 .612-.782l.414-.647.829-1.294q2.928-4.581 5.864-9.155c-.463 1.109-.921 2.221-1.387 3.328l-.556 1.338-.278.669a5.843 5.843 0 0 0-.278.738 4.173 4.173 0 0 0 .534 3.663 4.261 4.261 0 0 0 3.213 1.821 4.706 4.706 0 0 0 1.847-.256l.441-.177c.123-.066.244-.118.368-.2l.746-.517a9.928 9.928 0 0 0 1.134-1.146 13.167 13.167 0 0 0 .938-1.18c.6-.794 1.167-1.6 1.686-2.407l1.6-2.424-.35 1.059c-.17.529-.346 1.005-.51 1.579a4.541 4.541 0 0 0 6.485 5.226 4.469 4.469 0 0 0 1.581-1.367c.219-.315.341-.535.479-.767l.414-.7 1.658-2.8c2.229-3.714 4.377-7.493 6.673-11.154l1.861-3.023-2.262 6.309-2.726 7.6-.34.95-.173.481a3.9 3.9 0 0 0-.171.677 3.716 3.716 0 0 0 5.531 3.788 3.661 3.661 0 0 0 1.049-.906 10.653 10.653 0 0 0 .607-.945l1.046-1.73 2.092-3.459 4.185-6.919q1.674-2.688 3.337-5.4l-1.026 2.793c-1.569 3.938-3.26 7.822-5.152 11.6a5.735 5.735 0 0 0-.38.9 4.34 4.34 0 0 0-.166 1.049 4.091 4.091 0 0 0 .494 2.044 4.052 4.052 0 0 0 5.513 1.6 4 4 0 0 0 .852-.634 3.816 3.816 0 0 0 .354-.389c.108-.128.165-.222.25-.335l1.876-2.6 3.921-5.436-1.4 4.544a4.269 4.269 0 0 0 6.8 4.334 4.823 4.823 0 0 0 1.067-1.231l.748-1.126 4.463-6.735c-.01.034-.026.069-.035.1a4.595 4.595 0 0 0 5.961 5.643 6.314 6.314 0 0 0 1.437-.739 9.15 9.15 0 0 0 1.123-1.02c.65-.706 1.217-1.42 1.789-2.133 1.1-1.444 2.224-2.888 3.27-4.352.4-.547.789-1.1 1.187-1.647l-1.589 3.422-1.321 2.848-.991 2.136-.172.375a3.756 3.756 0 0 0-.179.485 3.561 3.561 0 0 0 5.049 4.148 3.519 3.519 0 0 0 .838-.6 4.332 4.332 0 0 0 .338-.37l.244-.308.973-1.238 1.947-2.474 3.894-4.949c1.285-1.6 2.537-3.231 3.777-4.87a138.34 138.34 0 0 0-1.754 4.715l-.919 2.719-.439 1.367c-.137.478-.285.819-.42 1.463a4.435 4.435 0 0 0 2.843 4.985c.055-.252.127-.5.191-.751a3.682 3.682 0 0 0 4.6-1.646l7.179-13.153 1.479-2.754-5.133 13.9a3.43 3.43 0 0 0 6.213 2.858l.034-.062q3.768-6.776 7.477-13.584l1.922-3.584-.093.233-5.475 13.168a3.43 3.43 0 0 0 6.12 3.062l.139-.235q3.695-6.247 7.121-12.643 3.261-6.043 6.419-12.146c-1.492 3.762-3.072 7.231-4.7 11.412-.061.126-.123.24-.184.367l-2.286 4.883-1.108 2.491-.545 1.3-.281.724-.165.484a4.646 4.646 0 0 0-.135.547 3.671 3.671 0 0 0-.05.391c.191.759-.491-.286.6 2.152.97 2.038 5.257 1.05 4.387.863a3.043 3.043 0 0 0 .615-.492 4.066 4.066 0 0 0 .437-.526l.169-.246c.092-.136.166-.274.245-.412.15-.274.327-.583.421-.8.232-.483.442-.946.62-1.383.378-.894.707-1.756 1.029-2.62q.449-1.238.866-2.468l.988-2.217q4.341-9.773 8.535-19.659c.405-.955.812-1.859 1.222-2.74-1.317 3.74-2.6 7.279-3.738 11.655-1.824 6.9-3.554 13.836-5.244 20.771l-.041.166a3.262 3.262 0 0 0 6.243 1.858l1.061-2.961c.235.332.712.937 1.636 2.048a2.082 2.082 0 0 0 2.14-.626 2.044 2.044 0 0 0 .157-.18l.055-.071.076-.106.09-.132a4.9 4.9 0 0 0 .269-.458c.084-.157.184-.337.25-.478l.176-.4c.125-.267.231-.525.325-.767.206-.5.391-.987.57-1.471l.035-.1.609-1.284q2.527-5.2 5.161-10.372c-.495 1.749-1 3.495-1.478 5.249-.885 3.19-1.7 6.4-2.557 9.6l-.036.133a2.411 2.411 0 0 0 4.29 2.02q3.749-5.215 7.4-10.509c-.449 2.8-.872 5.6-1.25 8.412a.49.49 0 0 0 .95.22c1.68-5.038 3.208-10.113 4.685-15.2a1.6 1.6 0 0 0-2.757-1.481l-.114.134c-1.543 1.828-3.068 3.67-4.594 5.51.71-2.26 1.422-4.52 2.108-6.786q1.438-4.752 2.81-9.525c.92-3.18 1.882-4.347 2.7-7.558l.047-.182a2.683 2.683 0 0 0-1.437-3.07ZM267.293 4.902c-.002.004.002-.007 0 0Zm-11.3 51.189.026-.073c.015.055.006.077-.028.077Zm4.149.862.012-.03v.013c-.014.029-.02.033-.014.017Zm.192-.454.043-.1c.065.127.026.132-.045.096Z" data-name="Caminho 5649"/><path fill="#171556" d="m274.925 65.11.017.065a.771.771 0 0 0 .527.411 1.969 1.969 0 0 0 .538.093c.08-.1.164-.209.255-.312a13.4 13.4 0 0 0 3.129-7.215 62.418 62.418 0 0 0-4.476 2.02l-1.1.553 1.564-1.835a.257.257 0 0 0 .078-.237.685.685 0 0 0-.425-.375 2.289 2.289 0 0 0-1.682.012l-8.925 4 3.722-4a.293.293 0 0 0 .094-.245.625.625 0 0 0-.37-.359 2.308 2.308 0 0 0-1.658-.048 128.177 128.177 0 0 0-9.607 4.09l-1.216.58 2.072-2.184a.287.287 0 0 0 .1-.247.611.611 0 0 0-.367-.359 2.3 2.3 0 0 0-1.663-.05l-8.336 3.175.712-.778a13.459 13.459 0 0 0 1.811-2.471.226.226 0 0 0 .023-.188.692.692 0 0 0-.4-.343 2.305 2.305 0 0 0-1.5-.076c-2.705.8-5.363 1.693-7.9 2.643l-.954.357.679-.758a12.812 12.812 0 0 0 1.63-2.248.227.227 0 0 0 .023-.187.676.676 0 0 0-.38-.338 2.305 2.305 0 0 0-1.48-.092 78.578 78.578 0 0 0-6.878 2.232l-1.516.573 1.872-1.475a.381.381 0 0 0 .175-.291c-.009-.114-.114-.237-.291-.339a2.246 2.246 0 0 0-1.69-.11c-2.55.879-5.059 1.813-7.455 2.778l-.97.392.688-.789a21.689 21.689 0 0 0 1.618-2.08.235.235 0 0 0 .044-.209.7.7 0 0 0-.412-.358 2.333 2.333 0 0 0-1.593-.034 129.532 129.532 0 0 0-8.318 3.378l-1.359.607 3.438-3.227a.334.334 0 0 0 .126-.26.53.53 0 0 0-.3-.336 2.25 2.25 0 0 0-1.615-.123 73.938 73.938 0 0 0-5.362 1.849l-1.327.515 2.459-2.153a.348.348 0 0 0 .145-.273.528.528 0 0 0-.3-.339 2.239 2.239 0 0 0-1.659-.109 132.89 132.89 0 0 0-7.335 2.681l-.849.34.558-.725a10.272 10.272 0 0 0 .718-1.06.232.232 0 0 0 .027-.2.72.72 0 0 0-.434-.351 2.3 2.3 0 0 0-1.555-.035l-9.494 3.335.956-.847a18.614 18.614 0 0 0 2.425-2.572.251.251 0 0 0 .059-.221.67.67 0 0 0-.4-.361 2.284 2.284 0 0 0-1.62-.033 187.12 187.12 0 0 0-6.288 2.514l-1.725.728 2.393-1.876a.4.4 0 0 0 .178-.288.466.466 0 0 0-.255-.321 2.233 2.233 0 0 0-1.628-.163c-1.242.35-2.485.729-3.694 1.125l-1.441.473 1.213-.91a.413.413 0 0 0 .19-.3.464.464 0 0 0-.253-.323 2.22 2.22 0 0 0-1.724-.134 162.012 162.012 0 0 0-6.529 2.378l-1.824.709 2.859-2.064a.408.408 0 0 0 .206-.3.422.422 0 0 0-.216-.3 2.148 2.148 0 0 0-1.591-.207 67.78 67.78 0 0 0-5.694 1.628l-1.1.369.854-.79a33.226 33.226 0 0 0 1.868-1.867.285.285 0 0 0 .093-.241c-.021-.121-.146-.247-.343-.347a2.265 2.265 0 0 0-1.614-.086 78.195 78.195 0 0 0-7.094 2.724l-.9.4.6-.782a19.07 19.07 0 0 0 1.019-1.445.237.237 0 0 0 .035-.2.7.7 0 0 0-.41-.355 2.318 2.318 0 0 0-1.565-.043 60.568 60.568 0 0 0-5.864 2.369l-1.012.473.713-.859a52.409 52.409 0 0 0 1.556-1.971.25.25 0 0 0 .058-.218.67.67 0 0 0-.393-.356 2.318 2.318 0 0 0-1.6-.05 64.537 64.537 0 0 0-7.768 3.313l-.6.3.254-.623c.084-.2.168-.409.236-.616.058-.187-.166-.408-.549-.535a2.275 2.275 0 0 0-1.525.047 84.12 84.12 0 0 0-5.669 2.647l-1.128.581 2.271-2.662a.256.256 0 0 0 .077-.237.68.68 0 0 0-.424-.373 2.3 2.3 0 0 0-1.683.01l-8.924 4 3.722-4a.289.289 0 0 0 .094-.246c-.023-.124-.162-.257-.37-.357a2.3 2.3 0 0 0-1.657-.049 128.029 128.029 0 0 0-9.606 4.09l-1.219.581 2.076-2.184a.289.289 0 0 0 .1-.248.613.613 0 0 0-.367-.358 2.29 2.29 0 0 0-1.661-.051l-8.335 3.175.71-.777a13.557 13.557 0 0 0 1.812-2.471.222.222 0 0 0 .023-.188.693.693 0 0 0-.4-.344 2.3 2.3 0 0 0-1.5-.076c-2.706.806-5.364 1.7-7.9 2.643l-.953.357.68-.758a12.8 12.8 0 0 0 1.629-2.247.23.23 0 0 0 .023-.188.684.684 0 0 0-.379-.338 2.312 2.312 0 0 0-1.48-.091 76.623 76.623 0 0 0-6.879 2.231l-1.52.575 1.877-1.477a.381.381 0 0 0 .175-.291c-.008-.114-.114-.237-.291-.338a2.235 2.235 0 0 0-1.689-.111c-2.56.88-5.069 1.815-7.457 2.778l-.974.393.693-.79a21.962 21.962 0 0 0 1.618-2.079.247.247 0 0 0 .044-.21.706.706 0 0 0-.413-.358 2.315 2.315 0 0 0-1.591-.034c-2.9 1.064-5.7 2.2-8.321 3.379l-1.362.612 3.44-3.233a.327.327 0 0 0 .126-.259.525.525 0 0 0-.3-.334 2.235 2.235 0 0 0-1.617-.125 75.228 75.228 0 0 0-5.361 1.848l-1.326.515 2.461-2.152a.344.344 0 0 0 .143-.272.525.525 0 0 0-.3-.341 2.263 2.263 0 0 0-1.659-.108c-2.521.84-4.989 1.741-7.335 2.681l-.846.337.555-.722a10.277 10.277 0 0 0 .718-1.06.222.222 0 0 0 .026-.2.711.711 0 0 0-.424-.356 2.286 2.286 0 0 0-1.556-.037l-9.5 3.336.959-.847a18.446 18.446 0 0 0 2.426-2.564.252.252 0 0 0 .06-.22.672.672 0 0 0-.4-.362 2.3 2.3 0 0 0-1.619-.033c-2.134.809-4.25 1.654-6.287 2.514l-1.731.729 2.4-1.877a.4.4 0 0 0 .177-.288.47.47 0 0 0-.254-.32 2.208 2.208 0 0 0-1.628-.163 90.295 90.295 0 0 0-3.692 1.125l-1.436.471 1.207-.909a.411.411 0 0 0 .19-.3.471.471 0 0 0-.253-.323 2.234 2.234 0 0 0-1.724-.135 161.35 161.35 0 0 0-6.527 2.378l-1.833.714 2.869-2.067a.412.412 0 0 0 .2-.3.42.42 0 0 0-.215-.3 2.173 2.173 0 0 0-1.593-.208 68.428 68.428 0 0 0-5.694 1.63l-1.107.37.858-.791a32.591 32.591 0 0 0 1.869-1.867.286.286 0 0 0 .093-.241.586.586 0 0 0-.344-.348 2.268 2.268 0 0 0-1.615-.086 78.678 78.678 0 0 0-7.094 2.725l-.9.4.606-.783c.366-.472.708-.958 1.018-1.445a.241.241 0 0 0 .036-.2.7.7 0 0 0-.411-.356 2.3 2.3 0 0 0-1.565-.043 60.086 60.086 0 0 0-5.865 2.368l-1.012.474.713-.859a53.205 53.205 0 0 0 1.557-1.971.255.255 0 0 0 .058-.218.659.659 0 0 0-.392-.356 2.312 2.312 0 0 0-1.6-.05 61.722 61.722 0 0 0-10.055 4.542c-.186.107-.292.238-.289.357s.127.266.334.373l.029.016a2.233 2.233 0 0 0 1.866-.046 52.621 52.621 0 0 1 5.125-2.57l1.006-.44-.716.832a63.872 63.872 0 0 1-4.6 4.794.3.3 0 0 0-.123.278c.027.124.182.3.537.422a2.118 2.118 0 0 0 1.814-.2 37.791 37.791 0 0 1 8.785-5.166l1.071-.462-.787.86a29.5 29.5 0 0 1-4.874 4.21l-.041.081h-.071a.354.354 0 0 0-.155.283c.015.142.174.292.426.4a2.189 2.189 0 0 0 1.877-.116 51.8 51.8 0 0 1 9.683-5.19l1.519-.627-1.263 1.051a48.106 48.106 0 0 1-4.826 3.511.427.427 0 0 0-.249.339c.007.131.144.274.365.382a2.253 2.253 0 0 0 1.875-.047 42.507 42.507 0 0 1 7.63-3.453l1.6-.552-5.565 4.012c-.081.058-.216.175-.206.313s.135.26.337.365a2.25 2.25 0 0 0 1.8.02 135.949 135.949 0 0 1 6.473-2.854l.232.441-1.978 1.3c-.092.06-.247.184-.238.333.007.129.14.269.354.377a2.217 2.217 0 0 0 1.856-.027 59.5 59.5 0 0 1 8.368-3.761l1.474-.536-4.671 3.661a.366.366 0 0 0-.177.3c.013.129.151.268.367.373a2.27 2.27 0 0 0 1.791-.007 158.746 158.746 0 0 1 9.314-4.226l1.688-.7-1.444 1.128a30.758 30.758 0 0 1-4.636 2.98c-.2.107-.318.238-.325.362-.008.14.133.26.218.32a2.194 2.194 0 0 0 1.773.152l13.019-4.573-.9.824a20.484 20.484 0 0 1-4.242 2.941c-.2.108-.32.243-.322.368s.1.248.289.355a2.254 2.254 0 0 0 1.882.033c2.98-1.5 6.178-2.917 9.5-4.2l1.315-.507-4.222 3.7a.335.335 0 0 0-.142.283c.023.142.186.289.437.4a2.24 2.24 0 0 0 1.8-.082 50.545 50.545 0 0 1 7.338-3.519l1.2-.465-5.109 4.798a.3.3 0 0 0-.124.27c.025.14.187.286.433.389a2.223 2.223 0 0 0 .833.152 2.29 2.29 0 0 0 .958-.2 105.066 105.066 0 0 1 10.737-5.088l1.084-.442-.809.847a30.235 30.235 0 0 1-3.223 2.9.373.373 0 0 0-.177.3c.013.127.145.263.354.368a2.276 2.276 0 0 0 1.776.016 128.048 128.048 0 0 1 6.8-2.923l1.606-.638-4.581 3.6a.366.366 0 0 0-.174.3c.018.143.179.291.429.4a2.224 2.224 0 0 0 1.838-.1 54.411 54.411 0 0 1 12.017-5.461l.9-.29-.636.7a21.636 21.636 0 0 1-5.568 4.258c-.192.108-.3.239-.3.36s.1.248.288.355a2.226 2.226 0 0 0 1.86.043 99.843 99.843 0 0 1 11.846-4.747l.9-.3-.632.7a20.523 20.523 0 0 1-4.3 3.534.445.445 0 0 0-.248.332c0 .111.1.235.268.337a2.27 2.27 0 0 0 1.765.106l9.892-3.77-3.25 3.426a.282.282 0 0 0-.1.255c.031.144.205.291.464.394a2.257 2.257 0 0 0 1.753-.084 105.758 105.758 0 0 1 10.681-5.276l1.087-.466-4.047 4.353a.28.28 0 0 0-.094.249c.027.133.18.272.409.373a2.282 2.282 0 0 0 1.7 0l9.253-4.15-3.415 4a.251.251 0 0 0-.075.245c.034.121.191.292.534.409a2.2 2.2 0 0 0 1.751-.152 64.623 64.623 0 0 1 8.185-4.65l.851-.407-.537.775a15.566 15.566 0 0 1-3.294 3.388.365.365 0 0 0-.176.309c.022.149.206.307.479.413l.039.014a2.156 2.156 0 0 0 1.82-.18 16.561 16.561 0 0 0 3.179-3.146l.085-.113.142.014a2.111 2.111 0 0 0 1.231-.194 52.65 52.65 0 0 1 5.127-2.57l1-.439-.714.831a63.173 63.173 0 0 1-4.606 4.794.3.3 0 0 0-.122.28c.027.124.182.3.536.422a2.127 2.127 0 0 0 1.817-.2 37.753 37.753 0 0 1 8.785-5.165l1.072-.463-.789.862a29.671 29.671 0 0 1-4.925 4.246l-.028.018a.391.391 0 0 0-.187.308c.015.143.174.292.426.4a2.185 2.185 0 0 0 1.877-.115 51.858 51.858 0 0 1 9.687-5.189l1.528-.624-1.263 1.051a47.5 47.5 0 0 1-4.826 3.509c-.164.105-.255.228-.248.339.007.132.144.275.365.383a2.257 2.257 0 0 0 1.875-.047 42.543 42.543 0 0 1 7.631-3.453l1.6-.553-5.565 4.013c-.081.058-.216.176-.206.313s.136.26.338.366a2.246 2.246 0 0 0 1.8.019 136.178 136.178 0 0 1 6.474-2.852l.231.44-1.976 1.294a.413.413 0 0 0-.24.335c.007.129.14.269.354.376a2.228 2.228 0 0 0 1.856-.025 59.454 59.454 0 0 1 8.368-3.763l1.476-.536-4.675 3.661a.369.369 0 0 0-.176.3c.014.129.152.267.368.372a2.268 2.268 0 0 0 1.792-.007 159.134 159.134 0 0 1 9.313-4.225l1.691-.7-1.441 1.132a30.863 30.863 0 0 1-4.636 2.98c-.2.106-.319.238-.326.362-.009.14.133.26.218.318a2.171 2.171 0 0 0 1.772.154l13.021-4.573-.9.825a20.6 20.6 0 0 1-4.241 2.94c-.2.108-.32.242-.323.368s.1.249.29.356a2.243 2.243 0 0 0 1.882.031c2.977-1.5 6.176-2.916 9.5-4.2l1.314-.506-4.221 3.694a.327.327 0 0 0-.142.284c.021.142.185.288.435.394a2.249 2.249 0 0 0 1.8-.08 50.4 50.4 0 0 1 7.337-3.521l1.2-.466-5.11 4.8a.3.3 0 0 0-.124.272c.024.139.186.284.433.387a2.169 2.169 0 0 0 .827.154h.026a2.059 2.059 0 0 0 .935-.205 104.6 104.6 0 0 1 10.737-5.081l1.083-.442-.808.846a30.314 30.314 0 0 1-3.221 2.9.371.371 0 0 0-.178.3c.013.126.144.264.352.367a2.283 2.283 0 0 0 1.777.016 130.59 130.59 0 0 1 6.8-2.923l1.6-.638-4.581 3.6a.368.368 0 0 0-.175.3c.019.141.18.29.43.4a2.214 2.214 0 0 0 1.837-.1 54.448 54.448 0 0 1 12.017-5.46l.9-.29-.636.7a21.679 21.679 0 0 1-5.567 4.259c-.193.107-.3.238-.3.359s.1.248.289.355a2.226 2.226 0 0 0 1.86.043 100.049 100.049 0 0 1 11.844-4.747l.9-.3-.633.7a20.594 20.594 0 0 1-4.287 3.538.44.44 0 0 0-.248.331.476.476 0 0 0 .268.338 2.269 2.269 0 0 0 1.763.1l9.9-3.769-3.257 3.415a.277.277 0 0 0-.1.255c.032.145.206.292.466.394a2.248 2.248 0 0 0 1.753-.083 105.578 105.578 0 0 1 10.682-5.276l1.088-.464-4.054 4.362a.275.275 0 0 0-.093.247c.027.133.18.273.41.374a2.272 2.272 0 0 0 1.7 0l9.26-4.15-3.412 4a.242.242 0 0 0-.075.245c.032.121.189.292.532.409a2.209 2.209 0 0 0 1.752-.152 64.555 64.555 0 0 1 8.185-4.65l.852-.407-.538.775a15.552 15.552 0 0 1-3.3 3.388.405.405 0 0 0-.174.26.326.326 0 0 0 .112.236Z" data-name="Caminho 5616"/><path fill="#171556" d="M280.625 9.12a9.193 9.193 0 0 0-2.039-5.145 10 10 0 0 0-4.62-3 29.7 29.7 0 0 0-9.139-.933q-8.469.03-16.937.2l-16.937.442c-5.646.16-11.292.3-16.938.386l-8.469.081-8.469-.007c-5.646.021-11.291-.055-16.936-.125l-16.937-.21-16.939-.041-16.938.17-16.939.311c-5.646.115-11.293.215-16.939.261l-8.469.1-8.468-.011c-11.291-.07-22.58-.323-33.873-.212-11.292.162-22.587.545-33.884.974v.112a8.109 8.109 0 0 0-4.612 1.086 7.922 7.922 0 0 0-3.014 3.749 15.848 15.848 0 0 0-1.058 4.49 27.123 27.123 0 0 0-.108 3.2l-.2-.005-.017 1.222c-.084 6.333-.278 10.7-.431 17.054-.092 3.179-.118 6.361-.162 9.546l-.031 4.787.018 2.413c.006.4.01.806.033 1.237l.029.635c.014.155.036.326.064.5a33 33 0 0 0-.105 3.953 15.911 15.911 0 0 0 .707 4.313 7.9 7.9 0 0 0 2.807 4.033 7.068 7.068 0 0 0 2.961 1.217v.162l1.759-.009c5.462-.027 10.924 0 16.386-.071l16.386-.223c5.462-.081 10.924-.16 16.386-.159 5.462-.027 10.924-.056 16.387.026l8.193.079 8.193.161 16.386.33q16.385.312 32.773.11c10.924-.154 21.848-.4 32.772-.5 10.924-.082 21.849-.009 32.773.28 10.924.238 21.848.563 32.772.568q8.193.018 16.387-.111l16.386-.343 1.941-.041v-.189a7.283 7.283 0 0 0 2.684-1.106 7.532 7.532 0 0 0 2.821-3.937 23.53 23.53 0 0 0 .724-8.129c-.159-4.971-.011-10.08.035-15.114.082-5.051.222-8.1.393-13.155l.467-15.156v-.064Zm-4.16 43.766a19.982 19.982 0 0 1-.726 6.871 3.961 3.961 0 0 1-1.564 2.076 4.984 4.984 0 0 1-2.569.56h-.041l-16.37-.343q-8.193-.128-16.387-.11c-10.924.005-21.848.329-32.772.567-10.924.29-21.849.362-32.773.28-10.924-.1-21.848-.348-32.772-.5q-16.389-.187-32.773.11l-16.386.33-8.193.16-8.193.079c-5.463.083-10.925.053-16.387.027-5.462 0-10.924-.078-16.386-.16l-16.386-.222c-5.455-.068-10.909-.045-16.364-.071h-.047a4.785 4.785 0 0 1-2.655-.71 4.42 4.42 0 0 1-1.579-2.278 12.511 12.511 0 0 1-.593-3.377 30.454 30.454 0 0 1 .047-3.7l-.077-.639a.466.466 0 0 0-.007-.2l-.032-.556c-.026-.362-.037-.754-.049-1.145l-.055-2.355-.044-4.751-.031-9.528c-.046-5.972-.062-9.939-.162-15.93l.333-.008-.123-1.241a27.217 27.217 0 0 1-.121-4.147 13.821 13.821 0 0 1 .727-3.947 6.092 6.092 0 0 1 2.16-3 5.784 5.784 0 0 1 2.663-.976l.964.032c11.289.369 22.578.692 33.87.794 11.293.051 22.588-.263 33.882-.392l8.47-.056 8.47.049c5.646.017 11.292.086 16.938.171l16.938.221 16.939.08 16.941-.131 16.94-.3c5.646-.1 11.294-.207 16.94-.216l8.47-.051 8.47.035c5.646.051 11.292.166 16.939.3l16.939.352q8.472.135 16.941.112c1.433-.009 2.791-.033 4.073.047a16.655 16.655 0 0 1 3.585.556 4.474 4.474 0 0 1 3.557 3.953l.255 14.955c.1 5.05.17 8.1.182 13.15l-.016 7.555c-.012 2.527-.103 5.052-.003 7.618Z" data-name="Caminho 5617"/><path fill="#171556" d="M277.225 50.268v.926c-.005.2.008.458-.005.607 0 .165-.015.329-.035.493a4.714 4.714 0 0 1-.222.96 4.807 4.807 0 0 1-4.538 3.241c-54.626.2-48.291-.515-102.92-.739-27.31-.128-67.744 1.438-95.056 1.738l-20.284-1-5.121.055-40.335-.8a4.068 4.068 0 0 1-1.639-.335 4.167 4.167 0 0 1-2.256-2.417 4.484 4.484 0 0 1-.2-.83c-.021-.142-.019-.286-.035-.43-.01-.167-.01-.415-.01-.615l-.005-.518a5.469 5.469 0 0 1-1.771.553 50.116 50.116 0 0 0 .761 7.413v-.466a8.159 8.159 0 0 0 5.107 1.894l2.585.031 5.121.055 5.637.061a5.114 5.114 0 0 1 4.449.048h.157c27.309.3 54.626.485 81.938.357 54.626-.223 109.248-1.494 163.877-1.294a7.6 7.6 0 0 0 4.8-1.714 13.826 13.826 0 0 0 1.709-5.959c.04-.542.046-1.086.068-1.629a4.176 4.176 0 0 1-1.777.314Z" data-name="Caminho 5618"/></svg>