<svg xmlns="http://www.w3.org/2000/svg" width="281.291" height="66.045"><g fill="#f46091" data-name="Grupo 8136"><path d="M261.896 59.809c-.052.119-.109.245-.175.382 1.095.617.908.275.175-.382Z" data-name="Caminho 5645"/><path d="M279.59 41.871a1.832 1.832 0 0 0-2.556.423l-.034.047-4.891 6.833 2.233-7.472 5.85-17.764a2.635 2.635 0 0 0-4.876-1.941l-.021.042-5.351 9.559q.313-1.212.628-2.423c2.091-8.1 4.089-14.205 6.063-22.334a3.162 3.162 0 0 0-5.989-1.967v.005l-4.02 8.917q.638-2.4 1.256-4.813l.677-2.785c.11-.484.218-.941.318-1.527.025-.151.052-.3.078-.6a3.363 3.363 0 0 0 .009-.376 2.5 2.5 0 0 0-.053-.481c-.45-.425.738-.529-1.993-2.109a2.661 2.661 0 0 0-.524-.056l.166-.194a2.9 2.9 0 0 0-2.587 1.118 15.623 15.623 0 0 0-1.344 2.88l-.458 1.125c.144-.168.287-.336.431-.5a237.36 237.36 0 0 1-1.3 3.149c-.3.719-.608 1.4-.914 2.084.259-.864.519-1.713.779-2.591a2.645 2.645 0 0 0 .085-1.068l.173-.2a2.862 2.862 0 0 0-5.147-1.157c-.606 1.017-1.1 2-1.65 3l-4.928 9.1 2.534-6.834 1.832-4.939a3.613 3.613 0 0 0-6.01-3.763 5.163 5.163 0 0 0-.765 1.155l-2.537 4.615-3.337 6.072 1.434-4.242.646-1.913.322-.967a4.043 4.043 0 0 0 .172-1.086 4.112 4.112 0 0 0-7.765-1.96l-.963 1.774-1.936 3.57.575-1.828a3.728 3.728 0 0 0-6.321-3.567 4.321 4.321 0 0 0-.83 1.389l-.581 1.357q-1.179 2.709-2.468 5.368t-2.69 5.261a53.971 53.971 0 0 1-2.977 5.067c-1.1 1.616-2.322 3.158-3.515 4.745-.037.048-.07.1-.106.148 1.408-3 2.85-5.993 4.268-9a249.224 249.224 0 0 0 3.255-7.178l.775-1.815a3.324 3.324 0 0 0-3.507-4.625 3.307 3.307 0 0 0-2.038 1.094 3.8 3.8 0 0 0-.347.464l-.266.41-.532.821q-1.072 1.638-2.189 3.249a290.08 290.08 0 0 1-4.577 6.375 468.425 468.425 0 0 0-4.327 5.943c.608-1.16 1.147-2.384 1.711-3.546l1.776-3.689 3.553-7.379a6.4 6.4 0 0 0 .447-1.071 3.783 3.783 0 0 0 .14-1.23 3.957 3.957 0 0 0-7.254-2l-1.13 1.713-2.26 3.426-4.52 6.852-1.13 1.713-1.231 1.639-2.461 3.277-.325.433c.307-.617.607-1.237.918-1.853l2.2-4.346.548-1.089a11.368 11.368 0 0 0 .55-1.191 5.068 5.068 0 0 0-3.731-6.654 5.09 5.09 0 0 0-5.084 1.895c.035-.116.066-.233.089-.346a5.168 5.168 0 0 0-7.592-5.61 5.407 5.407 0 0 0-1.173.911 12.491 12.491 0 0 0-.847 1.053l-1.5 2.017q-1.491 2.025-2.937 4.083c-.56.8-1.1 1.609-1.652 2.414l2.019-5.392.566-1.514a4.955 4.955 0 0 0 .215-.972 3.8 3.8 0 0 0-.022-1 3.707 3.707 0 0 0-.687-1.889 4.24 4.24 0 0 0-5.344-1.429 4.646 4.646 0 0 0-1.529 1.208 13.838 13.838 0 0 0-1.017 1.377c-.095.143-.184.287-.278.431a3.811 3.811 0 0 0-5.25-3.714 4.117 4.117 0 0 0-.957.564 4.754 4.754 0 0 0-.716.753l-1.069 1.355a153.55 153.55 0 0 0-3.217 4.321l1.01-1.633A4.6 4.6 0 0 0 149.39.652a4.512 4.512 0 0 0-1.139.952c-.277.334-.509.649-.765.975l-5 6.449a4.984 4.984 0 0 0-1.928-2.059 5.072 5.072 0 0 0-4.491-.31 4.974 4.974 0 0 0-1.88 1.346c-.266.319-.444.567-.639.825l-.582.775-2.33 3.1-3.2 4.263a80.032 80.032 0 0 1 2.933-5.007q1.072-1.671 2.227-3.29l1.193-1.642a4.063 4.063 0 0 0-6.066-5.31l-.085-.065-.488.668-2.636 3.61-2.562 3.648-5.124 7.294a72 72 0 0 1-4.582 5.909c1.1-2.2 2.119-4.386 3.195-6.574l3.814-7.894.477-.987a3.374 3.374 0 0 0-5.528-3.768 4.013 4.013 0 0 0-.395.532l-.3.46-.589.919-1.2 1.827q-1.211 1.82-2.461 3.615a427.786 427.786 0 0 1-5.1 7.128 479.544 479.544 0 0 0-5.626 7.864c.181-.365.362-.728.54-1.1.672-1.371 1.3-2.8 1.9-4.174s1.271-2.749 1.953-4.1 1.393-2.689 2.137-4.008l1.136-1.967.585-.973c.2-.333.389-.608.609-1.033a3.927 3.927 0 0 0-6.116-4.67 5.193 5.193 0 0 0-.825.971l-.663.934-1.308 1.883q-1.295 1.891-2.541 3.815c-1.665 2.559-3.267 5.167-4.838 7.772-.783 1.3-1.636 2.549-2.519 3.788.054-.1.113-.2.166-.3l2.184-4.142 4.373-8.253 1.1-2.062a4.243 4.243 0 0 0 .537-2.536 4.178 4.178 0 0 0-5.864-3.369 4.047 4.047 0 0 0-1.092.717 4.486 4.486 0 0 0-.45.475l-.367.462q-1.449 1.851-2.806 3.77c-1.853 2.533-3.4 5.261-5.013 7.939-1.637 2.68-3.111 5.4-4.878 7.957-1.057 1.565-2.15 3.117-3.221 4.689a155.618 155.618 0 0 1 7.476-16.321 149.083 149.083 0 0 1 2.621-4.729c.229-.4.446-.75.684-1.2a3.207 3.207 0 0 0-1.081-4.078 3.2 3.2 0 0 0-4.183.519c-.35.412-.542.759-.817 1.139l-3.075 4.463c-4.11 5.945-8.238 11.885-12.158 17.967-3.178 5.007-6.326 10.012-9.7 14.862l2.012-4.23a69.443 69.443 0 0 1 3.933-7.608c1.507-2.419 3.137-4.817 4.418-7.411l3.871-7.685 1.929-3.848c.313-.637.648-1.3.919-1.962a2.57 2.57 0 0 0-2.033-3.65 2.564 2.564 0 0 0-2.2.829l-2.643 3.43-7.1 9.218 4.251-7.024.892-1.473.445-.736a3.4 3.4 0 0 0 .4-.85 3.129 3.129 0 0 0-4.736-3.517 2.945 2.945 0 0 0-.7.65l-.532.689-1.051 1.364L44.35 21.14c1.453-2.125 2.916-4.246 4.351-6.389l2.431-3.7.594-.934a6.752 6.752 0 0 0 .58-1.015 3.567 3.567 0 0 0-5.894-3.809c-.53.629-.915 1.181-1.379 1.775-3.589 4.659-7.5 9.065-11.417 13.466-.924 1.038-1.834 2.091-2.754 3.134l4.446-6.849 3.415-5.276 1.708-2.638a8.023 8.023 0 0 0 .83-1.442 3.258 3.258 0 0 0-2.317-4.27 3.3 3.3 0 0 0-3.272 1.1l-3.84 4.194c-.321.58-.637 1.161-.956 1.742l-7.569 8.284c2.781-4.065 5.535-8.229 8.207-12.642l.016-.024A2.17 2.17 0 0 0 28.236 3.1c-4.572 4.037-8.819 8.333-13.053 12.583q-2.781 2.79-5.567 5.546c.425-.819.839-1.7 1.253-2.7a83.262 83.262 0 0 1 5.434-11.5L16.321 7a1.664 1.664 0 0 0-2.437-2.182 62.574 62.574 0 0 0-5.922 5.341c-.273.281-.566.541-.845.816l2.346-5.726a1.341 1.341 0 0 0-2.472-1.038L1.869 15.878a1.495 1.495 0 0 0 2.254 1.8l.031-.023a62.02 62.02 0 0 0 5.113-4.369 85.792 85.792 0 0 0-1.681 3.862c-1.723 3.97-3.418 5.9-5.628 9.384a1.893 1.893 0 0 0 2.837 2.444l.019-.015c4.933-4.266 9.56-8.225 14.169-12.174-6.221 8.8-12.607 17.236-18.61 26.886a2.476 2.476 0 0 0 3.951 2.954l.014-.016 9.729-10.39c-1.088 1.7-2.17 3.415-3.224 5.16a115.34 115.34 0 0 0-7.266 13.887 3.022 3.022 0 0 0 .385 3.05c-.142.214-.283.429-.426.643a3.749 3.749 0 0 0 4.1 1.056 3.68 3.68 0 0 0 .934-.493 4.6 4.6 0 0 0 .725-.674l2.3-2.5 4.59-4.993 5.463-5.943-3.9 7.928-1.584 3.214-.792 1.607a4 4 0 0 0-.44 2.156 3.942 3.942 0 0 0 6.767 2.413 4.472 4.472 0 0 0 .358-.421l.27-.357.54-.714 1.079-1.427 2.157-2.856 4.316-5.71 2.6-3.436c-.9 1.7-1.792 3.4-2.721 5.073l-1.931 3.426-.988 1.7a4.23 4.23 0 0 0-.507 1.109 3.355 3.355 0 0 0 3.832 4.157 3.415 3.415 0 0 0 2.172-1.386l1.191-1.583c3.561-4.779 6.936-9.683 10.231-14.635l-1.212 2.71-3.422 7.654-.862 1.942a3.307 3.307 0 0 0 5.253 3.679c.21-.187.312-.3.434-.429l.363-.378.727-.757 1.435-1.542q1.417-1.56 2.786-3.16 2.733-3.205 5.267-6.563c1.4-1.849 2.756-3.729 4.087-5.625l-1.01 2.394a92.016 92.016 0 0 1-5.843 10.842 94.159 94.159 0 0 1-1.68 2.577 4.392 4.392 0 0 0-.664 3.779 4.341 4.341 0 0 0 6.489 2.457 8.744 8.744 0 0 0 .706-.522l.626-.5a32.18 32.18 0 0 0 3.46-3.344c.177-.2.343-.406.515-.609a4.165 4.165 0 0 0 .012.508 10.511 10.511 0 0 0 .325 1.377 4.659 4.659 0 0 0 7.219 1.965 10.263 10.263 0 0 0 .917-.874l.8-.826 1.572-1.676c1.576-1.716 3.079-3.5 4.541-5.311-.249.446-.49.9-.746 1.34l-.812 1.379-.206.343a4.4 4.4 0 0 0-.247.475 3.831 3.831 0 0 0-.3 1.044 3.968 3.968 0 0 0 5.776 4.07 4.007 4.007 0 0 0 1.252-1.035l.262-.34.979-1.3c2.527-3.394 4.934-6.854 7.294-10.341l-.974 2.116-3.264 7.1-.211.466a3.8 3.8 0 0 0 3.431 5.291 3.828 3.828 0 0 0 2.5-.884 4.077 4.077 0 0 0 .479-.478c.143-.179.278-.372.353-.487l.548-.807 1.094-1.616 2.187-3.232 4.375-6.464.717-1.061a94.018 94.018 0 0 1-1.157 1.995q-.709 1.184-1.455 2.346l-.752 1.158-.381.571a7.984 7.984 0 0 0-.455.732 4.818 4.818 0 0 0 1.9 6.5l.241.133h.067a5.092 5.092 0 0 0 3.481.378 6.607 6.607 0 0 0 3.144-1.777 10.274 10.274 0 0 0 1.178-1.172c.17-.189.345-.376.518-.563a5.018 5.018 0 0 0 .154.682 5.2 5.2 0 0 0 8.634 2.213 5.391 5.391 0 0 0 .824-1.043l.557-.912 1.116-1.823q1.276-2.074 2.54-4.156l-.125.33a9.261 9.261 0 0 0-.492 1.516 4.281 4.281 0 0 0 4.073 5.008 4.712 4.712 0 0 0 3.267-1.139 12.542 12.542 0 0 0 2.022-2.272c.543-.781 1.119-1.554 1.6-2.348 1.012-1.579 2.032-3.155 2.978-4.757l.439-.731-1.338 3.757c-.2.579-.395 1.088-.6 1.725a3.951 3.951 0 0 0 .042 2.365 3.984 3.984 0 0 0 6.8 1.358 3.66 3.66 0 0 0 .361-.489l.249-.408 1.841-3.058 8.507-14.107-.859 2.182-2.642 6.712-1.32 3.356-.661 1.678-.334.863a4.955 4.955 0 0 0-.256 1.109 4.871 4.871 0 0 0 5.747 5.313 4.806 4.806 0 0 0 2.056-.916 4.683 4.683 0 0 0 .814-.79 6.214 6.214 0 0 0 .578-.867l1.8-3.09a5.467 5.467 0 0 0 9.3 4.977 6.845 6.845 0 0 0 .809-1.06l.656-.986 1.825-2.746a4.761 4.761 0 0 0 8.791 3.15l2.911-4.7 5.363-8.654c-.126.251-.243.506-.371.756q-.723 1.416-1.492 2.808l-.387.694a3.734 3.734 0 0 0 2.743 5.558 4.269 4.269 0 0 0 3.589-1.4 49.762 49.762 0 0 0 4-5.2c1.242-1.756 2.419-3.543 3.632-5.313.564-.834 1.112-1.676 1.668-2.515l-2 4.539-2.978 6.765-.743 1.692-.371.846-.186.423a4.342 4.342 0 0 0-.2.536 3.732 3.732 0 0 0 5.841 4.008 3.84 3.84 0 0 0 .791-.819l.538-.752 1.077-1.506 4.308-6.023c1.424-2.015 2.9-4 4.28-6.04l.9-1.328a212.524 212.524 0 0 0-1.982 5.795q-.926 2.84-1.748 5.712a4.683 4.683 0 0 0-.216 1.693 4.411 4.411 0 0 0 .474 1.679 4.275 4.275 0 0 0 6.023 1.679 4.23 4.23 0 0 0 1.269-1.187c.345-.521.52-.913.773-1.36l2.833-5.229 2.513-4.637-.585 1.779c-.222.687-.44 1.311-.665 2.051a4.209 4.209 0 0 0 3.692 5.3 4.112 4.112 0 0 0 2.126-.383c0-.207.022-.413.033-.619a3.639 3.639 0 0 0 1.469-1.521l5.956-11.178-4.38 12.351-.011.032a2.986 2.986 0 0 0 5.49 2.315l14.692-27.953c-1.69 5.045-3.411 9.4-5.229 14.906-.289.873-.6 1.728-.895 2.593l-1.2 2.758-1.108 2.612-.546 1.345-.278.735c-.05.147-.1.267-.165.516l-.032.125-.039.192a2.184 2.184 0 0 0-.043.477c-.308-.7.039 2.312 2.539 2.56 2.653-.729 1.136-.472 1.863-.8a2.612 2.612 0 0 0 .18-.207 2.65 2.65 0 0 0 .164-.223 18.262 18.262 0 0 0 1.466-3c.372-.915.709-1.806 1.04-2.706.32-.88.615-1.759.922-2.638l.923-2.115 7.2-16.161c-2.646 8.509-5.328 16.8-8.015 25.884a3 3 0 0 0 5.639 2.025l.01-.024 7.922-18.66c-.791 3-1.6 6-2.438 8.965l-.874 2.937c-.24.743-.488 1.532-.734 2.207l-.448.93c-.068.149-.113.237-.223.506l-.07.191a2.379 2.379 0 0 0-.1.351c-3.491-2.011 4.291 4.518 4.769 2.949a3.01 3.01 0 0 0 .559-.585l.1-.144.074-.117.152-.256c.086-.156.185-.351.279-.545l-.069-.039.184-.4.06.053c.013-.031.034-.072.046-.1.153-.369.285-.714.409-1.052l1.2-2.514 4.225-8.678-3.46 12.811-.017.061a2.139 2.139 0 0 0 3.84 1.748l6.842-10.163-1.562 8.051a1.543 1.543 0 0 0 3.018.639l3.87-16.841a1.832 1.832 0 0 0-.737-1.898Z" data-name="Caminho 5646"/><path d="M9.463 5.245v.009Z" data-name="Caminho 5647"/><path d="m97.386 57.857.023-.04c.012-.022.017-.046.029-.068Z" data-name="Caminho 5648"/></g><g fill="#171556" data-name="Grupo 8123"><path d="m275.566 64.008.017.039c.043.094.24.185.527.244a3.125 3.125 0 0 0 .538.055 4.55 4.55 0 0 1 .255-.185 7.035 7.035 0 0 0 3.129-4.283c-1.586.383-3.09.785-4.476 1.2l-1.1.328 1.564-1.089c.1-.072.084-.124.078-.141-.032-.08-.191-.163-.425-.223a3.788 3.788 0 0 0-1.682.007l-8.925 2.375 3.722-2.373c.076-.05.108-.1.094-.146-.025-.074-.162-.154-.37-.213a3.786 3.786 0 0 0-1.658-.028 183.451 183.451 0 0 0-9.607 2.428l-1.216.344 2.072-1.3c.08-.049.114-.1.1-.146-.023-.075-.16-.154-.367-.213a3.78 3.78 0 0 0-1.663-.03l-8.336 1.885.712-.462a9.976 9.976 0 0 0 1.811-1.467.088.088 0 0 0 .023-.112.691.691 0 0 0-.4-.2 3.789 3.789 0 0 0-1.5-.045c-2.7.477-5.363 1.005-7.9 1.569l-.954.212.679-.45a9.366 9.366 0 0 0 1.63-1.335.09.09 0 0 0 .023-.111.66.66 0 0 0-.38-.2 3.823 3.823 0 0 0-1.48-.054 120.18 120.18 0 0 0-6.878 1.325l-1.516.34 1.872-.876c.084-.039.184-.1.175-.172s-.115-.141-.291-.2a3.673 3.673 0 0 0-1.69-.065c-2.55.522-5.059 1.077-7.455 1.649l-.97.233.688-.468a16.98 16.98 0 0 0 1.618-1.235c.05-.043.065-.083.044-.124a.686.686 0 0 0-.412-.213 3.835 3.835 0 0 0-1.593-.02c-2.85.621-5.65 1.3-8.318 2.005l-1.359.361 3.438-1.916c.064-.036.139-.092.126-.154s-.123-.141-.3-.2a3.671 3.671 0 0 0-1.615-.073c-1.842.332-3.646.7-5.362 1.1l-1.327.306 2.459-1.279c.073-.037.157-.1.145-.161s-.124-.142-.305-.2a3.662 3.662 0 0 0-1.659-.064c-2.525.5-4.993 1.034-7.335 1.591l-.849.2.558-.43a7.162 7.162 0 0 0 .718-.63c.04-.041.049-.078.027-.117a.731.731 0 0 0-.425-.211 3.772 3.772 0 0 0-1.555-.021l-9.494 1.98.956-.5a16.721 16.721 0 0 0 2.425-1.527c.058-.045.078-.088.059-.131-.032-.076-.183-.157-.4-.214a3.751 3.751 0 0 0-1.62-.02 274.9 274.9 0 0 0-6.289 1.493l-1.724.432 2.393-1.114c.07-.032.184-.1.178-.171s-.1-.132-.256-.19a3.611 3.611 0 0 0-1.627-.1c-1.242.207-2.485.432-3.694.668l-1.441.28 1.213-.54c.073-.032.2-.1.19-.176s-.1-.132-.253-.191a3.62 3.62 0 0 0-1.724-.08c-2.237.453-4.434.928-6.529 1.412l-1.824.421 2.854-1.231c.134-.057.207-.12.206-.178s-.077-.124-.216-.181a3.474 3.474 0 0 0-1.591-.123c-1.955.279-3.87.6-5.694.966l-1.1.219.854-.469a31.172 31.172 0 0 0 1.868-1.107c.076-.05.107-.1.093-.144-.021-.072-.146-.146-.343-.206a3.71 3.71 0 0 0-1.614-.051 115.62 115.62 0 0 0-7.094 1.617l-.9.238.6-.464c.373-.286.715-.575 1.019-.858.044-.042.056-.081.034-.121a.682.682 0 0 0-.409-.21 3.8 3.8 0 0 0-1.565-.026c-2.047.42-4.021.893-5.865 1.406l-1.011.281.713-.51a40.441 40.441 0 0 0 1.556-1.17c.057-.045.075-.087.058-.129-.032-.075-.179-.154-.393-.212a3.836 3.836 0 0 0-1.6-.029 92.729 92.729 0 0 0-7.768 1.966l-.6.182.254-.37a4.353 4.353 0 0 0 .236-.366c.068-.123-.166-.242-.549-.318a3.767 3.767 0 0 0-1.525.028c-1.984.5-3.891 1.028-5.669 1.572l-1.128.345 2.271-1.581c.1-.072.083-.124.077-.141-.032-.08-.191-.162-.424-.221a3.765 3.765 0 0 0-1.683.006l-8.924 2.374 3.722-2.373c.077-.05.109-.1.094-.146-.023-.073-.162-.153-.37-.212a3.783 3.783 0 0 0-1.657-.029 184.424 184.424 0 0 0-9.606 2.428l-1.219.345 2.076-1.3c.08-.05.113-.1.1-.147-.023-.074-.16-.153-.367-.212a3.756 3.756 0 0 0-1.661-.03l-8.335 1.885.71-.462a10.025 10.025 0 0 0 1.812-1.467.088.088 0 0 0 .023-.112.684.684 0 0 0-.4-.2 3.827 3.827 0 0 0-1.5-.045 187.193 187.193 0 0 0-7.9 1.569l-.953.212.68-.45a9.352 9.352 0 0 0 1.629-1.334.089.089 0 0 0 .023-.111.663.663 0 0 0-.379-.2 3.8 3.8 0 0 0-1.48-.054c-2.378.388-4.693.834-6.879 1.324l-1.52.342 1.877-.877c.085-.04.183-.1.175-.173s-.114-.14-.291-.2a3.672 3.672 0 0 0-1.69-.065c-2.56.522-5.068 1.077-7.456 1.649l-.974.233.693-.469a17.123 17.123 0 0 0 1.617-1.234c.049-.043.063-.083.044-.125a.676.676 0 0 0-.413-.212 3.81 3.81 0 0 0-1.591-.021c-2.9.632-5.7 1.308-8.321 2.006l-1.362.364 3.44-1.919c.065-.036.139-.092.126-.154s-.124-.14-.3-.2a3.665 3.665 0 0 0-1.617-.074c-1.841.332-3.644.7-5.361 1.1l-1.325.305 2.46-1.278c.072-.037.156-.1.144-.161s-.123-.142-.3-.2a3.7 3.7 0 0 0-1.658-.065c-2.522.5-4.99 1.034-7.335 1.592l-.846.2.555-.429a7.289 7.289 0 0 0 .718-.629.088.088 0 0 0 .026-.116.715.715 0 0 0-.424-.212 3.777 3.777 0 0 0-1.556-.021l-9.5 1.98.959-.5a16.57 16.57 0 0 0 2.418-1.531c.059-.046.078-.089.06-.131-.033-.077-.183-.157-.4-.215a3.793 3.793 0 0 0-1.619-.02c-2.134.48-4.25.982-6.287 1.493l-1.731.433 2.4-1.115c.068-.031.183-.1.177-.171s-.1-.132-.254-.19a3.615 3.615 0 0 0-1.628-.1c-1.245.209-2.488.433-3.692.668l-1.436.28 1.207-.539c.073-.033.2-.1.19-.176s-.1-.132-.253-.191a3.62 3.62 0 0 0-1.724-.08 241.68 241.68 0 0 0-6.527 1.411l-1.832.423 2.869-1.227c.133-.057.206-.12.205-.179s-.077-.123-.215-.18a3.51 3.51 0 0 0-1.593-.124c-1.962.281-3.878.606-5.694.968l-1.107.22.858-.47c.657-.36 1.286-.733 1.869-1.108q.114-.074.093-.144c-.022-.072-.147-.147-.344-.206a3.714 3.714 0 0 0-1.615-.051 115.438 115.438 0 0 0-7.094 1.618l-.9.238.606-.465c.366-.28.708-.569 1.018-.858q.066-.062.036-.12a.683.683 0 0 0-.411-.211 3.8 3.8 0 0 0-1.565-.026c-2.047.42-4.02.893-5.865 1.406l-1.012.281.713-.51a40.769 40.769 0 0 0 1.557-1.17c.057-.044.076-.087.058-.129-.032-.075-.179-.154-.392-.212a3.8 3.8 0 0 0-1.6-.029 86.816 86.816 0 0 0-10.055 2.7c-.186.063-.292.141-.289.212s.127.157.334.221l.029.009a3.632 3.632 0 0 0 1.866-.023c1.6-.546 3.326-1.06 5.125-1.526l1.006-.261-.716.494a58.884 58.884 0 0 1-4.6 2.846c-.1.056-.142.112-.123.165.027.074.182.178.537.251a3.4 3.4 0 0 0 1.814-.119 48.218 48.218 0 0 1 8.785-3.067l1.071-.274-.787.511a30.487 30.487 0 0 1-4.874 2.5l-.041.048h-.071c-.079.04-.167.1-.155.168.015.085.174.173.426.238a3.561 3.561 0 0 0 1.877-.069 68.8 68.8 0 0 1 9.683-3.081l1.519-.373-1.263.624a55.343 55.343 0 0 1-4.826 2.085c-.165.062-.255.135-.249.2s.144.163.365.226a3.682 3.682 0 0 0 1.876-.027 59.665 59.665 0 0 1 7.63-2.05l1.6-.328-5.565 2.382c-.082.035-.216.1-.206.186s.135.154.336.217a3.692 3.692 0 0 0 1.8.011 193.162 193.162 0 0 1 6.474-1.694l.231.262-1.978.768c-.093.036-.247.11-.239.2s.141.16.355.224a3.626 3.626 0 0 0 1.856-.016 84.066 84.066 0 0 1 8.368-2.233l1.474-.318-4.671 2.173c-.089.041-.191.1-.177.178s.15.159.367.222a3.729 3.729 0 0 0 1.791-.005c2.93-.861 6.064-1.7 9.314-2.509l1.688-.418-1.437.672a37.563 37.563 0 0 1-4.636 1.769c-.2.063-.318.141-.325.215s.133.155.218.19a3.566 3.566 0 0 0 1.773.09l13.019-2.715-.9.49a24.052 24.052 0 0 1-4.242 1.745c-.2.065-.32.145-.322.219s.1.147.289.211a3.694 3.694 0 0 0 1.882.019 149.22 149.22 0 0 1 9.5-2.492l1.315-.3-4.222 2.192c-.075.038-.161.1-.142.168.023.084.186.171.437.234a3.657 3.657 0 0 0 1.8-.048 70.016 70.016 0 0 1 7.338-2.09l1.2-.276-5.109 2.849c-.1.055-.14.109-.124.161.025.083.187.169.433.231a3.892 3.892 0 0 0 1.791-.03c3.335-1.085 6.948-2.1 10.736-3.017l1.084-.263-.809.5a30.36 30.36 0 0 1-3.223 1.722c-.087.041-.189.1-.176.177s.145.156.353.218a3.734 3.734 0 0 0 1.777.01c2.165-.6 4.453-1.183 6.8-1.736l1.606-.378-4.582 2.134c-.088.042-.19.107-.174.18s.179.172.429.236a3.624 3.624 0 0 0 1.838-.056 76.6 76.6 0 0 1 12.017-3.242l.9-.172-.636.413a24.008 24.008 0 0 1-5.568 2.528c-.192.064-.3.142-.3.214s.1.147.289.211a3.639 3.639 0 0 0 1.859.025c3.68-1.049 7.665-2 11.846-2.818l.9-.176-.632.416a21.831 21.831 0 0 1-4.289 2.1c-.158.06-.249.132-.248.2s.1.14.268.2a3.716 3.716 0 0 0 1.766.062l9.892-2.238-3.25 2.034c-.081.052-.114.1-.1.152.032.085.206.172.465.233a3.675 3.675 0 0 0 1.753-.05 145.806 145.806 0 0 1 10.681-3.132l1.087-.276-4.053 2.584c-.079.05-.111.1-.094.148.027.079.18.162.409.221a3.754 3.754 0 0 0 1.7 0l9.253-2.464-3.415 2.377c-.107.074-.083.128-.075.145.034.072.191.173.534.243a3.572 3.572 0 0 0 1.751-.09 83.9 83.9 0 0 1 8.185-2.761l.851-.241-.537.46a14.214 14.214 0 0 1-3.294 2.011c-.09.042-.2.108-.176.183s.206.183.479.246l.039.008a3.5 3.5 0 0 0 1.82-.107 15.559 15.559 0 0 0 3.179-1.867l.085-.068.142.009a3.455 3.455 0 0 0 1.231-.115 72.244 72.244 0 0 1 5.127-1.526l1-.261-.714.494a57.915 57.915 0 0 1-4.606 2.846c-.1.056-.142.112-.122.166.027.073.182.178.536.25a3.424 3.424 0 0 0 1.817-.119 48.141 48.141 0 0 1 8.785-3.066l1.072-.275-.789.511a30.688 30.688 0 0 1-4.925 2.521l-.028.011c-.1.049-.2.112-.187.183s.174.173.426.238a3.55 3.55 0 0 0 1.877-.069 69.148 69.148 0 0 1 9.686-3.081l1.519-.372-1.263.624a54.936 54.936 0 0 1-4.826 2.084c-.164.062-.255.135-.248.2s.144.163.365.227a3.678 3.678 0 0 0 1.875-.028 60.068 60.068 0 0 1 7.631-2.05l1.6-.328-5.565 2.382c-.081.034-.216.1-.206.186s.136.155.338.217a3.68 3.68 0 0 0 1.8.012 193.216 193.216 0 0 1 6.474-1.694l.231.262-1.977.768c-.161.063-.246.133-.239.2s.14.159.354.223a3.638 3.638 0 0 0 1.856-.015 83.928 83.928 0 0 1 8.368-2.234l1.476-.318-4.675 2.173c-.088.041-.189.105-.176.178s.152.159.368.221a3.746 3.746 0 0 0 1.792 0c2.923-.859 6.056-1.7 9.313-2.508l1.691-.419-1.441.672a38 38 0 0 1-4.636 1.769c-.2.063-.319.141-.326.215s.133.154.218.189a3.526 3.526 0 0 0 1.772.091l13.021-2.715-.9.49a24.215 24.215 0 0 1-4.241 1.745c-.2.065-.32.144-.322.219s.1.148.289.211a3.672 3.672 0 0 0 1.882.019 148.344 148.344 0 0 1 9.5-2.492l1.314-.3-4.221 2.194c-.076.038-.162.1-.142.168.021.084.185.171.435.234a3.67 3.67 0 0 0 1.8-.048 70.163 70.163 0 0 1 7.336-2.09l1.2-.276-5.109 2.849c-.1.055-.141.109-.125.162.024.082.186.168.433.23a3.547 3.547 0 0 0 .828.091h.025a3.246 3.246 0 0 0 .935-.122c3.337-1.085 6.951-2.1 10.737-3.016l1.083-.263-.808.5a30.509 30.509 0 0 1-3.221 1.721c-.088.041-.191.1-.178.178s.144.156.351.218a3.764 3.764 0 0 0 1.778.009c2.172-.6 4.46-1.183 6.8-1.735l1.605-.379-4.582 2.134c-.089.042-.19.106-.174.181s.179.172.43.236a3.61 3.61 0 0 0 1.837-.057 76.809 76.809 0 0 1 12.017-3.242l.9-.172-.636.414a24.1 24.1 0 0 1-5.567 2.528c-.193.064-.3.141-.3.213s.1.148.289.211a3.649 3.649 0 0 0 1.859.026c3.672-1.047 7.658-2 11.846-2.818l.9-.177-.633.417a21.811 21.811 0 0 1-4.287 2.1c-.159.06-.25.132-.248.2s.1.139.268.2a3.7 3.7 0 0 0 1.763.063l9.894-2.238-3.25 2.034c-.083.051-.116.1-.1.151.032.086.206.173.466.234a3.675 3.675 0 0 0 1.753-.05 145.296 145.296 0 0 1 10.682-3.131l1.088-.276-4.057 2.584c-.078.05-.11.1-.093.147.027.079.18.162.41.222a3.754 3.754 0 0 0 1.7 0l9.26-2.464-3.412 2.377c-.109.074-.084.128-.075.145.032.072.189.174.532.243a3.576 3.576 0 0 0 1.752-.09 83.881 83.881 0 0 1 8.185-2.761l.852-.241-.538.46a14.2 14.2 0 0 1-3.3 2.011c-.074.035-.167.09-.174.154s.058.108.112.141Z" data-name="Caminho 5620"/><path d="M281.266 9.262a9.192 9.192 0 0 0-2.039-5.145 10 10 0 0 0-4.62-3 29.732 29.732 0 0 0-9.139-.933q-8.469.028-16.937.2l-16.937.442c-5.646.16-11.292.3-16.938.387l-8.469.08-8.469-.006c-5.646.021-11.291-.055-16.936-.125L163.845.951 146.909.91l-16.938.171-16.939.311c-5.646.115-11.293.214-16.939.261l-8.469.095-8.468-.012c-11.291-.069-22.58-.323-33.873-.211-11.292.162-22.587.545-33.884.974v.112a8.111 8.111 0 0 0-4.612 1.086 7.922 7.922 0 0 0-3.014 3.749 15.849 15.849 0 0 0-1.058 4.49 27.129 27.129 0 0 0-.108 3.2l-.2-.005-.016 1.222c-.084 6.333-.278 6.7-.431 13.053-.092 3.18-.118 8.361-.162 11.547l-.031 4.786.018 2.414c.006.4.01.806.033 1.237l.029.635c.014.155.036.326.064.5a33.237 33.237 0 0 0-.1 3.954 15.9 15.9 0 0 0 .707 4.312 7.9 7.9 0 0 0 2.807 4.033 7.031 7.031 0 0 0 2.961 1.217v.162l1.759-.008c5.462-.027 10.924 0 16.386-.072l16.385-.226c5.462-.081 10.924-.16 16.386-.159 5.462-.027 10.924-.056 16.387.026l8.193.079 8.193.16 16.386.33q16.386.312 32.773.111c10.924-.155 21.848-.4 32.772-.5 10.924-.082 21.849-.01 32.773.28 10.924.238 21.848.563 32.772.568q8.193.018 16.387-.111l16.386-.344 1.941-.04v-.189a7.293 7.293 0 0 0 2.685-1.106 7.555 7.555 0 0 0 2.821-3.938 23.581 23.581 0 0 0 .724-8.129c-.159-4.97-.011-10.08.035-15.113.082-5.051.222-10.1.393-15.155l.467-11.156v-.065Zm-4.163 41.766a19.98 19.98 0 0 1-.726 6.871 3.964 3.964 0 0 1-1.561 2.076 4.984 4.984 0 0 1-2.569.56h-.041l-16.37-.343q-8.2-.128-16.387-.111c-10.924.005-21.848.33-32.772.568-10.924.289-21.849.362-32.773.28-10.924-.1-21.848-.349-32.772-.5q-16.387-.186-32.773.11l-16.386.331-8.193.16-8.193.079c-5.463.082-10.925.053-16.387.026-5.462 0-10.924-.078-16.386-.159l-16.386-.222c-5.455-.068-10.909-.045-16.364-.072h-.048a4.766 4.766 0 0 1-2.655-.71 4.428 4.428 0 0 1-1.58-2.277 12.556 12.556 0 0 1-.592-3.377 30.454 30.454 0 0 1 .047-3.7l-.077-.638a.465.465 0 0 0-.007-.2l-.032-.555c-.026-.362-.037-.755-.049-1.146l-.055-2.355-.044-4.75-.031-11.528c-.047-5.972-.063-5.94-.162-11.93l.333-.008-.123-1.241a27.1 27.1 0 0 1-.121-4.147 13.822 13.822 0 0 1 .727-3.947 6.093 6.093 0 0 1 2.16-3 5.785 5.785 0 0 1 2.663-.976l.964.032c11.289.369 22.578.691 33.87.793 11.293.052 22.588-.262 33.882-.391l8.47-.057 8.47.05c5.646.016 11.291.086 16.937.171l16.938.22 16.94.081 16.94-.131 16.941-.3c5.646-.1 11.293-.206 16.94-.215l8.47-.052 8.469.035c5.647.052 11.293.167 16.94.3l16.939.352q8.47.135 16.941.111c1.433-.009 2.791-.032 4.073.047a16.718 16.718 0 0 1 3.585.557 4.471 4.471 0 0 1 3.557 3.953l.254 10.955c.1 5.05.17 10.1.183 15.149l-.014 7.576c-.01 2.501-.104 5.029-.004 7.595Z" data-name="Caminho 5621"/><path d="M277.864 51.797v.926c0 .2.008.458 0 .607 0 .165-.015.329-.035.493a4.71 4.71 0 0 1-.222.96 4.807 4.807 0 0 1-4.531 3.244c-54.626.2-48.291-.515-102.92-.739-27.31-.128-67.744 1.438-95.056 1.738l-20.284-1-5.121.055-40.335-.8a4.068 4.068 0 0 1-1.639-.335 4.163 4.163 0 0 1-2.256-2.417 4.482 4.482 0 0 1-.2-.83c-.021-.142-.019-.286-.035-.43-.01-.167-.01-.415-.01-.615v-.518a5.5 5.5 0 0 1-1.771.554 50.1 50.1 0 0 0 .761 7.412v-.466a8.167 8.167 0 0 0 5.107 1.9l2.585.031 5.121.055 5.637.06a5.114 5.114 0 0 1 4.449.048h.157c27.309.3 54.626.485 81.938.358 54.626-.224 109.248-1.5 163.877-1.3a7.6 7.6 0 0 0 4.8-1.714 13.826 13.826 0 0 0 1.709-5.959c.04-.542.046-1.085.068-1.628a4.191 4.191 0 0 1-1.794.31Z" data-name="Caminho 5622"/></g></svg>